<svg id="App_Icon" data-name="App Icon" xmlns="http://www.w3.org/2000/svg" width="36.659" height="36.926" viewBox="0 0 36.659 36.926">
  <path id="Pfad_3596" data-name="Pfad 3596" d="M7.943,0H28.716a7.972,7.972,0,0,1,7.943,8V28.926a7.972,7.972,0,0,1-7.943,8H7.943a7.972,7.972,0,0,1-7.943-8V8A7.972,7.972,0,0,1,7.943,0Z" fill="#234e77"/>
  <g id="Gruppe_2669" data-name="Gruppe 2669" transform="translate(9.614 8.584)">
    <g id="Gruppe_2637" data-name="Gruppe 2637" transform="translate(0 0)">
      <g id="Komponente_35_78" data-name="Komponente 35 – 78" transform="translate(0)">
        <path id="Pfad_3244" data-name="Pfad 3244" d="M13.42-791.632l-7.953,4.575,2.486,1.43a1.712,1.712,0,0,0,1.707,0l3.76-2.163Zm3.339-9.192-3.844-2.211-3.339,1.921,8.036,4.623v-2.86a1.7,1.7,0,0,0-.853-1.473Zm-13.419,7.67v-9.1l-2.486,1.43A1.7,1.7,0,0,0,0-799.351v4.21Z" transform="translate(0 805.087)" fill="#fff" fill-rule="evenodd"/>
        <path id="Pfad_3243" data-name="Pfad 3243" d="M.853-792.574l3.76,2.163,3.294-1.895-4.556-2.712H3.339v-.007L0-797.013v2.966a1.7,1.7,0,0,0,.853,1.473Zm3.339-9.289,7.869-4.527-2.4-1.382a1.712,1.712,0,0,0-1.707,0l-3.76,2.163Zm13.419,3.49v4.327a1.7,1.7,0,0,1-.853,1.473l-2.486,1.43v-9.15Z" transform="translate(0 808)" fill="#fff" fill-rule="evenodd"/>
      </g>
    </g>
  </g>
  <g id="Gruppe_2670" data-name="Gruppe 2670" transform="translate(4.493 4.493)">
    <path id="Vereinigungsmenge_4" data-name="Vereinigungsmenge 4" d="M20.846,27.924a.712.712,0,0,1,0-1.423h3.433a1.881,1.881,0,0,0,1.869-1.888V21.146a.7.7,0,1,1,1.409,0v3.467a3.3,3.3,0,0,1-3.278,3.311Zm-17.659,0A3.292,3.292,0,0,1,0,25.391V20.8a.7.7,0,0,1,1.317.35v3.467A1.881,1.881,0,0,0,3.187,26.5H6.62a.708.708,0,0,1,.7.7v.029a.707.707,0,0,1-.7.7ZM26.839,7.489a.709.709,0,0,1-.691-.712V3.31a1.88,1.88,0,0,0-1.869-1.887H20.846A.712.712,0,0,1,20.832,0H24.31a3.3,3.3,0,0,1,3.247,3.31V6.778a.709.709,0,0,1-.691.712ZM.6,7.489A.7.7,0,0,1,0,7.129v-4.6A3.292,3.292,0,0,1,3.155,0H6.634a.708.708,0,0,1,.69.7V.726a.708.708,0,0,1-.7.7H3.187a1.881,1.881,0,0,0-1.87,1.888V6.778a.708.708,0,0,1-.69.712Z" transform="translate(0)" fill="#ffd858"/>
  </g>
</svg>
