<svg xmlns="http://www.w3.org/2000/svg" xmlns:xlink="http://www.w3.org/1999/xlink" width="128.408" height="55.269" viewBox="0 0 128.408 55.269">
  <defs>
    <clipPath id="clip-path">
      <rect id="Rechteck_18061" data-name="Rechteck 18061" width="128.408" height="55.269" fill="none"/>
    </clipPath>
  </defs>
  <g id="Batch-AppStore" transform="translate(64.204 27.634)">
    <g id="Gruppe_14577" data-name="Gruppe 14577" transform="translate(-64.204 -27.634)" clip-path="url(#clip-path)">
      <g id="Gruppe_14575" data-name="Gruppe 14575">
        <g id="Gruppe_14574" data-name="Gruppe 14574" opacity="0">
          <g id="Gruppe_14573" data-name="Gruppe 14573" clip-path="url(#clip-path)">
            <rect id="Rechteck_18058" data-name="Rechteck 18058" width="128.408" height="55.269" fill="#fff"/>
          </g>
        </g>
      </g>
      <g id="Gruppe_14576" data-name="Gruppe 14576" transform="translate(9.211 9.211)">
        <path id="Pfad_30220" data-name="Pfad 30220" d="M111.418,10H16.909l-1.842.184a6.172,6.172,0,0,0-1.75.553,5.988,5.988,0,0,0-1.474,1.105,5.8,5.8,0,0,0-1.105,1.474,6.08,6.08,0,0,0-.553,1.75A12.067,12.067,0,0,0,10,16.909q0,.415,0,.829v22.2a11.974,11.974,0,0,0,.184,1.842,6.079,6.079,0,0,0,.553,1.75A5.711,5.711,0,0,0,11.842,45a5.8,5.8,0,0,0,1.474,1.105,6.172,6.172,0,0,0,1.75.553l1.842.184h96.352l1.842-.184a6.264,6.264,0,0,0,1.75-.553A5.8,5.8,0,0,0,118.327,45a5.9,5.9,0,0,0,1.105-1.474,6.08,6.08,0,0,0,.553-1.75,12.618,12.618,0,0,0,.184-1.842q0-.415,0-.829v-22.2a12.617,12.617,0,0,0-.184-1.842,6.079,6.079,0,0,0-.553-1.75,5.987,5.987,0,0,0-2.579-2.579,6.264,6.264,0,0,0-1.75-.553L113.261,10h-1.842" transform="translate(-10 -10)" fill="#a6a6a6"/>
        <path id="Pfad_30221" data-name="Pfad 30221" d="M17.809,46.08H16.98l-1.658-.092-1.566-.553a4.974,4.974,0,0,1-1.29-.921,4.882,4.882,0,0,1-.921-1.29,5.343,5.343,0,0,1-.461-1.566,11.514,11.514,0,0,1-.184-1.75V16.972a11.514,11.514,0,0,1,.184-1.75,5.343,5.343,0,0,1,.461-1.566,4.974,4.974,0,0,1,.921-1.29,5.158,5.158,0,0,1,1.29-.921l1.566-.461,1.75-.184h96.26l1.75.184,1.566.461a5.158,5.158,0,0,1,2.211,2.211,5.343,5.343,0,0,1,.461,1.474,12.065,12.065,0,0,1,.184,1.75V40a11.8,11.8,0,0,1-.184,1.75,5.343,5.343,0,0,1-.461,1.566,5.065,5.065,0,0,1-.921,1.29,4.974,4.974,0,0,1-1.29.921l-1.566.461-1.75.184H17.809Z" transform="translate(-10.071 -10.063)"/>
        <path id="Pfad_30222" data-name="Pfad 30222" d="M33.633,29.794a4.514,4.514,0,0,1,2.211-3.869A4.7,4.7,0,0,0,32.159,23.9c-1.566-.184-3.04.921-3.869.921s-2.027-.921-3.316-.921a4.882,4.882,0,0,0-4.145,2.487c-1.75,3.04-.461,7.646,1.29,10.133S23.961,39.1,25.25,39.1s1.75-.829,3.316-.829,1.934.829,3.316.829,2.211-1.2,3.04-2.487A10.133,10.133,0,0,0,36.3,33.754,4.422,4.422,0,0,1,33.633,29.7" transform="translate(-10.788 -11.094)" fill="#fff"/>
        <path id="Pfad_30223" data-name="Pfad 30223" d="M31.746,21.924A4.514,4.514,0,0,0,32.76,18.7a4.606,4.606,0,0,0-2.948,1.566A4.237,4.237,0,0,0,28.8,23.4a3.777,3.777,0,0,0,2.948-1.474" transform="translate(-11.481 -10.686)" fill="#fff"/>
        <path id="Pfad_30224" data-name="Pfad 30224" d="M51.685,36.39H47.356l-1.013,3.132H44.5L48.645,28.1h1.842l4.145,11.422H52.79Zm-3.961-1.382h3.5l-1.658-5.066h-.092Z" transform="translate(-12.72 -11.427)" fill="#fff"/>
        <path id="Pfad_30225" data-name="Pfad 30225" d="M64.43,35.637c0,2.579-1.382,4.237-3.5,4.237A2.856,2.856,0,0,1,58.35,38.4h0v4.145H56.6V31.492h1.658v1.382h0A2.948,2.948,0,0,1,60.929,31.4c2.119,0,3.5,1.658,3.5,4.237m-1.75,0c0-1.658-.829-2.763-2.211-2.763s-2.211,1.105-2.211,2.763.921,2.763,2.211,2.763S62.68,37.3,62.68,35.637" transform="translate(-13.675 -11.687)" fill="#fff"/>
        <path id="Pfad_30226" data-name="Pfad 30226" d="M74.43,35.637c0,2.579-1.382,4.237-3.5,4.237A2.856,2.856,0,0,1,68.35,38.4h0v4.145H66.6V31.492h1.658v1.382h0A2.948,2.948,0,0,1,70.929,31.4c2.119,0,3.5,1.658,3.5,4.237m-1.75,0c0-1.658-.829-2.763-2.211-2.763s-2.211,1.105-2.211,2.763.921,2.763,2.211,2.763S72.68,37.3,72.68,35.637" transform="translate(-14.463 -11.687)" fill="#fff"/>
        <path id="Pfad_30227" data-name="Pfad 30227" d="M81.566,36.282c.092,1.105,1.2,1.842,2.763,1.842s2.487-.737,2.487-1.75-.645-1.382-2.119-1.75l-1.474-.368c-2.119-.553-3.04-1.474-3.04-3.04s1.75-3.316,4.145-3.316,4.053,1.382,4.145,3.316h-1.75a2.133,2.133,0,0,0-2.395-1.842c-1.382,0-2.3.737-2.3,1.75s.645,1.29,2.119,1.658l1.29.276c2.3.553,3.316,1.474,3.316,3.132s-1.75,3.5-4.422,3.5S80.092,38.4,80,36.282Z" transform="translate(-15.52 -11.411)" fill="#fff"/>
        <path id="Pfad_30228" data-name="Pfad 30228" d="M93.056,29.3v1.934h1.566v1.382H93.056v4.606c0,.737.276,1.013,1.013,1.013h.553v1.382H93.7c-1.658,0-2.3-.645-2.3-2.211v-4.79H90.2V31.234h1.2V29.3Z" transform="translate(-16.324 -11.522)" fill="#fff"/>
        <path id="Pfad_30229" data-name="Pfad 30229" d="M96.1,35.637c0-2.579,1.566-4.237,3.961-4.237s3.961,1.658,3.961,4.237-1.566,4.237-3.961,4.237S96.1,38.216,96.1,35.637m6.172,0c0-1.842-.829-2.856-2.211-2.856s-2.3,1.013-2.3,2.856.829,2.856,2.211,2.856,2.211-1.013,2.211-2.856" transform="translate(-16.789 -11.687)" fill="#fff"/>
        <path id="Pfad_30230" data-name="Pfad 30230" d="M106.2,31.4h1.658v1.474h0a2.027,2.027,0,0,1,2.027-1.474h.553v1.566H109.7a1.75,1.75,0,0,0-1.75,1.658,1.836,1.836,0,0,0,0,.276v4.974H106.2Z" transform="translate(-17.586 -11.687)" fill="#fff"/>
        <path id="Pfad_30231" data-name="Pfad 30231" d="M118.753,37.287c-.184,1.474-1.658,2.579-3.592,2.579a4.115,4.115,0,0,1-3.961-4.237c0-2.579,1.474-4.329,3.869-4.329s3.777,1.566,3.777,4.145V36h-5.9a2.211,2.211,0,0,0,1.934,2.395h.276a1.842,1.842,0,0,0,1.934-1.2Zm-5.8-2.487H117.1a2.027,2.027,0,0,0-1.934-2.119h-.184a2.119,2.119,0,0,0-2.119,2.119Z" transform="translate(-17.98 -11.68)" fill="#fff"/>
        <path id="Pfad_30232" data-name="Pfad 30232" d="M47.634,18.692a2.445,2.445,0,0,1,2.579,2.671c0,1.75-.921,2.763-2.579,2.763H45.7V18.6Zm-1.105,4.7h1.013a1.842,1.842,0,0,0,1.842-2.027,1.75,1.75,0,0,0-1.474-1.934H46.529Z" transform="translate(-12.815 -10.678)" fill="#fff"/>
        <path id="Pfad_30233" data-name="Pfad 30233" d="M51.7,22.234a1.943,1.943,0,1,1,0,.368,2.029,2.029,0,0,1,0-.368m3.04,0q0-1.382-1.105-1.382c-.737,0-1.105.553-1.105,1.382s.368,1.474,1.105,1.474,1.105-.553,1.105-1.474" transform="translate(-13.287 -10.812)" fill="#fff"/>
        <path id="Pfad_30234" data-name="Pfad 30234" d="M61.206,24.345h-.921l-.829-3.04h-.092l-.829,3.04h-.829L56.6,20.2h.829l.737,3.132h0l.921-3.132h.737l.829,3.132h.092l.737-3.132h.829Z" transform="translate(-13.675 -10.804)" fill="#fff"/>
        <path id="Pfad_30235" data-name="Pfad 30235" d="M63.8,20.192h.829v.645h.092a1.2,1.2,0,0,1,1.2-.737,1.382,1.382,0,0,1,1.474,1.566v2.671h-.829V21.85c0-.645-.276-1.013-.921-1.013a.921.921,0,0,0-1.013,1.013v2.395H63.8Z" transform="translate(-14.242 -10.796)" fill="#fff"/>
        <rect id="Rechteck_18060" data-name="Rechteck 18060" width="0.829" height="5.766" transform="translate(54.44 7.738)" fill="#fff"/>
        <path id="Pfad_30236" data-name="Pfad 30236" d="M71.2,22.234a1.943,1.943,0,1,1,0,.368,2.024,2.024,0,0,1,0-.368m3.04,0q0-1.382-1.105-1.382c-.737,0-1.105.553-1.105,1.382s.368,1.474,1.105,1.474,1.105-.553,1.105-1.474" transform="translate(-14.825 -10.812)" fill="#fff"/>
        <path id="Pfad_30237" data-name="Pfad 30237" d="M76.392,23.148c0-.737.553-1.2,1.566-1.2h1.105v-.368c0-.461-.276-.645-.829-.645s-.737.184-.829.461h-.829a1.714,1.714,0,0,1,3.316.184v2.856h-.829v-.553h-.092a1.382,1.382,0,0,1-1.29.645A1.29,1.29,0,0,1,76.3,23.424h0m2.671-.368v-.368H78.05c-.553,0-.829.276-.829.553s.368.553.737.553a1.013,1.013,0,0,0,1.105-.829Z" transform="translate(-15.228 -10.804)" fill="#fff"/>
        <path id="Pfad_30238" data-name="Pfad 30238" d="M81.3,22.085c0-1.29.645-2.119,1.75-2.119a1.382,1.382,0,0,1,1.29.737h.092V18.4h.829v5.8h-.829v-.645H84.34a1.474,1.474,0,0,1-1.29.737c-1.013,0-1.75-.829-1.75-2.119m.829,0q0,1.382,1.105,1.382c.737,0,1.105-.553,1.105-1.382s-.461-1.382-1.105-1.382-1.105.553-1.105,1.382" transform="translate(-15.622 -10.662)" fill="#fff"/>
        <path id="Pfad_30239" data-name="Pfad 30239" d="M89.2,22.234a1.943,1.943,0,1,1,0,.368,2.024,2.024,0,0,1,0-.368m3.04,0q0-1.382-1.105-1.382c-.737,0-1.105.553-1.105,1.382s.368,1.474,1.105,1.474,1.105-.553,1.105-1.474" transform="translate(-16.244 -10.812)" fill="#fff"/>
        <path id="Pfad_30240" data-name="Pfad 30240" d="M94.7,20.192h.829v.645h.092a1.2,1.2,0,0,1,1.2-.737,1.382,1.382,0,0,1,1.474,1.566v2.671h-.829V21.85c0-.645-.276-1.013-.921-1.013a.921.921,0,0,0-1.013.921,1.109,1.109,0,0,0,0,.184v2.395H94.7Z" transform="translate(-16.679 -10.796)" fill="#fff"/>
        <path id="Pfad_30241" data-name="Pfad 30241" d="M103.374,19.1v1.013h.921v.737h-.921v2.119c0,.461.184.645.553.645h.276v.645h-.368c-.921,0-1.29-.276-1.29-1.105v-2.3H101.9v-.645h.645V19.1Z" transform="translate(-17.247 -10.718)" fill="#fff"/>
        <path id="Pfad_30242" data-name="Pfad 30242" d="M105.7,18.4h.829v2.3h.092a1.29,1.29,0,0,1,1.29-.737,1.382,1.382,0,0,1,1.474,1.29,1.293,1.293,0,0,1,0,.276V24.2h-.829V21.716c0-.645-.276-1.013-.921-1.013a1.013,1.013,0,0,0-1.013,1.105V24.2h-.829Z" transform="translate(-17.546 -10.662)" fill="#fff"/>
        <path id="Pfad_30243" data-name="Pfad 30243" d="M114.475,23.24a1.658,1.658,0,0,1-1.842,1.2,1.842,1.842,0,0,1-1.934-2.119,1.934,1.934,0,0,1,1.658-2.119h.276c1.2,0,1.842.829,1.842,2.119v.276h-2.948a1.105,1.105,0,0,0,1.013,1.2h.092a1.013,1.013,0,0,0,1.013-.461Zm-2.948-1.382h2.119a1.013,1.013,0,0,0-.921-1.105h-.092a1.105,1.105,0,0,0-1.105,1.013Z" transform="translate(-17.939 -10.804)" fill="#fff"/>
      </g>
    </g>
  </g>
</svg>
