<svg xmlns="http://www.w3.org/2000/svg" xmlns:xlink="http://www.w3.org/1999/xlink" width="312.717" height="169.744" viewBox="0 0 312.717 169.744">
  <defs>
    <clipPath id="clip-path">
      <rect width="69.764" height="125.15" fill="none"/>
    </clipPath>
    <clipPath id="clip-path-2">
      <rect id="Rechteck_21996" data-name="Rechteck 21996" width="43.282" height="8.549" fill="#fff"/>
    </clipPath>
    <clipPath id="clip-path-4">
      <rect id="Rechteck_6146" data-name="Rechteck 6146" width="44.305" height="19.069" fill="none"/>
    </clipPath>
    <clipPath id="clip-path-6">
      <rect id="Rechteck_6142" data-name="Rechteck 6142" width="43.535" height="16.852" fill="none"/>
    </clipPath>
    <clipPath id="clip-path-8">
      <path id="Pfad_6922" data-name="Pfad 6922" d="M20.039,17.5a.562.562,0,0,0-.14.393v6.235a.562.562,0,0,0,.14.393h.028l3.483-3.483h0L20.067,17.5Z" transform="translate(-19.899 -17.5)" fill="none"/>
    </clipPath>
    <linearGradient id="linear-gradient" x1="-0.483" y1="1.608" x2="-0.446" y2="1.608" gradientUnits="objectBoundingBox">
      <stop offset="0" stop-color="#00a0ff"/>
      <stop offset="0.01" stop-color="#00a1ff"/>
      <stop offset="0.26" stop-color="#00beff"/>
      <stop offset="0.51" stop-color="#00d2ff"/>
      <stop offset="0.76" stop-color="#00dfff"/>
      <stop offset="1" stop-color="#00e3ff"/>
    </linearGradient>
    <clipPath id="clip-path-9">
      <path id="Pfad_6923" data-name="Pfad 6923" d="M32.9,26.88h0l1.152,1.236h.028l1.376-.815a.429.429,0,0,0,0-.815L34.08,25.7h-.028Z" transform="translate(-32.9 -25.7)" fill="none"/>
    </clipPath>
    <linearGradient id="linear-gradient-2" x1="-3.133" y1="4.012" x2="-3.038" y2="4.012" gradientUnits="objectBoundingBox">
      <stop offset="0" stop-color="#ffe000"/>
      <stop offset="0.41" stop-color="#ffbd00"/>
      <stop offset="0.78" stop-color="orange"/>
      <stop offset="1" stop-color="#ff9c00"/>
    </linearGradient>
    <clipPath id="clip-path-10">
      <path id="Pfad_6924" data-name="Pfad 6924" d="M20.4,33.511a.449.449,0,0,0,.59.028l4.1-2.331L23.911,30Z" transform="translate(-20.4 -30)" fill="none"/>
    </clipPath>
    <linearGradient id="linear-gradient-3" x1="-0.871" y1="1.621" x2="-0.824" y2="1.621" gradientUnits="objectBoundingBox">
      <stop offset="0" stop-color="#ff3a44"/>
      <stop offset="1" stop-color="#c31162"/>
    </linearGradient>
    <clipPath id="clip-path-11">
      <path id="Pfad_6925" data-name="Pfad 6925" d="M20.4,17.283l3.511,3.511,1.18-1.18-4.1-2.331a.646.646,0,0,0-.309-.084.365.365,0,0,0-.281.112" transform="translate(-20.4 -17.199)" fill="none"/>
    </clipPath>
    <linearGradient id="linear-gradient-4" x1="-0.876" y1="2.249" x2="-0.828" y2="2.249" gradientUnits="objectBoundingBox">
      <stop offset="0" stop-color="#32a071"/>
      <stop offset="0.07" stop-color="#2da771"/>
      <stop offset="0.48" stop-color="#15cf74"/>
      <stop offset="0.8" stop-color="#06e775"/>
      <stop offset="1" stop-color="#00f076"/>
    </linearGradient>
    <clipPath id="clip-path-12">
      <rect id="Rechteck_6138" data-name="Rechteck 6138" width="4.691" height="2.452" fill="none"/>
    </clipPath>
    <clipPath id="clip-path-13">
      <rect id="Rechteck_6139" data-name="Rechteck 6139" width="0.14" height="0.435" fill="none"/>
    </clipPath>
    <clipPath id="clip-path-14">
      <rect id="Rechteck_6140" data-name="Rechteck 6140" width="1.685" height="1.185" fill="none"/>
    </clipPath>
    <clipPath id="clip-path-15">
      <rect id="Rechteck_6141" data-name="Rechteck 6141" width="6.488" height="3.612" fill="none"/>
    </clipPath>
    <clipPath id="clip-path-16">
      <rect id="Rechteck_21685" data-name="Rechteck 21685" width="42.052" height="39.424" fill="none"/>
    </clipPath>
    <clipPath id="clip-path-17">
      <rect id="Rechteck_1268" data-name="Rechteck 1268" width="31.586" height="17.197" fill="none"/>
    </clipPath>
  </defs>
  <g id="icon_wizard-email-finished" transform="translate(-928.782 -465)">
    <g id="Gruppe_16108" data-name="Gruppe 16108">
      <g id="Gruppe_16018" data-name="Gruppe 16018" transform="translate(3 22.604)">
        <path id="Pfad_13549" data-name="Pfad 13549" d="M332.363,798.726H83.6a6.8,6.8,0,0,1-6.794-6.794V656.125A6.8,6.8,0,0,1,83.6,649.33h248.76a6.8,6.8,0,0,1,6.795,6.794V791.931A6.8,6.8,0,0,1,332.363,798.726ZM83.6,654.284a1.843,1.843,0,0,0-1.84,1.841V791.931a1.843,1.843,0,0,0,1.84,1.841h248.76a1.843,1.843,0,0,0,1.841-1.841V656.125a1.843,1.843,0,0,0-1.841-1.841Zm203.26,159.628H247.706v-10.17a2.054,2.054,0,0,0-2.054-2.054H170.315a2.054,2.054,0,0,0-2.054,2.054v10.17H129.1a1.176,1.176,0,0,0-1.176,1.175V817.9a1.176,1.176,0,0,0,1.176,1.176H286.863a1.176,1.176,0,0,0,1.176-1.176v-2.811A1.176,1.176,0,0,0,286.863,813.912Z" transform="translate(848.973 -206.935)" fill="gray"/>
        <g id="Gruppe_3460" data-name="Gruppe 3460" transform="translate(962.891 453.676)">
          <g id="Gruppe_3374" data-name="Gruppe 3374" transform="translate(0)">
            <rect id="Rechteck_1117" data-name="Rechteck 1117" width="136.049" height="124.536" transform="translate(75.237 -0.386)" fill="#ededed"/>
            <g id="Wiederholungsraster_1" data-name="Wiederholungsraster 1" clip-path="url(#clip-path)">
              <g transform="translate(-1318 -476)">
                <rect id="Rechteck_1116" data-name="Rechteck 1116" width="70" height="28" transform="translate(1318 476)" fill="#ededed"/>
                <rect id="Rechteck_983" data-name="Rechteck 983" width="63.55" height="5" rx="2.5" transform="translate(1320 479.5)" fill="#cecece"/>
                <rect id="Rechteck_1114" data-name="Rechteck 1114" width="35.155" height="5" rx="2.5" transform="translate(1320 487.5)" fill="#cecece"/>
                <rect id="Rechteck_1115" data-name="Rechteck 1115" width="54.761" height="5" rx="2.5" transform="translate(1320 495.5)" fill="#cecece"/>
              </g>
              <g transform="translate(-1318 -444)">
                <rect id="Rechteck_1116-2" data-name="Rechteck 1116" width="70" height="28" transform="translate(1318 476)" fill="#ededed"/>
                <rect id="Rechteck_983-2" data-name="Rechteck 983" width="63.55" height="5" rx="2.5" transform="translate(1320 479.5)" fill="#cecece"/>
                <rect id="Rechteck_1114-2" data-name="Rechteck 1114" width="35.155" height="5" rx="2.5" transform="translate(1320 487.5)" fill="#cecece"/>
                <rect id="Rechteck_1115-2" data-name="Rechteck 1115" width="54.761" height="5" rx="2.5" transform="translate(1320 495.5)" fill="#cecece"/>
              </g>
              <g transform="translate(-1318 -412)">
                <rect id="Rechteck_1116-3" data-name="Rechteck 1116" width="70" height="28" transform="translate(1318 476)" fill="#ededed"/>
                <rect id="Rechteck_983-3" data-name="Rechteck 983" width="63.55" height="5" rx="2.5" transform="translate(1320 479.5)" fill="#cecece"/>
                <rect id="Rechteck_1114-3" data-name="Rechteck 1114" width="35.155" height="5" rx="2.5" transform="translate(1320 487.5)" fill="#cecece"/>
                <rect id="Rechteck_1115-3" data-name="Rechteck 1115" width="54.761" height="5" rx="2.5" transform="translate(1320 495.5)" fill="#cecece"/>
              </g>
              <g transform="translate(-1318 -380)">
                <rect id="Rechteck_1116-4" data-name="Rechteck 1116" width="70" height="28" transform="translate(1318 476)" fill="#ededed"/>
                <rect id="Rechteck_983-4" data-name="Rechteck 983" width="63.55" height="5" rx="2.5" transform="translate(1320 479.5)" fill="#cecece"/>
                <rect id="Rechteck_1114-4" data-name="Rechteck 1114" width="35.155" height="5" rx="2.5" transform="translate(1320 487.5)" fill="#cecece"/>
                <rect id="Rechteck_1115-4" data-name="Rechteck 1115" width="54.761" height="5" rx="2.5" transform="translate(1320 495.5)" fill="#cecece"/>
              </g>
            </g>
            <path id="Pfad_33380" data-name="Pfad 33380" d="M-44.425,0h1.367l1.61-4.9H-43.13l-.735,2.625L-44.6-4.9h-1.258l-.735,2.625L-47.327-4.9h-1.682L-47.4,0h1.364l.807-2.451Zm5.072-1.3V-1.89h1.75V-3.08h-1.75v-.526h2.311V-4.9h-3.883V0h3.955V-1.3ZM-32.527,0V-1.436h-2.068V-4.9h-1.572V0Zm1.675-2.449A1.14,1.14,0,0,1-30.5-3.3a1.2,1.2,0,0,1,.877-.344,1.3,1.3,0,0,1,.388.06,1.561,1.561,0,0,1,.32.133,1.654,1.654,0,0,1,.241.171,1.971,1.971,0,0,1,.15.137l.056.06.943-.981-.075-.1a1.863,1.863,0,0,0-.267-.246,3.95,3.95,0,0,0-.42-.287,2.486,2.486,0,0,0-.6-.246,2.823,2.823,0,0,0-.766-.1,2.736,2.736,0,0,0-1.967.764,2.441,2.441,0,0,0-.8,1.827,2.441,2.441,0,0,0,.8,1.827A2.736,2.736,0,0,0-29.659.14a2.878,2.878,0,0,0,.772-.1,2.678,2.678,0,0,0,.6-.234,2.921,2.921,0,0,0,.429-.3A2.568,2.568,0,0,0-27.6-.733a1.268,1.268,0,0,0,.084-.108l-.923-.978-.048.055q-.058.055-.162.138a2.508,2.508,0,0,1-.241.169,1.263,1.263,0,0,1-.337.14,1.516,1.516,0,0,1-.4.055A1.205,1.205,0,0,1-30.5-1.6,1.135,1.135,0,0,1-30.852-2.449Zm5.124,0a1.149,1.149,0,0,1,.347-.844,1.149,1.149,0,0,1,.844-.347,1.149,1.149,0,0,1,.844.347,1.149,1.149,0,0,1,.347.844,1.143,1.143,0,0,1-.347.843,1.152,1.152,0,0,1-.844.345,1.152,1.152,0,0,1-.844-.345A1.143,1.143,0,0,1-25.729-2.449Zm3.958,0a2.441,2.441,0,0,0-.8-1.827,2.736,2.736,0,0,0-1.967-.764,2.736,2.736,0,0,0-1.967.764,2.441,2.441,0,0,0-.8,1.827,2.441,2.441,0,0,0,.8,1.827A2.736,2.736,0,0,0-24.536.14a2.736,2.736,0,0,0,1.967-.764A2.441,2.441,0,0,0-21.771-2.451Zm4.724-.174V0h1.576V-4.9h-1.4l-1.364,1.75L-19.6-4.9H-21V0h1.572V-2.625l1.193,1.5Zm4.2,1.33V-1.89h1.75V-3.08h-1.75v-.526h2.311V-4.9h-3.883V0h3.955V-1.3Zm4.3-3.606v1.436h1.3V0h1.576V-3.466h1.3V-4.9Zm5.841,2.452a1.149,1.149,0,0,1,.347-.844,1.149,1.149,0,0,1,.844-.347,1.149,1.149,0,0,1,.844.347,1.149,1.149,0,0,1,.347.844,1.143,1.143,0,0,1-.347.843,1.152,1.152,0,0,1-.844.345,1.152,1.152,0,0,1-.844-.345A1.143,1.143,0,0,1-2.705-2.449Zm3.958,0a2.441,2.441,0,0,0-.8-1.827,2.736,2.736,0,0,0-1.967-.764,2.736,2.736,0,0,0-1.967.764,2.441,2.441,0,0,0-.8,1.827,2.441,2.441,0,0,0,.8,1.827A2.736,2.736,0,0,0-1.512.14,2.736,2.736,0,0,0,.455-.624,2.441,2.441,0,0,0,1.253-2.451ZM3.526,0H5.1V-4.9H3.526ZM9.333-4.9v2.382L7.48-4.9H6.151V0H7.723V-2.379L9.579,0h1.33V-4.9Zm4.515,3.36a.349.349,0,0,1-.13.273.532.532,0,0,1-.361.113,1.061,1.061,0,0,1-.48-.126,1.657,1.657,0,0,1-.333-.2q-.084-.077-.132-.125L11.5-.7l.085.085a1.8,1.8,0,0,0,.263.212,3.973,3.973,0,0,0,.412.246,2.632,2.632,0,0,0,.584.21,2.983,2.983,0,0,0,.723.087,2.167,2.167,0,0,0,1.48-.482A1.492,1.492,0,0,0,15.6-1.5a1.443,1.443,0,0,0-.159-.69,1.161,1.161,0,0,0-.4-.448,3.713,3.713,0,0,0-.514-.27,3.135,3.135,0,0,0-.514-.176,1.563,1.563,0,0,1-.395-.144q-.157-.087-.157-.2a.278.278,0,0,1,.109-.226.482.482,0,0,1,.311-.089.771.771,0,0,1,.371.1,1.3,1.3,0,0,1,.243.156.6.6,0,0,1,.087.1l.909-.947-.072-.068a.937.937,0,0,0-.212-.179,3.5,3.5,0,0,0-.35-.2,2.271,2.271,0,0,0-.52-.176,2.973,2.973,0,0,0-.668-.073,2.092,2.092,0,0,0-1.42.467,1.41,1.41,0,0,0-.538,1.1,1.454,1.454,0,0,0,.12.6,1.18,1.18,0,0,0,.3.424,2.244,2.244,0,0,0,.412.277,2.822,2.822,0,0,0,.458.193q.231.073.417.137a1.6,1.6,0,0,1,.306.135A.2.2,0,0,1,13.848-1.542ZM15.806-4.9v1.436h1.3V0h1.576V-3.466h1.3V-4.9Zm6.822,2.765h-.7L22.28-3.36Zm.352,1.193L23.258,0h1.682L23.155-4.9h-1.75L19.621,0H21.3l.28-.943ZM29.034,0V-1.436H26.966V-4.9H25.394V0Zm1.675-2.449a1.149,1.149,0,0,1,.347-.844A1.149,1.149,0,0,1,31.9-3.64a1.149,1.149,0,0,1,.844.347,1.149,1.149,0,0,1,.347.844,1.143,1.143,0,0,1-.347.843,1.152,1.152,0,0,1-.844.345,1.152,1.152,0,0,1-.844-.345A1.143,1.143,0,0,1,30.709-2.449Zm3.958,0a2.441,2.441,0,0,0-.8-1.827A2.736,2.736,0,0,0,31.9-5.042a2.736,2.736,0,0,0-1.967.764,2.441,2.441,0,0,0-.8,1.827,2.441,2.441,0,0,0,.8,1.827A2.736,2.736,0,0,0,31.9.14a2.736,2.736,0,0,0,1.967-.764A2.441,2.441,0,0,0,34.667-2.451ZM37.921.14a2.985,2.985,0,0,0,.784-.1A2.983,2.983,0,0,0,39.331-.2a3.1,3.1,0,0,0,.455-.3,3.189,3.189,0,0,0,.277-.236q.063-.067.1-.108V-2.765H37.883v.875h.7v.42l-.062.055a.879.879,0,0,1-.236.1,1.223,1.223,0,0,1-.366.051,1.151,1.151,0,0,1-.846-.347,1.147,1.147,0,0,1-.347-.843,1.138,1.138,0,0,1,.35-.846,1.2,1.2,0,0,1,.877-.344,1.3,1.3,0,0,1,.388.06,1.561,1.561,0,0,1,.32.133,1.654,1.654,0,0,1,.241.171,1.971,1.971,0,0,1,.15.137l.056.06.943-.981-.075-.1a1.863,1.863,0,0,0-.267-.246,3.95,3.95,0,0,0-.42-.287,2.486,2.486,0,0,0-.6-.246,2.823,2.823,0,0,0-.766-.1,2.736,2.736,0,0,0-1.967.764,2.441,2.441,0,0,0-.8,1.827,2.441,2.441,0,0,0,.8,1.827A2.736,2.736,0,0,0,37.921.14ZM41.1,0h1.572V-4.9H41.1ZM46.91-4.9v2.382L45.057-4.9h-1.33V0H45.3V-2.379L47.156,0h1.33V-4.9Z" transform="translate(143.237 26.839)" fill="#3c3c3b"/>
            <rect id="Rechteck_21762" data-name="Rechteck 21762" width="136" height="15" transform="translate(75.237 -0.1)" fill="#3e84ad"/>
          </g>
        </g>
        <path id="Vereinigungsmenge_44" data-name="Vereinigungsmenge 44" d="M-1471.37,1949.674a1.636,1.636,0,0,1-1.631-1.63V1936.87a.1.1,0,0,1,.174-.072l5.487,5.584a.107.107,0,0,1,0,.142l-3.837,4.087a.66.66,0,0,0,0,.937.667.667,0,0,0,.469.193.667.667,0,0,0,.469-.193l3.821-4.071a.1.1,0,0,1,.148,0l.9.912a4.183,4.183,0,0,0,2.986,1.269,4.1,4.1,0,0,0,2.924-1.233l.932-.948a.1.1,0,0,1,.148,0l3.821,4.071a.667.667,0,0,0,.469.193.667.667,0,0,0,.469-.193.662.662,0,0,0,0-.937l-3.837-4.087a.1.1,0,0,1,0-.142l5.482-5.584a.1.1,0,0,1,.174.072v11.173a1.635,1.635,0,0,1-1.631,1.63Zm6.979-6.18-7.994-8.137a1.591,1.591,0,0,1,1.009-.356h17.95a1.6,1.6,0,0,1,1.009.356l-7.994,8.137a2.771,2.771,0,0,1-1.993.835A2.768,2.768,0,0,1-1464.39,1943.493Z" transform="translate(2409.451 -1481.424)" fill="gray"/>
        <g id="Komponente_5_14" data-name="Komponente 5 – 14" transform="translate(962.891 453.576)">
          <rect id="Rechteck_1283" data-name="Rechteck 1283" width="69.827" height="28.042" fill="#cbcbcb"/>
          <rect id="Rechteck_1285" data-name="Rechteck 1285" width="32.196" height="4" rx="2" transform="translate(18.815 8.753)" fill="#3e84ad"/>
          <rect id="Rechteck_1297" data-name="Rechteck 1297" width="46.651" height="4" rx="2" transform="translate(18.486 3.13)" fill="#3e84ad"/>
          <path id="Pfad_33381" data-name="Pfad 33381" d="M2,0H37.51a2,2,0,0,1,0,4H2A2,2,0,0,1,2,0Z" transform="translate(18.816 14.376)" fill="#3e84ad"/>
          <rect id="Rechteck_22235" data-name="Rechteck 22235" width="17.51" height="4" rx="2" transform="translate(18.816 19.999)" fill="#3e84ad"/>
          <g id="App_Icon" data-name="App Icon" transform="translate(1.971 3.13)">
            <path id="Pfad_3596" data-name="Pfad 3596" d="M2.895,0h7.57A2.9,2.9,0,0,1,13.36,2.895v7.57a2.9,2.9,0,0,1-2.895,2.895H2.895A2.9,2.9,0,0,1,0,10.465V2.895A2.9,2.9,0,0,1,2.895,0Z" fill="#234e77"/>
            <g id="Gruppe_2669" data-name="Gruppe 2669" transform="translate(3.66 3.252)">
              <g id="Gruppe_2637" data-name="Gruppe 2637" transform="translate(0 0)">
                <g id="Komponente_35_78" data-name="Komponente 35 – 78" transform="translate(0 0)">
                  <path id="Pfad_3244" data-name="Pfad 3244" d="M4.655-799.08,1.9-797.493l.862.5a.594.594,0,0,0,.592,0l1.3-.75Zm1.158-3.189-1.333-.767-1.158.666,2.788,1.6v-.992a.59.59,0,0,0-.3-.511Zm-4.655,2.661v-3.157l-.862.5a.59.59,0,0,0-.3.511v1.46Z" transform="translate(0 803.747)" fill="#fff" fill-rule="evenodd"/>
                  <path id="Pfad_3243" data-name="Pfad 3243" d="M.3-802.649l1.3.75,1.143-.657-1.58-.941h0v0L0-804.189v1.029a.589.589,0,0,0,.3.511Zm1.158-3.222,2.73-1.57-.833-.479a.594.594,0,0,0-.592,0l-1.3.75Zm4.655,1.211v1.5a.589.589,0,0,1-.3.511l-.862.5v-3.174Z" transform="translate(0 808)" fill="#fff" fill-rule="evenodd"/>
                </g>
              </g>
            </g>
            <g id="Gruppe_2670" data-name="Gruppe 2670" transform="translate(1.524 1.559)">
              <path id="Vereinigungsmenge_4" data-name="Vereinigungsmenge 4" d="M7.753,10.238a.261.261,0,1,1,0-.522H9.023a.693.693,0,0,0,.692-.692V7.753a.261.261,0,1,1,.521,0V9.023a1.216,1.216,0,0,1-1.213,1.214Zm-6.539,0A1.216,1.216,0,0,1,0,9.023V7.753a.261.261,0,1,1,.522,0V9.023a.693.693,0,0,0,.692.692H2.485a.261.261,0,1,1,0,.521Zm8.5-7.752V1.213A.692.692,0,0,0,9.023.522H7.753a.261.261,0,1,1,0-.522H9.023a1.215,1.215,0,0,1,1.213,1.213V2.485a.261.261,0,1,1-.521,0Zm-9.68.129V.928A1.216,1.216,0,0,1,1.215,0H2.486a.261.261,0,0,1,0,.522H1.215a.694.694,0,0,0-.693.692V2.485a.26.26,0,0,1-.487.129Z" transform="translate(0)" fill="#ffd858"/>
            </g>
          </g>
        </g>
        <g id="Instalogin-horiz_Blue-Grey" transform="translate(1150.443 461.807)">
          <g id="Instalogin-horiz_Blue-Grey-2" data-name="Instalogin-horiz_Blue-Grey" transform="translate(-22.833 -4.707)">
            <g id="Gruppe_15884" data-name="Gruppe 15884">
              <g id="Gruppe_15883" data-name="Gruppe 15883" clip-path="url(#clip-path-2)">
                <g id="Gruppe_15882" data-name="Gruppe 15882">
                  <g id="Gruppe_15881" data-name="Gruppe 15881" clip-path="url(#clip-path-2)">
                    <path id="Pfad_33096" data-name="Pfad 33096" d="M7.6,4.17V6.044a.737.737,0,0,1-.368.638L6.16,7.3V3.338ZM1.441,5.19V1.248L.368,1.868A.737.737,0,0,0,0,2.506V4.329ZM7.233,1.868,5.574.91l-1.441.832,3.468,2V2.506a.737.737,0,0,0-.368-.638m-5.423.79L5.206.7,4.169.1a.737.737,0,0,0-.737,0l-1.623.937ZM5.792,5.849,2.359,7.831l1.073.619a.736.736,0,0,0,.737,0l1.623-.937ZM.368,6.682l1.623.937L3.412,6.8,1.446,5.623h0v0L0,4.759V6.044a.736.736,0,0,0,.368.638" transform="translate(0 0)" fill="#fff"/>
                    <path id="Pfad_33097" data-name="Pfad 33097" d="M157.683,20.427a.6.6,0,0,1-.43.151.537.537,0,0,1-.4-.151.608.608,0,0,1,0-.8.538.538,0,0,1,.4-.151.6.6,0,0,1,.43.151.585.585,0,0,1,0,.8m.086,4.227h-.993v-3.6h.993Z" transform="translate(-146.894 -18.258)" fill="#fff"/>
                    <path id="Pfad_33098" data-name="Pfad 33098" d="M188.317,44.041a1.8,1.8,0,0,1,.122-.142,1.512,1.512,0,0,1,.346-.228,1.17,1.17,0,0,1,.561-.143,1.3,1.3,0,0,1,1.005.427,1.642,1.642,0,0,1,.389,1.151V47.2h-.989V45.217a.735.735,0,0,0-.2-.532.669.669,0,0,0-.5-.2.686.686,0,0,0-.536.22.9.9,0,0,0-.2.626V47.2h-.989V43.6h.989Z" transform="translate(-175.6 -40.803)" fill="#fff"/>
                    <path id="Pfad_33099" data-name="Pfad 33099" d="M252.464,44.664a.93.93,0,0,0-.07-.079.878.878,0,0,0-.2-.131.674.674,0,0,0-.315-.081.53.53,0,0,0-.323.088.251.251,0,0,0-.118.2.27.27,0,0,0,.169.233,2.128,2.128,0,0,0,.41.167q.242.073.489.176a.975.975,0,0,1,.416.33.923.923,0,0,1,.169.565,1.024,1.024,0,0,1-.382.81,1.562,1.562,0,0,1-1.049.326,2.129,2.129,0,0,1-.545-.068,1.632,1.632,0,0,1-.419-.165,2.657,2.657,0,0,1-.281-.192,1.22,1.22,0,0,1-.174-.16l-.05-.075.552-.548a.894.894,0,0,0,.091.109,1.244,1.244,0,0,0,.264.179.837.837,0,0,0,.416.113.583.583,0,0,0,.357-.091.278.278,0,0,0-.048-.484,1.893,1.893,0,0,0-.416-.172,4.476,4.476,0,0,1-.489-.177,1.022,1.022,0,0,1-.41-.323.878.878,0,0,1-.169-.552,1.029,1.029,0,0,1,.4-.785,1.456,1.456,0,0,1,.991-.351,1.667,1.667,0,0,1,.687.14,1.359,1.359,0,0,1,.436.272l.125.14Z" transform="translate(-234.525 -40.803)" fill="#fff"/>
                    <path id="Pfad_33100" data-name="Pfad 33100" d="M302.045,27.723h.882v1.136h.731v.882h-.731v1.43a.382.382,0,0,0,.124.287.435.435,0,0,0,.314.118.886.886,0,0,0,.188-.02.7.7,0,0,0,.138-.041l.043-.014v.846a1.815,1.815,0,0,1-.663.108q-1.136,0-1.136-1.248V29.741h-.624v-.882h.33a.371.371,0,0,0,.287-.133.5.5,0,0,0,.118-.344Z" transform="translate(-282.447 -25.987)" fill="#fff"/>
                    <path id="Pfad_33101" data-name="Pfad 33101" d="M350.258,46.833q-.043.05-.12.124a1.422,1.422,0,0,1-.335.194,1.363,1.363,0,0,1-1.412-.179.936.936,0,0,1-.337-.726,1.017,1.017,0,0,1,.283-.735,1.392,1.392,0,0,1,.782-.384l1.14-.2a.467.467,0,0,0-.165-.369.677.677,0,0,0-.459-.143,1.061,1.061,0,0,0-.445.091.818.818,0,0,0-.283.188l-.083.086-.548-.548.059-.077a1.669,1.669,0,0,1,.168-.167,1.772,1.772,0,0,1,.285-.21,1.9,1.9,0,0,1,.405-.168,1.736,1.736,0,0,1,.513-.077,1.551,1.551,0,0,1,1.111.407,1.349,1.349,0,0,1,.43,1.024V47.2h-.989Zm-.2-.583a.837.837,0,0,0,.2-.593v-.111l-.807.147q-.405.065-.405.405,0,.366.477.366a.7.7,0,0,0,.536-.213" transform="translate(-326.263 -40.803)" fill="#fff"/>
                    <rect id="Rechteck_21994" data-name="Rechteck 21994" width="0.993" height="5.141" transform="translate(25.711 1.255)" fill="#fff"/>
                    <path id="Pfad_33102" data-name="Pfad 33102" d="M439.2,46.71a1.881,1.881,0,0,1-2.68,0,1.791,1.791,0,0,1,0-2.621,1.88,1.88,0,0,1,2.68,0,1.795,1.795,0,0,1,0,2.621m-1.959-.631a.838.838,0,0,0,1.24,0,1.01,1.01,0,0,0,0-1.357.835.835,0,0,0-1.24,0,1.01,1.01,0,0,0,0,1.357" transform="translate(-408.66 -40.803)" fill="#fff"/>
                    <path id="Pfad_33103" data-name="Pfad 33103" d="M506.947,46.611a.53.53,0,0,1-.045.056q-.031.034-.129.122a1.523,1.523,0,0,1-.212.158,1.264,1.264,0,0,1-.3.125,1.317,1.317,0,0,1-.382.056,1.5,1.5,0,0,1-1.117-.536,1.846,1.846,0,0,1,0-2.527,1.5,1.5,0,0,1,1.117-.536,1.317,1.317,0,0,1,.577.129,1.207,1.207,0,0,1,.376.251l.111.133V43.6h.99V46.9a1.751,1.751,0,0,1-.543,1.307,1.876,1.876,0,0,1-1.364.529,2.149,2.149,0,0,1-.592-.081,2.037,2.037,0,0,1-.47-.19,2.549,2.549,0,0,1-.326-.224,1.159,1.159,0,0,1-.2-.194l-.068-.082.624-.588q.036.05.109.133a1.253,1.253,0,0,0,.332.213,1.2,1.2,0,0,0,.552.131.885.885,0,0,0,.954-.954Zm-1.418-.652a.756.756,0,0,0,.574.251.8.8,0,0,0,.591-.258.9.9,0,0,0,0-1.249.8.8,0,0,0-.591-.256.758.758,0,0,0-.574.249.968.968,0,0,0,0,1.264" transform="translate(-472.696 -40.803)" fill="#fff"/>
                    <path id="Pfad_33104" data-name="Pfad 33104" d="M575.685,20.427a.6.6,0,0,1-.43.151.537.537,0,0,1-.4-.151.608.608,0,0,1,0-.8.538.538,0,0,1,.4-.151.6.6,0,0,1,.43.151.585.585,0,0,1,0,.8m.086,4.227h-.993v-3.6h.993Z" transform="translate(-538.727 -18.258)" fill="#fff"/>
                    <path id="Pfad_33105" data-name="Pfad 33105" d="M606.318,44.041a1.787,1.787,0,0,1,.122-.142,1.514,1.514,0,0,1,.346-.228,1.17,1.17,0,0,1,.561-.143,1.3,1.3,0,0,1,1.005.427,1.642,1.642,0,0,1,.389,1.151V47.2h-.989V45.217a.734.734,0,0,0-.2-.532.669.669,0,0,0-.5-.2.686.686,0,0,0-.536.22.9.9,0,0,0-.2.626V47.2h-.99V43.6h.99Z" transform="translate(-567.432 -40.803)" fill="#fff"/>
                  </g>
                </g>
              </g>
            </g>
          </g>
        </g>
      </g>
      <path id="Icon_ionic-md-checkmark-circle-outline" data-name="Icon ionic-md-checkmark-circle-outline" d="M16.649,21.6l-3.15,3.15L23.623,34.873l22.5-22.5-3.15-3.15L23.623,28.46Zm27.223,4.274A17.922,17.922,0,1,1,30.823,8.55L34.31,5.062a20.928,20.928,0,0,0-8.437-1.687,22.5,22.5,0,1,0,22.5,22.5Z" transform="translate(1193.127 509.757)" fill="#31aa52"/>
      <g id="Gruppe_16023" data-name="Gruppe 16023" transform="translate(-0.637 0.14)">
        <g id="Gruppe_15823" data-name="Gruppe 15823" transform="translate(142.238 127.645)">
          <g id="Gruppe_3470" data-name="Gruppe 3470" transform="translate(866.399 380.939)">
            <g id="Gruppe_3467" data-name="Gruppe 3467" transform="translate(0 0)">
              <g id="Gruppe_3462" data-name="Gruppe 3462">
                <path id="Pfad_32911" data-name="Pfad 32911" d="M7.955,0H57.32a7.955,7.955,0,0,1,7.955,7.955V118.065a7.955,7.955,0,0,1-7.955,7.955H7.955A7.955,7.955,0,0,1,0,118.065V7.955A7.955,7.955,0,0,1,7.955,0Z" fill="#fff"/>
                <g id="Gruppe_3331" data-name="Gruppe 3331" transform="translate(1.989 1.989)">
                  <g id="Gruppe_3326" data-name="Gruppe 3326" transform="translate(0 0)">
                    <path id="Rahmen" d="M57.391-.06H9.906A6.927,6.927,0,0,0,3,6.846V115.2a6.927,6.927,0,0,0,6.906,6.907H57.391A6.927,6.927,0,0,0,64.3,115.2V6.846A6.927,6.927,0,0,0,57.391-.06m-35.11,6.9A2.235,2.235,0,0,0,24.4,8.371H42.9A2.235,2.235,0,0,0,45.018,6.84l.867-2.615A1.171,1.171,0,0,1,47,3.423h10.4a3.3,3.3,0,0,1,3.471,3.424l.018,108.105a3.5,3.5,0,0,1-3.49,3.673H9.906A3.516,3.516,0,0,1,6.487,115.2L6.507,6.846a3.382,3.382,0,0,1,3.4-3.424H20.3a1.171,1.171,0,0,1,1.111.8" transform="translate(-3 0.06)" fill="#2d6288"/>
                  </g>
                </g>
              </g>
            </g>
            <g id="Icon_feather-download" data-name="Icon feather-download" transform="translate(20.243 56.216)">
              <path id="Pfad_5008" data-name="Pfad 5008" d="M24.093,30.526H6.507A3.511,3.511,0,0,1,3,27.019V21.994a.994.994,0,1,1,1.989,0v5.025a1.52,1.52,0,0,0,1.518,1.518H24.093a1.52,1.52,0,0,0,1.518-1.518V21.994a.994.994,0,1,1,1.989,0v5.025A3.511,3.511,0,0,1,24.093,30.526Z" transform="translate(-3 -5.926)" fill="#234e77"/>
              <path id="Vereinigungsmenge_43" data-name="Vereinigungsmenge 43" d="M7.275,17.063H7.262a.992.992,0,0,1-.7-.3L.291,10.491A.994.994,0,0,1,1.7,9.085L6.28,13.668V.994a.995.995,0,0,1,1.989,0V13.668l4.584-4.583a.994.994,0,0,1,1.406,1.406L7.979,16.772c-.016.016-.033.032-.05.047l0,0,0,0a.99.99,0,0,1-.623.239H7.275Z" transform="translate(5.025 0)" fill="#234e77"/>
            </g>
            <g id="App_Icon-2" data-name="App Icon" transform="translate(18.083 19.916)">
              <path id="Pfad_3596-2" data-name="Pfad 3596" d="M6.266,0H22.653a6.266,6.266,0,0,1,6.266,6.266V22.653a6.266,6.266,0,0,1-6.266,6.266H6.266A6.266,6.266,0,0,1,0,22.653V6.266A6.266,6.266,0,0,1,6.266,0Z" transform="translate(0 0)" fill="#234e77"/>
              <g id="Gruppe_2669-2" data-name="Gruppe 2669" transform="translate(7.922 7.039)">
                <g id="Gruppe_2637-2" data-name="Gruppe 2637" transform="translate(0 0)">
                  <g id="Komponente_35_78-2" data-name="Komponente 35 – 78" transform="translate(0 0)">
                    <path id="Pfad_3244-2" data-name="Pfad 3244" d="M10.076-794.473,4.1-791.038l1.867,1.074a1.285,1.285,0,0,0,1.281,0l2.823-1.624Zm2.507-6.9L9.7-803.035,7.19-801.593l6.034,3.471v-2.148a1.276,1.276,0,0,0-.641-1.106ZM2.508-795.615v-6.833L.641-801.375A1.276,1.276,0,0,0,0-800.269v3.161Z" transform="translate(0 804.576)" fill="#fff" fill-rule="evenodd"/>
                    <path id="Pfad_3243-2" data-name="Pfad 3243" d="M.641-796.417l2.823,1.624,2.473-1.423-3.421-2.036H2.507v-.005L0-799.75v2.227a1.276,1.276,0,0,0,.641,1.106Zm2.507-6.975,5.909-3.4-1.8-1.038a1.285,1.285,0,0,0-1.281,0L3.148-806.2Zm10.076,2.62v3.249a1.276,1.276,0,0,1-.641,1.106l-1.867,1.074v-6.871Z" transform="translate(0 808)" fill="#fff" fill-rule="evenodd"/>
                  </g>
                </g>
              </g>
              <g id="Gruppe_2670-2" data-name="Gruppe 2670" transform="translate(3.374 3.374)">
                <path id="Vereinigungsmenge_4-2" data-name="Vereinigungsmenge 4" d="M16.706,22.159a.565.565,0,0,1,0-1.129h2.751a1.5,1.5,0,0,0,1.5-1.5V16.78a.565.565,0,0,1,1.129,0v2.751a2.63,2.63,0,0,1-2.627,2.627Zm-14.152,0A2.633,2.633,0,0,1,0,20.149V16.5a.564.564,0,0,1,1.055.278v2.751a1.5,1.5,0,0,0,1.5,1.5H5.305a.564.564,0,0,1,.564.554v.023a.564.564,0,0,1-.564.553ZM21.509,5.943a.565.565,0,0,1-.553-.565V2.627a1.5,1.5,0,0,0-1.5-1.5H16.706A.565.565,0,0,1,16.695,0h2.787a2.631,2.631,0,0,1,2.6,2.627V5.378a.565.565,0,0,1-.554.565ZM.48,5.943A.564.564,0,0,1,0,5.657V2.01A2.632,2.632,0,0,1,2.529,0H5.316a.565.565,0,0,1,.553.554V.576a.564.564,0,0,1-.564.554H2.554a1.5,1.5,0,0,0-1.5,1.5V5.378A.565.565,0,0,1,.5,5.943Z" transform="translate(0)" fill="#ffd858"/>
              </g>
            </g>
          </g>
          <g id="Batch-AppStore" transform="translate(899.083 474.786)">
            <g id="Gruppe_4067" data-name="Gruppe 4067" transform="translate(-22.152 -9.535)" clip-path="url(#clip-path-4)">
              <g id="Gruppe_4065" data-name="Gruppe 4065">
                <g id="Gruppe_4064" data-name="Gruppe 4064" opacity="0">
                  <g id="Gruppe_4063" data-name="Gruppe 4063" clip-path="url(#clip-path-4)">
                    <rect id="Rechteck_6143" data-name="Rechteck 6143" width="44.305" height="19.069" fill="#fff"/>
                  </g>
                </g>
              </g>
              <g id="Gruppe_4066" data-name="Gruppe 4066" transform="translate(3.178 3.178)">
                <path id="Pfad_6930" data-name="Pfad 6930" d="M44.993,10H12.384l-.636.064a2.129,2.129,0,0,0-.6.191,2.066,2.066,0,0,0-.509.381,2,2,0,0,0-.381.509,2.1,2.1,0,0,0-.191.6,4.164,4.164,0,0,0-.064.636q0,.143,0,.286v7.66a4.131,4.131,0,0,0,.064.636,2.1,2.1,0,0,0,.191.6,1.97,1.97,0,0,0,.381.509,2,2,0,0,0,.509.381,2.129,2.129,0,0,0,.6.191l.636.064H45.628l.636-.064a2.161,2.161,0,0,0,.6-.191,2,2,0,0,0,.509-.381,2.034,2.034,0,0,0,.381-.509,2.1,2.1,0,0,0,.191-.6,4.354,4.354,0,0,0,.064-.636q0-.143,0-.286v-7.66a4.354,4.354,0,0,0-.064-.636,2.1,2.1,0,0,0-.191-.6,2.066,2.066,0,0,0-.89-.89,2.161,2.161,0,0,0-.6-.191L45.628,10h-.636" transform="translate(-10 -10)" fill="#a6a6a6"/>
                <path id="Pfad_6931" data-name="Pfad 6931" d="M13.284,22.973H13l-.572-.032-.54-.191a1.716,1.716,0,0,1-.445-.318,1.685,1.685,0,0,1-.318-.445,1.843,1.843,0,0,1-.159-.54,3.973,3.973,0,0,1-.064-.6V12.929a3.973,3.973,0,0,1,.064-.6,1.843,1.843,0,0,1,.159-.54,1.716,1.716,0,0,1,.318-.445,1.78,1.78,0,0,1,.445-.318l.54-.159.6-.064H46.242l.6.064.54.159a1.78,1.78,0,0,1,.763.763,1.844,1.844,0,0,1,.159.509,4.164,4.164,0,0,1,.064.6v7.977a4.069,4.069,0,0,1-.064.6,1.844,1.844,0,0,1-.159.54,1.748,1.748,0,0,1-.318.445,1.716,1.716,0,0,1-.445.318l-.54.159-.6.064H13.284Z" transform="translate(-10.614 -10.546)"/>
                <path id="Pfad_6932" data-name="Pfad 6932" d="M24.7,25.919a1.557,1.557,0,0,1,.763-1.335,1.621,1.621,0,0,0-1.271-.7c-.54-.064-1.049.318-1.335.318s-.7-.318-1.144-.318a1.684,1.684,0,0,0-1.43.858,3.617,3.617,0,0,0,.445,3.5c.6.858.636.89,1.081.89s.6-.286,1.144-.286.667.286,1.144.286.763-.413,1.049-.858a3.5,3.5,0,0,0,.477-.985,1.526,1.526,0,0,1-.922-1.4" transform="translate(-16.819 -19.467)" fill="#fff"/>
                <path id="Pfad_6933" data-name="Pfad 6933" d="M29.805,19.812a1.557,1.557,0,0,0,.35-1.112,1.589,1.589,0,0,0-1.017.54,1.462,1.462,0,0,0-.35,1.081,1.3,1.3,0,0,0,1.017-.509" transform="translate(-22.813 -15.935)" fill="#fff"/>
                <path id="Pfad_6934" data-name="Pfad 6934" d="M46.979,30.96H45.485l-.35,1.081H44.5L45.93,28.1h.636L48,32.041H47.36Zm-1.367-.477H46.82l-.572-1.748h-.032Z" transform="translate(-33.535 -22.347)" fill="#fff"/>
                <path id="Pfad_6935" data-name="Pfad 6935" d="M59.3,32.86c0,.89-.477,1.462-1.208,1.462a.985.985,0,0,1-.89-.509h0v1.43h-.6V31.43h.572v.477h0a1.017,1.017,0,0,1,.922-.509c.731,0,1.208.572,1.208,1.462m-.6,0c0-.572-.286-.953-.763-.953s-.763.381-.763.953.318.953.763.953.763-.381.763-.953" transform="translate(-41.789 -24.597)" fill="#fff"/>
                <path id="Pfad_6936" data-name="Pfad 6936" d="M69.3,32.86c0,.89-.477,1.462-1.208,1.462a.985.985,0,0,1-.89-.509h0v1.43h-.6V31.43h.572v.477h0a1.017,1.017,0,0,1,.922-.509c.731,0,1.208.572,1.208,1.462m-.6,0c0-.572-.286-.953-.763-.953s-.763.381-.763.953.318.953.763.953.763-.381.763-.953" transform="translate(-48.611 -24.597)" fill="#fff"/>
                <path id="Pfad_6937" data-name="Pfad 6937" d="M80.54,30.792c.032.381.413.636.953.636s.858-.254.858-.6-.222-.477-.731-.6l-.509-.127c-.731-.191-1.049-.509-1.049-1.049a1.354,1.354,0,0,1,1.43-1.144,1.284,1.284,0,0,1,1.43,1.144h-.6a.736.736,0,0,0-.826-.636c-.477,0-.795.254-.795.6s.222.445.731.572l.445.1c.795.191,1.144.509,1.144,1.081a1.41,1.41,0,0,1-1.526,1.208c-.922,0-1.462-.445-1.494-1.176Z" transform="translate(-57.752 -22.211)" fill="#fff"/>
                <path id="Pfad_6938" data-name="Pfad 6938" d="M91.185,29.3v.667h.54v.477h-.54v1.589c0,.254.1.35.35.35h.191v.477h-.318c-.572,0-.795-.222-.795-.763V30.444H90.2v-.477h.413V29.3Z" transform="translate(-64.71 -23.166)" fill="#fff"/>
                <path id="Pfad_6939" data-name="Pfad 6939" d="M96.1,32.862a1.37,1.37,0,1,1,1.367,1.462A1.328,1.328,0,0,1,96.1,32.862m2.129,0c0-.636-.286-.985-.763-.985s-.795.35-.795.985.286.985.763.985.763-.35.763-.985" transform="translate(-68.735 -24.599)" fill="#fff"/>
                <path id="Pfad_6940" data-name="Pfad 6940" d="M106.2,31.4h.572v.509h0a.7.7,0,0,1,.7-.509h.191v.54h-.254a.6.6,0,0,0-.6.572.641.641,0,0,0,0,.1v1.716h-.6Z" transform="translate(-75.625 -24.597)" fill="#fff"/>
                <path id="Pfad_6941" data-name="Pfad 6941" d="M113.806,33.366a1.151,1.151,0,0,1-1.24.89,1.42,1.42,0,0,1-1.367-1.462,1.332,1.332,0,0,1,1.335-1.494,1.257,1.257,0,0,1,1.3,1.43v.191H111.8a.763.763,0,0,0,.667.826h.1a.636.636,0,0,0,.667-.413Zm-2-.858h1.43a.7.7,0,0,0-.667-.731H112.5a.731.731,0,0,0-.731.731Z" transform="translate(-79.036 -24.53)" fill="#fff"/>
                <path id="Pfad_6942" data-name="Pfad 6942" d="M46.367,18.632a.844.844,0,0,1,.89.922.838.838,0,0,1-.89.953H45.7V18.6Zm-.381,1.621h.35a.7.7,0,0,0,.127-1.367h-.477Z" transform="translate(-34.354 -15.867)" fill="#fff"/>
                <path id="Pfad_6943" data-name="Pfad 6943" d="M51.694,20.967a.67.67,0,1,1,0,.127.7.7,0,0,1,0-.127m1.049,0q0-.477-.381-.477c-.254,0-.381.191-.381.477s.127.509.381.509.381-.191.381-.509" transform="translate(-38.44 -17.026)" fill="#fff"/>
                <path id="Pfad_6944" data-name="Pfad 6944" d="M58.189,21.63h-.318l-.286-1.049h-.032l-.286,1.049h-.286L56.6,20.2h.286l.254,1.081h0l.318-1.081h.254L58,21.281h.032l.254-1.081h.286Z" transform="translate(-41.789 -16.958)" fill="#fff"/>
                <path id="Pfad_6945" data-name="Pfad 6945" d="M63.8,20.129h.286v.222h.032a.413.413,0,0,1,.413-.254.477.477,0,0,1,.509.54v.922h-.286V20.7c0-.222-.1-.35-.318-.35a.318.318,0,0,0-.35.35v.826H63.8Z" transform="translate(-46.701 -16.887)" fill="#fff"/>
                <rect id="Rechteck_6145" data-name="Rechteck 6145" width="0.286" height="1.99" transform="translate(18.783 2.67)" fill="#fff"/>
                <path id="Pfad_6946" data-name="Pfad 6946" d="M71.194,20.967a.67.67,0,1,1,0,.127.7.7,0,0,1,0-.127m1.049,0q0-.477-.381-.477c-.254,0-.381.191-.381.477s.127.509.381.509.381-.191.381-.509" transform="translate(-51.743 -17.026)" fill="#fff"/>
                <path id="Pfad_6947" data-name="Pfad 6947" d="M76.332,21.217c0-.254.191-.413.54-.413h.381v-.127c0-.159-.1-.222-.286-.222s-.254.064-.286.159H76.4a.591.591,0,0,1,1.144.064v.985h-.286v-.191h-.032a.477.477,0,0,1-.445.222.445.445,0,0,1-.477-.381h0m.922-.127v-.127H76.9c-.191,0-.286.1-.286.191s.127.191.254.191a.35.35,0,0,0,.381-.286Z" transform="translate(-55.228 -16.958)" fill="#fff"/>
                <path id="Pfad_6948" data-name="Pfad 6948" d="M81.3,19.671c0-.445.222-.731.6-.731a.477.477,0,0,1,.445.254h.032V18.4h.286v2h-.286V20.18h-.032a.509.509,0,0,1-.445.254c-.35,0-.6-.286-.6-.731m.286,0q0,.477.381.477c.254,0,.381-.191.381-.477s-.159-.477-.381-.477-.381.191-.381.477" transform="translate(-58.639 -15.73)" fill="#fff"/>
                <path id="Pfad_6949" data-name="Pfad 6949" d="M89.194,20.967a.67.67,0,1,1,0,.127.7.7,0,0,1,0-.127m1.049,0q0-.477-.381-.477c-.254,0-.381.191-.381.477s.127.509.381.509.381-.191.381-.509" transform="translate(-64.022 -17.026)" fill="#fff"/>
                <path id="Pfad_6950" data-name="Pfad 6950" d="M94.7,20.129h.286v.222h.032a.413.413,0,0,1,.413-.254.477.477,0,0,1,.509.54v.922h-.286V20.7c0-.222-.1-.35-.318-.35a.318.318,0,0,0-.35.318.381.381,0,0,0,0,.064v.826H94.7Z" transform="translate(-67.78 -16.887)" fill="#fff"/>
                <path id="Pfad_6951" data-name="Pfad 6951" d="M102.409,19.1v.35h.318V19.7h-.318v.731c0,.159.064.222.191.222h.1v.222h-.127c-.318,0-.445-.1-.445-.381V19.7H101.9v-.222h.222V19.1Z" transform="translate(-72.692 -16.208)" fill="#fff"/>
                <path id="Pfad_6952" data-name="Pfad 6952" d="M105.7,18.4h.286v.795h.032a.445.445,0,0,1,.445-.254.477.477,0,0,1,.508.445.445.445,0,0,1,0,.1V20.4h-.286v-.858c0-.222-.1-.35-.318-.35a.35.35,0,0,0-.35.381V20.4h-.286Z" transform="translate(-75.284 -15.73)" fill="#fff"/>
                <path id="Pfad_6953" data-name="Pfad 6953" d="M111.987,21.249a.572.572,0,0,1-.636.413.636.636,0,0,1-.667-.731.667.667,0,0,1,.572-.731h.1c.413,0,.636.286.636.731v.1H110.97a.381.381,0,0,0,.35.413h.032a.35.35,0,0,0,.35-.159Zm-1.017-.477h.731a.35.35,0,0,0-.318-.381h-.032a.381.381,0,0,0-.381.35Z" transform="translate(-78.679 -16.958)" fill="#fff"/>
              </g>
            </g>
          </g>
          <g id="Batch-PlayStore" transform="translate(899.083 489.421)">
            <g id="Gruppe_4062" data-name="Gruppe 4062" transform="translate(-21.767 -8.426)" clip-path="url(#clip-path-6)">
              <g id="Gruppe_4048" data-name="Gruppe 4048">
                <g id="Gruppe_4047" data-name="Gruppe 4047" opacity="0">
                  <g id="Gruppe_4046" data-name="Gruppe 4046" clip-path="url(#clip-path-6)">
                    <rect id="Rechteck_6130" data-name="Rechteck 6130" width="43.535" height="16.852" fill="#fff"/>
                  </g>
                </g>
                <path id="Pfad_6907" data-name="Pfad 6907" d="M46.513,21.235H11.4a1.4,1.4,0,0,1-1.4-1.4V11.4A1.4,1.4,0,0,1,11.4,10H46.513a1.4,1.4,0,0,1,1.4,1.4V19.83a1.4,1.4,0,0,1-1.4,1.4" transform="translate(-7.191 -7.191)"/>
                <path id="Pfad_6908" data-name="Pfad 6908" d="M46.513,10.225a1.18,1.18,0,0,1,1.18,1.18V19.83a1.18,1.18,0,0,1-1.18,1.18H11.4a1.18,1.18,0,0,1-1.18-1.18V11.4a1.18,1.18,0,0,1,1.18-1.18H46.513m0-.225H11.4A1.4,1.4,0,0,0,10,11.4V19.83a1.4,1.4,0,0,0,1.4,1.4H46.513a1.4,1.4,0,0,0,1.4-1.4V11.4a1.4,1.4,0,0,0-1.4-1.4" transform="translate(-7.191 -7.191)" fill="#a6a6a6"/>
                <path id="Pfad_6909" data-name="Pfad 6909" d="M53.1,17.755a.758.758,0,0,1-.2.562.815.815,0,0,1-.618.253.9.9,0,0,1-.618-1.517.843.843,0,0,1,.618-.253l.337.084a.7.7,0,0,1,.253.2l-.14.14a.562.562,0,0,0-.449-.2.646.646,0,0,0-.674.674.674.674,0,0,0,1.123.477.534.534,0,0,0,.14-.337h-.59v-.2H53.1a.731.731,0,0,1,0,.14" transform="translate(-36.979 -12.081)" fill="#fff"/>
                <path id="Pfad_6910" data-name="Pfad 6910" d="M53.1,17.755a.758.758,0,0,1-.2.562.815.815,0,0,1-.618.253.9.9,0,0,1-.618-1.517.843.843,0,0,1,.618-.253l.337.084a.7.7,0,0,1,.253.2l-.14.14a.562.562,0,0,0-.449-.2.646.646,0,0,0-.674.674.674.674,0,0,0,1.123.477.534.534,0,0,0,.14-.337h-.59v-.2H53.1A.732.732,0,0,1,53.1,17.755Z" transform="translate(-36.979 -12.081)" fill="none" stroke="#fff" stroke-miterlimit="10" stroke-width="0.056"/>
                <path id="Pfad_6911" data-name="Pfad 6911" d="M59.483,17.2h-.758v.534h.7v.225h-.7v.534h.758v.2H58.5V17h.983Z" transform="translate(-42.069 -12.225)" fill="#fff"/>
                <path id="Pfad_6912" data-name="Pfad 6912" d="M59.483,17.2h-.758v.534h.7v.225h-.7v.534h.758v.2H58.5V17h.983Z" transform="translate(-42.069 -12.225)" fill="none" stroke="#fff" stroke-miterlimit="10" stroke-width="0.056"/>
                <path id="Pfad_6913" data-name="Pfad 6913" d="M63.5,18.685h-.225V17.2H62.8V17h1.18v.2H63.5Z" transform="translate(-45.161 -12.225)" fill="#fff"/>
                <path id="Pfad_6914" data-name="Pfad 6914" d="M63.5,18.685h-.225V17.2H62.8V17h1.18v.2H63.5Z" transform="translate(-45.161 -12.225)" fill="none" stroke="#fff" stroke-miterlimit="10" stroke-width="0.056"/>
                <rect id="Rechteck_6132" data-name="Rechteck 6132" width="0.225" height="1.685" transform="translate(19.633 4.775)" fill="#fff"/>
                <rect id="Rechteck_6133" data-name="Rechteck 6133" width="0.225" height="1.685" transform="translate(19.633 4.775)" fill="none" stroke="#fff" stroke-miterlimit="10" stroke-width="0.056"/>
                <path id="Pfad_6915" data-name="Pfad 6915" d="M72.374,18.685h-.2V17.2H71.7V17h1.152v.2h-.477Z" transform="translate(-51.562 -12.225)" fill="#fff"/>
                <path id="Pfad_6916" data-name="Pfad 6916" d="M72.374,18.685h-.2V17.2H71.7V17h1.152v.2h-.477Z" transform="translate(-51.562 -12.225)" fill="none" stroke="#fff" stroke-miterlimit="10" stroke-width="0.056"/>
                <path id="Pfad_6917" data-name="Pfad 6917" d="M79.806,18.377a.871.871,0,0,1-1.236,0,.9.9,0,0,1,0-1.236.871.871,0,0,1,1.236,0,.9.9,0,0,1,0,1.236m-1.067-.14a.646.646,0,0,0,.927,0,.73.73,0,0,0,0-.955.646.646,0,0,0-.927,0,.73.73,0,0,0,0,.955" transform="translate(-56.325 -12.142)" fill="#fff"/>
                <path id="Pfad_6918" data-name="Pfad 6918" d="M79.806,18.377a.871.871,0,0,1-1.236,0,.9.9,0,0,1,0-1.236.871.871,0,0,1,1.236,0A.9.9,0,0,1,79.806,18.377Zm-1.067-.14a.646.646,0,0,0,.927,0,.73.73,0,0,0,0-.955.646.646,0,0,0-.927,0A.73.73,0,0,0,78.738,18.237Z" transform="translate(-56.325 -12.142)" fill="none" stroke="#fff" stroke-miterlimit="10" stroke-width="0.056"/>
                <path id="Pfad_6919" data-name="Pfad 6919" d="M85.6,18.685V17h.253l.815,1.32H86.7l-.028-.337V17h.225v1.685h-.225L85.8,17.309h0v1.376Z" transform="translate(-61.557 -12.225)" fill="#fff"/>
                <path id="Pfad_6920" data-name="Pfad 6920" d="M85.6,18.685V17h.253l.815,1.32H86.7l-.028-.337V17h.225v1.685h-.225L85.8,17.309h0v1.376Z" transform="translate(-61.557 -12.225)" fill="none" stroke="#fff" stroke-miterlimit="10" stroke-width="0.056"/>
                <path id="Pfad_6921" data-name="Pfad 6921" d="M58.683,28.346a1.208,1.208,0,1,0,1.208,1.18,1.18,1.18,0,0,0-1.208-1.208m0,1.91a.73.73,0,1,1,.674-.7.7.7,0,0,1-.674.73m-2.612-1.91a1.208,1.208,0,1,0,1.208,1.18,1.18,1.18,0,0,0-1.208-1.208m0,1.91a.73.73,0,1,1,.674-.7.7.7,0,0,1-.674.73m-3.118-1.545v.506h1.208a1.067,1.067,0,0,1-.281.646,1.236,1.236,0,0,1-.927.365,1.348,1.348,0,0,1,0-2.7,1.292,1.292,0,0,1,.927.337l.365-.365A1.769,1.769,0,0,0,52.954,27a1.854,1.854,0,0,0,0,3.707A1.678,1.678,0,0,0,54.7,28.992a1.628,1.628,0,0,0-.028-.309Zm12.723.393a1.1,1.1,0,0,0-2.135.449,1.177,1.177,0,0,0,2.163.674l-.421-.281a.674.674,0,0,1-.59.337.618.618,0,0,1-.59-.365l1.6-.674Zm-1.629.393a.646.646,0,0,1,.618-.7.449.449,0,0,1,.449.253Zm-1.292,1.152h.534V27.138h-.534Zm-.871-2.05h-.028a.815.815,0,0,0-.618-.281,1.208,1.208,0,0,0,0,2.387.815.815,0,0,0,.618-.281h.028v.169a.622.622,0,0,1-.646.7.674.674,0,0,1-.59-.421l-.449.2a1.152,1.152,0,0,0,1.067.7,1.081,1.081,0,0,0,1.123-1.236V28.4h-.477Zm-.59,1.657a.73.73,0,0,1,0-1.461.732.732,0,0,1,0,1.461m6.853-3.118H66.885v3.511h.534v-1.32h.73a1.1,1.1,0,1,0,0-2.191m0,1.685H67.39V27.616h.758a.6.6,0,1,1,0,1.208m3.23-.506a.983.983,0,0,0-.927.534l.477.2a.559.559,0,0,1,1.039.2h0a1.151,1.151,0,0,0-.534-.14c-.506,0-1.011.281-1.011.786a.815.815,0,0,0,.871.786.73.73,0,0,0,.674-.337H72v.281H72.5V29.3a.982.982,0,0,0-1.067-.983m-.056,1.938c-.169,0-.421-.084-.421-.309s.309-.365.562-.365a.927.927,0,0,1,.477.112.646.646,0,0,1-.618.562M74.3,28.4l-.59,1.517h-.028L73.064,28.4H72.5l.927,2.135-.534,1.18h.534L74.89,28.4Zm-4.719,2.247h.534V27.138h-.534Z" transform="translate(-36.748 -19.414)" fill="#fff"/>
              </g>
              <g id="Gruppe_4049" data-name="Gruppe 4049" transform="translate(5.589 4.915)" clip-path="url(#clip-path-8)">
                <rect id="Rechteck_6134" data-name="Rechteck 6134" width="7.555" height="7.547" transform="translate(-3.502 3.524) rotate(-45)" fill="url(#linear-gradient)"/>
              </g>
              <g id="Gruppe_4050" data-name="Gruppe 4050" transform="translate(9.241 7.218)" clip-path="url(#clip-path-9)">
                <rect id="Rechteck_6135" data-name="Rechteck 6135" width="2.949" height="2.401" fill="url(#linear-gradient-2)"/>
              </g>
              <g id="Gruppe_4051" data-name="Gruppe 4051" transform="translate(5.73 8.426)" clip-path="url(#clip-path-10)">
                <rect id="Rechteck_6136" data-name="Rechteck 6136" width="5.898" height="5.898" transform="translate(-1.819 1.81) rotate(-45)" fill="url(#linear-gradient-3)"/>
              </g>
              <g id="Gruppe_4052" data-name="Gruppe 4052" transform="translate(5.73 4.831)" clip-path="url(#clip-path-11)">
                <rect id="Rechteck_6137" data-name="Rechteck 6137" width="5.87" height="5.867" transform="translate(-1.797 1.804) rotate(-45)" fill="url(#linear-gradient-4)"/>
              </g>
              <g id="Gruppe_4061" data-name="Gruppe 4061" transform="translate(5.617 4.803)">
                <g id="Gruppe_4054" data-name="Gruppe 4054" transform="translate(0.112 4.775)" opacity="0.2">
                  <g id="Gruppe_4053" data-name="Gruppe 4053" clip-path="url(#clip-path-12)">
                    <path id="Pfad_6926" data-name="Pfad 6926" d="M25.134,34.1l-4.073,2.331a.477.477,0,0,1-.562,0h0a.477.477,0,0,0,.562,0l4.1-2.331Z" transform="translate(-20.472 -34.1)"/>
                  </g>
                </g>
                <g id="Gruppe_4056" data-name="Gruppe 4056" transform="translate(0 6.685)" opacity="0.12">
                  <g id="Gruppe_4055" data-name="Gruppe 4055" clip-path="url(#clip-path-13)">
                    <path id="Pfad_6927" data-name="Pfad 6927" d="M20.039,41.293a.562.562,0,0,1-.14-.393h0a.562.562,0,0,0,.14.393Z" transform="translate(-19.927 -40.9)"/>
                  </g>
                </g>
                <g id="Gruppe_4058" data-name="Gruppe 4058" transform="translate(4.775 3.623)" opacity="0.12">
                  <g id="Gruppe_4057" data-name="Gruppe 4057" clip-path="url(#clip-path-14)">
                    <path id="Pfad_6928" data-name="Pfad 6928" d="M38.4,30.365l-1.4.786h.028l1.376-.758A.506.506,0,0,0,38.685,30a.534.534,0,0,1-.281.365" transform="translate(-37 -30)"/>
                  </g>
                </g>
                <g id="Gruppe_4060" data-name="Gruppe 4060" opacity="0.25">
                  <g id="Gruppe_4059" data-name="Gruppe 4059" clip-path="url(#clip-path-15)">
                    <path id="Pfad_6929" data-name="Pfad 6929" d="M20.7,17.289l5.477,3.118a.534.534,0,0,1,.281.365.506.506,0,0,0-.281-.393L20.7,17.261c-.393-.225-.7-.028-.7.421h0c0-.449.309-.646.7-.421" transform="translate(-20 -17.149)" fill="#fff"/>
                  </g>
                </g>
              </g>
            </g>
          </g>
        </g>
      </g>
      <g id="Gruppe_16037" data-name="Gruppe 16037" transform="translate(88.363 1.14)">
        <g id="Bildmaterial_10" data-name="Bildmaterial 10" transform="translate(1022.217 534.888)">
          <g id="Gruppe_11490" data-name="Gruppe 11490" transform="translate(-15.333 -15.333)">
            <path id="Pfad_13581" data-name="Pfad 13581" d="M2.3,2.3H9.966V9.966H2.3ZM0,12.266H12.266V0H0Z" fill="#1d4264"/>
            <path id="Pfad_13582" data-name="Pfad 13582" d="M242.3,2.3h7.666V9.966H242.3ZM240,12.266h12.266V0H240Z" transform="translate(-221.601)" fill="#1d4264"/>
            <rect id="Rechteck_9051" data-name="Rechteck 9051" width="4.6" height="4.6" transform="translate(3.833 3.833)" fill="#1d4264"/>
            <path id="Pfad_13583" data-name="Pfad 13583" d="M2.3,242.3H9.966v7.666H2.3ZM0,252.266H12.266V240H0Z" transform="translate(0 -221.601)" fill="#1d4264"/>
            <rect id="Rechteck_9052" data-name="Rechteck 9052" width="4.6" height="4.6" transform="translate(3.833 22.233)" fill="#1d4264"/>
            <rect id="Rechteck_9053" data-name="Rechteck 9053" width="4.6" height="4.6" transform="translate(22.233 3.833)" fill="#1d4264"/>
            <rect id="Rechteck_9054" data-name="Rechteck 9054" width="1.533" height="1.533" transform="translate(13.8 5.366)" fill="#1d4264"/>
            <rect id="Rechteck_9055" data-name="Rechteck 9055" width="1.533" height="1.533" transform="translate(15.333 3.067)" fill="#1d4264"/>
            <rect id="Rechteck_9056" data-name="Rechteck 9056" width="1.533" height="1.533" transform="translate(13.8)" fill="#1d4264"/>
            <rect id="Rechteck_9057" data-name="Rechteck 9057" width="1.533" height="1.533" transform="translate(15.333 1.533)" fill="#1d4264"/>
            <rect id="Rechteck_9058" data-name="Rechteck 9058" width="1.533" height="1.533" transform="translate(15.333)" fill="#1d4264"/>
            <rect id="Rechteck_9059" data-name="Rechteck 9059" width="1.533" height="1.533" transform="translate(13.8 3.067)" fill="#1d4264"/>
            <path id="Pfad_13584" data-name="Pfad 13584" d="M186.133,240v1.533h-3.067v4.6h-1.533v-3.067H180v-1.533h1.533V240Z" transform="translate(-166.2 -221.601)" fill="#1d4264"/>
            <path id="Pfad_13585" data-name="Pfad 13585" d="M302.067,320v1.533H299v1.533h4.6v3.067h1.533v-4.6H303.6V320Z" transform="translate(-276.077 -295.467)" fill="#1d4264"/>
            <path id="Pfad_13586" data-name="Pfad 13586" d="M0,180v3.067H1.533v-1.533H4.6V180Z" transform="translate(0 -166.2)" fill="#1d4264"/>
            <rect id="Rechteck_9060" data-name="Rechteck 9060" width="1.533" height="1.533" transform="translate(13.8 12.266)" fill="#1d4264"/>
            <rect id="Rechteck_9061" data-name="Rechteck 9061" width="1.533" height="1.533" transform="translate(15.333 10.733)" fill="#1d4264"/>
            <rect id="Rechteck_9062" data-name="Rechteck 9062" width="1.533" height="1.533" transform="translate(15.333 9.2)" fill="#1d4264"/>
            <rect id="Rechteck_9063" data-name="Rechteck 9063" width="1.533" height="1.533" transform="translate(15.333 7.666)" fill="#1d4264"/>
            <rect id="Rechteck_9064" data-name="Rechteck 9064" width="1.533" height="1.533" transform="translate(13.8 7.666)" fill="#1d4264"/>
            <rect id="Rechteck_9065" data-name="Rechteck 9065" width="1.533" height="1.533" transform="translate(15.333 13.8)" fill="#1d4264"/>
            <rect id="Rechteck_9066" data-name="Rechteck 9066" width="1.533" height="1.533" transform="translate(18.399 13.8)" fill="#1d4264"/>
            <rect id="Rechteck_9067" data-name="Rechteck 9067" width="1.533" height="1.533" transform="translate(19.933 13.8)" fill="#1d4264"/>
            <rect id="Rechteck_9068" data-name="Rechteck 9068" width="1.533" height="1.533" transform="translate(21.466 13.8)" fill="#1d4264"/>
            <rect id="Rechteck_9069" data-name="Rechteck 9069" width="1.533" height="1.533" transform="translate(29.132 13.8)" fill="#1d4264"/>
            <rect id="Rechteck_9070" data-name="Rechteck 9070" width="1.533" height="1.533" transform="translate(29.132 15.333)" fill="#1d4264"/>
            <rect id="Rechteck_9071" data-name="Rechteck 9071" width="1.533" height="1.533" transform="translate(27.599 13.8)" fill="#1d4264"/>
            <rect id="Rechteck_9072" data-name="Rechteck 9072" width="1.533" height="1.533" transform="translate(27.599 15.333)" fill="#1d4264"/>
            <rect id="Rechteck_9073" data-name="Rechteck 9073" width="1.533" height="1.533" transform="translate(27.599 16.866)" fill="#1d4264"/>
            <rect id="Rechteck_9074" data-name="Rechteck 9074" width="1.533" height="1.533" transform="translate(21.466 15.333)" fill="#1d4264"/>
            <rect id="Rechteck_9075" data-name="Rechteck 9075" width="1.533" height="1.533" transform="translate(19.933 19.933)" fill="#1d4264"/>
            <rect id="Rechteck_9076" data-name="Rechteck 9076" width="1.533" height="1.533" transform="translate(21.466 18.399)" fill="#1d4264"/>
            <rect id="Rechteck_9077" data-name="Rechteck 9077" width="1.533" height="1.533" transform="translate(18.399 15.333)" fill="#1d4264"/>
            <rect id="Rechteck_9078" data-name="Rechteck 9078" width="1.533" height="1.533" transform="translate(18.399 21.466)" fill="#1d4264"/>
            <rect id="Rechteck_9079" data-name="Rechteck 9079" width="1.533" height="1.533" transform="translate(16.866 24.533)" fill="#1d4264"/>
            <rect id="Rechteck_9080" data-name="Rechteck 9080" width="1.533" height="1.533" transform="translate(13.8 24.533)" fill="#1d4264"/>
            <rect id="Rechteck_9081" data-name="Rechteck 9081" width="1.533" height="1.533" transform="translate(19.933 21.466)" fill="#1d4264"/>
            <rect id="Rechteck_9082" data-name="Rechteck 9082" width="1.533" height="1.533" transform="translate(21.466 21.466)" fill="#1d4264"/>
            <rect id="Rechteck_9083" data-name="Rechteck 9083" width="1.533" height="1.533" transform="translate(21.466 22.999)" fill="#1d4264"/>
            <rect id="Rechteck_9084" data-name="Rechteck 9084" width="1.533" height="1.533" transform="translate(21.466 24.533)" fill="#1d4264"/>
            <rect id="Rechteck_9085" data-name="Rechteck 9085" width="1.533" height="1.533" transform="translate(18.399 22.999)" fill="#1d4264"/>
            <rect id="Rechteck_9086" data-name="Rechteck 9086" width="1.533" height="1.533" transform="translate(6.133 15.333)" fill="#1d4264"/>
            <rect id="Rechteck_9087" data-name="Rechteck 9087" width="1.533" height="1.533" transform="translate(3.067 15.333)" fill="#1d4264"/>
            <rect id="Rechteck_9088" data-name="Rechteck 9088" width="1.533" height="1.533" transform="translate(7.666 15.333)" fill="#1d4264"/>
            <rect id="Rechteck_9089" data-name="Rechteck 9089" width="1.533" height="1.533" transform="translate(7.666 13.8)" fill="#1d4264"/>
            <rect id="Rechteck_9090" data-name="Rechteck 9090" width="1.533" height="1.533" transform="translate(9.2 13.8)" fill="#1d4264"/>
            <rect id="Rechteck_9091" data-name="Rechteck 9091" width="1.533" height="1.533" transform="translate(10.733 13.8)" fill="#1d4264"/>
            <rect id="Rechteck_9092" data-name="Rechteck 9092" width="1.533" height="1.533" transform="translate(10.733 15.333)" fill="#1d4264"/>
            <rect id="Rechteck_9093" data-name="Rechteck 9093" width="1.533" height="1.533" transform="translate(15.333 16.866)" fill="#1d4264"/>
            <rect id="Rechteck_9094" data-name="Rechteck 9094" width="1.533" height="1.533" transform="translate(13.8 16.866)" fill="#1d4264"/>
            <rect id="Rechteck_9095" data-name="Rechteck 9095" width="1.533" height="1.533" transform="translate(13.8 15.333)" fill="#1d4264"/>
            <rect id="Rechteck_9096" data-name="Rechteck 9096" width="1.533" height="1.533" transform="translate(12.266 15.333)" fill="#1d4264"/>
            <rect id="Rechteck_9097" data-name="Rechteck 9097" width="1.533" height="1.533" transform="translate(26.066 15.333)" fill="#1d4264"/>
            <rect id="Rechteck_9098" data-name="Rechteck 9098" width="1.533" height="1.533" transform="translate(22.999 13.8)" fill="#1d4264"/>
            <rect id="Rechteck_9099" data-name="Rechteck 9099" width="1.533" height="1.533" transform="translate(15.333 29.132)" fill="#1d4264"/>
            <rect id="Rechteck_9100" data-name="Rechteck 9100" width="1.533" height="1.533" transform="translate(19.933 24.533)" fill="#1d4264"/>
            <rect id="Rechteck_9101" data-name="Rechteck 9101" width="1.533" height="1.533" transform="translate(29.132 24.609)" fill="#1d4264"/>
            <rect id="Rechteck_9102" data-name="Rechteck 9102" width="1.533" height="1.533" transform="translate(24.533 22.999)" fill="#1d4264"/>
            <rect id="Rechteck_9103" data-name="Rechteck 9103" width="1.533" height="1.533" transform="translate(24.226 29.132)" fill="#1d4264"/>
            <rect id="Rechteck_9104" data-name="Rechteck 9104" width="1.533" height="1.533" transform="translate(24.533 19.933)" fill="#1d4264"/>
            <rect id="Rechteck_9105" data-name="Rechteck 9105" width="1.533" height="1.533" transform="translate(29.132 21.466)" fill="#1d4264"/>
            <rect id="Rechteck_9106" data-name="Rechteck 9106" width="1.533" height="1.533" transform="translate(27.599 19.933)" fill="#1d4264"/>
            <rect id="Rechteck_9107" data-name="Rechteck 9107" width="1.533" height="1.533" transform="translate(27.599 21.466)" fill="#1d4264"/>
            <rect id="Rechteck_9108" data-name="Rechteck 9108" width="1.533" height="1.533" transform="translate(26.066 21.466)" fill="#1d4264"/>
            <rect id="Rechteck_9109" data-name="Rechteck 9109" width="1.533" height="1.533" transform="translate(24.533 18.399)" fill="#1d4264"/>
            <rect id="Rechteck_9110" data-name="Rechteck 9110" width="1.533" height="1.533" transform="translate(22.999 18.399)" fill="#1d4264"/>
            <rect id="Rechteck_9111" data-name="Rechteck 9111" width="1.533" height="1.533" transform="translate(24.533 15.333)" fill="#1d4264"/>
            <rect id="Rechteck_9112" data-name="Rechteck 9112" width="1.533" height="1.533" transform="translate(22.999 16.866)" fill="#1d4264"/>
            <rect id="Rechteck_9113" data-name="Rechteck 9113" width="1.533" height="1.533" transform="translate(24.533 26.066)" fill="#1d4264"/>
            <rect id="Rechteck_9114" data-name="Rechteck 9114" width="1.533" height="1.533" transform="translate(21.466 27.599)" fill="#1d4264"/>
            <rect id="Rechteck_9115" data-name="Rechteck 9115" width="1.533" height="1.533" transform="translate(13.8 26.066)" fill="#1d4264"/>
            <rect id="Rechteck_9116" data-name="Rechteck 9116" width="1.533" height="1.533" transform="translate(13.8 29.132)" fill="#1d4264"/>
            <rect id="Rechteck_9117" data-name="Rechteck 9117" width="1.533" height="1.533" transform="translate(19.933 27.599)" fill="#1d4264"/>
            <rect id="Rechteck_9118" data-name="Rechteck 9118" width="1.533" height="1.533" transform="translate(18.399 27.599)" fill="#1d4264"/>
            <rect id="Rechteck_9119" data-name="Rechteck 9119" width="1.533" height="1.533" transform="translate(19.933 29.132)" fill="#1d4264"/>
            <rect id="Rechteck_9120" data-name="Rechteck 9120" width="1.533" height="1.533" transform="translate(16.866 26.066)" fill="#1d4264"/>
            <rect id="Rechteck_9121" data-name="Rechteck 9121" width="1.533" height="1.533" transform="translate(16.866 29.132)" fill="#1d4264"/>
            <rect id="Rechteck_9122" data-name="Rechteck 9122" width="1.533" height="1.533" transform="translate(22.999 29.132)" fill="#1d4264"/>
            <rect id="Rechteck_9123" data-name="Rechteck 9123" width="1.533" height="1.533" transform="translate(16.866 27.599)" fill="#1d4264"/>
            <rect id="Rechteck_9124" data-name="Rechteck 9124" width="1.533" height="1.533" transform="translate(15.333 26.066)" fill="#1d4264"/>
            <rect id="Rechteck_9125" data-name="Rechteck 9125" width="1.533" height="1.533" transform="translate(29.132 29.132)" fill="#1d4264"/>
            <rect id="Rechteck_9126" data-name="Rechteck 9126" width="1.533" height="1.533" transform="translate(27.599 29.132)" fill="#1d4264"/>
          </g>
        </g>
        <g id="Gruppe_15860" data-name="Gruppe 15860" transform="translate(-86.359 126.645)">
          <g id="Gruppe_15839" data-name="Gruppe 15839" transform="translate(210)">
            <g id="Gruppe_3470-2" data-name="Gruppe 3470" transform="translate(866.399 380.939)">
              <g id="Gruppe_3467-2" data-name="Gruppe 3467" transform="translate(0 0)">
                <g id="Gruppe_3462-2" data-name="Gruppe 3462">
                  <path id="Pfad_32911-2" data-name="Pfad 32911" d="M7.955,0H57.32a7.955,7.955,0,0,1,7.955,7.955V118.065a7.955,7.955,0,0,1-7.955,7.955H7.955A7.955,7.955,0,0,1,0,118.065V7.955A7.955,7.955,0,0,1,7.955,0Z" fill="#fff"/>
                  <g id="Gruppe_3331-2" data-name="Gruppe 3331" transform="translate(1.989 1.989)">
                    <g id="Gruppe_3326-2" data-name="Gruppe 3326" transform="translate(0 0)">
                      <path id="Rahmen-2" data-name="Rahmen" d="M57.391-.06H9.906A6.927,6.927,0,0,0,3,6.846V115.2a6.927,6.927,0,0,0,6.906,6.907H57.391A6.927,6.927,0,0,0,64.3,115.2V6.846A6.927,6.927,0,0,0,57.391-.06m-35.11,6.9A2.235,2.235,0,0,0,24.4,8.371H42.9A2.235,2.235,0,0,0,45.018,6.84l.867-2.615A1.171,1.171,0,0,1,47,3.423h10.4a3.3,3.3,0,0,1,3.471,3.424l.018,108.105a3.5,3.5,0,0,1-3.49,3.673H9.906A3.516,3.516,0,0,1,6.487,115.2L6.507,6.846a3.382,3.382,0,0,1,3.4-3.424H20.3a1.171,1.171,0,0,1,1.111.8" transform="translate(-3 0.06)" fill="#2d6288"/>
                    </g>
                  </g>
                </g>
              </g>
            </g>
            <path id="Pfad_33379" data-name="Pfad 33379" d="M-22.7-1.128a.441.441,0,0,1-.168.354.708.708,0,0,1-.466.14,1.112,1.112,0,0,1-.494-.115,1.294,1.294,0,0,1-.3-.184q-.068-.068-.106-.111l-.5.494.062.067a1.13,1.13,0,0,0,.177.158,2.477,2.477,0,0,0,.286.185A1.764,1.764,0,0,0-23.8.017a2.042,2.042,0,0,0,.52.066,1.574,1.574,0,0,0,1.07-.338,1.1,1.1,0,0,0,.388-.873.975.975,0,0,0-.2-.626,1.106,1.106,0,0,0-.477-.354q-.281-.107-.559-.188a2,2,0,0,1-.473-.2.351.351,0,0,1-.195-.31.37.37,0,0,1,.144-.293.571.571,0,0,1,.38-.121.853.853,0,0,1,.381.091,1.1,1.1,0,0,1,.243.146q.058.055.09.093l.494-.524-.048-.054a.811.811,0,0,0-.152-.133,2.043,2.043,0,0,0-.247-.15,1.651,1.651,0,0,0-.361-.129,1.875,1.875,0,0,0-.457-.055,1.418,1.418,0,0,0-.974.33,1.027,1.027,0,0,0-.375.8.975.975,0,0,0,.2.626,1.109,1.109,0,0,0,.474.354q.278.107.559.187a1.923,1.923,0,0,1,.475.2A.354.354,0,0,1-22.7-1.128Zm3.491-2.8a2.052,2.052,0,0,0-1.486.588,1.9,1.9,0,0,0-.606,1.418A1.909,1.909,0,0,0-20.7-.506a2.05,2.05,0,0,0,1.486.589A2.034,2.034,0,0,0-18.632,0a2.109,2.109,0,0,0,.454-.184,2.074,2.074,0,0,0,.325-.234,2.244,2.244,0,0,0,.2-.185,1,1,0,0,0,.066-.085l-.5-.524-.043.056a.843.843,0,0,1-.14.14,2.054,2.054,0,0,1-.223.16,1.31,1.31,0,0,1-.318.137,1.387,1.387,0,0,1-.4.058,1.225,1.225,0,0,1-.9-.363,1.225,1.225,0,0,1-.363-.9,1.225,1.225,0,0,1,.363-.9,1.225,1.225,0,0,1,.9-.363,1.248,1.248,0,0,1,.384.06,1.406,1.406,0,0,1,.3.132,1.271,1.271,0,0,1,.214.165,1.246,1.246,0,0,1,.126.133l.044.06.524-.524-.062-.081a1.274,1.274,0,0,0-.195-.191,3.128,3.128,0,0,0-.312-.226,1.723,1.723,0,0,0-.45-.192A2.068,2.068,0,0,0-19.214-3.932Zm4.262,2.31h-.937l.47-1.265Zm.274.714.33.908h.881l-1.515-3.851h-.878L-17.374,0h.881l.33-.908Zm4.372-2.943V-1.4l-1.9-2.449h-.717V0h.827V-2.447L-10.2,0h.714V-3.851ZM-7.368,0h.827V-3.851h-.827Zm4.426-3.851V-1.4l-1.9-2.449h-.717V0h.827V-2.447L-2.832,0h.714V-3.851ZM.549-1.128a.441.441,0,0,1-.168.354.708.708,0,0,1-.466.14A1.112,1.112,0,0,1-.579-.749a1.294,1.294,0,0,1-.3-.184Q-.952-1-.99-1.045l-.5.494.062.067a1.13,1.13,0,0,0,.177.158A2.477,2.477,0,0,0-.961-.14,1.764,1.764,0,0,0-.548.017a2.042,2.042,0,0,0,.52.066,1.574,1.574,0,0,0,1.07-.338,1.1,1.1,0,0,0,.388-.873.975.975,0,0,0-.2-.626,1.106,1.106,0,0,0-.477-.354Q.477-2.216.2-2.3a2,2,0,0,1-.473-.2A.351.351,0,0,1-.469-2.8.37.37,0,0,1-.325-3.1a.571.571,0,0,1,.38-.121.853.853,0,0,1,.381.091,1.1,1.1,0,0,1,.243.146q.058.055.09.093l.494-.524-.048-.054A.811.811,0,0,0,1.063-3.6a2.043,2.043,0,0,0-.247-.15,1.651,1.651,0,0,0-.361-.129A1.875,1.875,0,0,0,0-3.932a1.418,1.418,0,0,0-.974.33,1.027,1.027,0,0,0-.375.8.975.975,0,0,0,.2.626,1.109,1.109,0,0,0,.474.354q.278.107.559.187a1.923,1.923,0,0,1,.475.2A.354.354,0,0,1,.549-1.128ZM1.674-3.851v.744h1.1V0H3.6V-3.107H4.7v-.744Zm5.28,2.229H6.017l.47-1.265Zm.274.714L7.558,0h.881L6.925-3.851H6.047L4.532,0h.881l.33-.908Zm3.411-3.024a2.052,2.052,0,0,0-1.486.588,1.9,1.9,0,0,0-.606,1.418A1.909,1.909,0,0,0,9.152-.506a2.05,2.05,0,0,0,1.486.589A2.034,2.034,0,0,0,11.22,0a2.109,2.109,0,0,0,.454-.184A2.074,2.074,0,0,0,12-.418,2.244,2.244,0,0,0,12.2-.6a1,1,0,0,0,.066-.085l-.5-.524-.043.056a.843.843,0,0,1-.14.14,2.054,2.054,0,0,1-.223.16,1.31,1.31,0,0,1-.318.137,1.387,1.387,0,0,1-.4.058,1.225,1.225,0,0,1-.9-.363,1.225,1.225,0,0,1-.363-.9,1.225,1.225,0,0,1,.363-.9,1.225,1.225,0,0,1,.9-.363,1.248,1.248,0,0,1,.384.06,1.406,1.406,0,0,1,.3.132,1.271,1.271,0,0,1,.214.165,1.246,1.246,0,0,1,.126.133l.044.06.524-.524-.062-.081a1.274,1.274,0,0,0-.195-.191,3.128,3.128,0,0,0-.312-.226,1.723,1.723,0,0,0-.45-.192A2.068,2.068,0,0,0,10.639-3.932Zm2.8,2.007a1.235,1.235,0,0,1,.36-.9,1.182,1.182,0,0,1,.877-.367,1.182,1.182,0,0,1,.877.367,1.235,1.235,0,0,1,.36.9,1.23,1.23,0,0,1-.36.9,1.184,1.184,0,0,1-.877.365,1.184,1.184,0,0,1-.877-.365A1.23,1.23,0,0,1,13.443-1.924Zm-.854,0a1.909,1.909,0,0,0,.606,1.419,2.048,2.048,0,0,0,1.485.589,2.048,2.048,0,0,0,1.485-.589,1.909,1.909,0,0,0,.606-1.419,1.9,1.9,0,0,0-.606-1.418,2.05,2.05,0,0,0-1.485-.588,2.05,2.05,0,0,0-1.485.588A1.9,1.9,0,0,0,12.589-1.926Zm4.949-1.926V0h1.431a1.934,1.934,0,0,0,1.41-.559,1.841,1.841,0,0,0,.569-1.367,1.841,1.841,0,0,0-.569-1.367,1.934,1.934,0,0,0-1.41-.559Zm1.431.744a1.1,1.1,0,0,1,.824.344,1.166,1.166,0,0,1,.33.839,1.151,1.151,0,0,1-.338.839,1.1,1.1,0,0,1-.816.344h-.6V-3.107ZM22.544-.741V-1.6h1.566v-.741H22.544v-.771H24.55v-.744H21.717V0h2.89V-.741Z" transform="translate(899.036 483.2)" fill="#3e84ad"/>
            <path id="Pfad_33378" data-name="Pfad 33378" d="M-19.607-2.725a.339.339,0,0,1-.081.234.252.252,0,0,1-.2.09h-.225v.6h.425v1q0,.85.774.85a1.235,1.235,0,0,0,.452-.073V-.6l-.029.01a.477.477,0,0,1-.094.028.606.606,0,0,1-.128.013.3.3,0,0,1-.214-.081.26.26,0,0,1-.084-.2V-1.8h.5v-.6h-.5v-.774h-.6Zm2.093,1.5a.647.647,0,0,1,.178-.463.563.563,0,0,1,.422-.188.563.563,0,0,1,.422.188.647.647,0,0,1,.178.463.643.643,0,0,1-.178.461.565.565,0,0,1-.422.187.565.565,0,0,1-.422-.187A.643.643,0,0,1-17.515-1.224Zm1.9,0A1.215,1.215,0,0,0-16-2.118a1.255,1.255,0,0,0-.912-.382,1.259,1.259,0,0,0-.913.382,1.214,1.214,0,0,0-.388.892,1.214,1.214,0,0,0,.388.892,1.259,1.259,0,0,0,.913.382A1.255,1.255,0,0,0-16-.333,1.215,1.215,0,0,0-15.615-1.226Zm3.038-1.25h-.1a.848.848,0,0,0-.382.09.982.982,0,0,0-.236.145q-.054.055-.083.089v-.3h-.674V0h.674V-1.174a.689.689,0,0,1,.155-.483.544.544,0,0,1,.421-.168.822.822,0,0,1,.225.027ZM-9.859-1l.024-.273a1.19,1.19,0,0,0-.349-.875,1.184,1.184,0,0,0-.874-.35,1.231,1.231,0,0,0-.9.375,1.225,1.225,0,0,0-.376.9,1.217,1.217,0,0,0,.381.9,1.264,1.264,0,0,0,.92.375A1.549,1.549,0,0,0-10.664,0a1.366,1.366,0,0,0,.292-.1,1.564,1.564,0,0,0,.212-.131,1.334,1.334,0,0,0,.131-.1l.045-.045-.349-.449L-10.4-.75a.683.683,0,0,1-.228.15.836.836,0,0,1-.353.074.68.68,0,0,1-.437-.138A.561.561,0,0,1-11.634-1Zm-1.2-.923A.537.537,0,0,1-10.7-1.8a.557.557,0,0,1,.187.322h-1.125a.661.661,0,0,1,.211-.325A.553.553,0,0,1-11.058-1.924ZM-7.64-.2a.642.642,0,0,1-.175.475.642.642,0,0,1-.475.175A.82.82,0,0,1-8.665.36.853.853,0,0,1-8.891.215a1.157,1.157,0,0,1-.074-.09l-.425.4.046.056a.792.792,0,0,0,.134.132,1.73,1.73,0,0,0,.222.153,1.387,1.387,0,0,0,.32.129,1.464,1.464,0,0,0,.4.055A1.278,1.278,0,0,0-7.336.69a1.193,1.193,0,0,0,.37-.89V-2.451H-7.64v.3l-.076-.09a.822.822,0,0,0-.256-.171A.9.9,0,0,0-8.365-2.5a1.022,1.022,0,0,0-.76.365,1.22,1.22,0,0,0-.341.861,1.22,1.22,0,0,0,.341.861,1.022,1.022,0,0,0,.76.365A.9.9,0,0,0-8.1-.087a.86.86,0,0,0,.2-.085A1.035,1.035,0,0,0-7.758-.28q.067-.06.088-.083A.364.364,0,0,0-7.64-.4ZM-8.765-1.276a.6.6,0,0,1,.16-.43.516.516,0,0,1,.391-.17.548.548,0,0,1,.4.175.582.582,0,0,1,.172.425.586.586,0,0,1-.172.426.546.546,0,0,1-.4.176.515.515,0,0,1-.391-.171A.606.606,0,0,1-8.765-1.276ZM-5.6-2.451h-.676V0H-5.6Zm.049-.7a.359.359,0,0,0-.107-.272.407.407,0,0,0-.293-.1.366.366,0,0,0-.271.1.368.368,0,0,0-.1.272.37.37,0,0,0,.1.272.365.365,0,0,0,.272.1.407.407,0,0,0,.293-.1A.359.359,0,0,0-5.547-3.151ZM-3.2-2.124l-.085-.1a.924.924,0,0,0-.3-.186,1.135,1.135,0,0,0-.468-.1.991.991,0,0,0-.675.239A.7.7,0,0,0-5-1.726a.6.6,0,0,0,.115.376.7.7,0,0,0,.28.22,3.03,3.03,0,0,0,.333.121,1.291,1.291,0,0,1,.283.117.194.194,0,0,1,.115.167.2.2,0,0,1-.082.162A.4.4,0,0,1-4.2-.5a.57.57,0,0,1-.283-.077A.845.845,0,0,1-4.664-.7a.607.607,0,0,1-.062-.074L-5.1-.4l.034.051a.831.831,0,0,0,.118.109,1.814,1.814,0,0,0,.192.131A1.11,1.11,0,0,0-4.472,0,1.449,1.449,0,0,0-4.1.049a1.064,1.064,0,0,0,.714-.222.7.7,0,0,0,.26-.552.629.629,0,0,0-.115-.385.664.664,0,0,0-.283-.225q-.168-.07-.333-.12a1.453,1.453,0,0,1-.28-.114.184.184,0,0,1-.115-.159.171.171,0,0,1,.081-.138.361.361,0,0,1,.22-.06.458.458,0,0,1,.215.055A.6.6,0,0,1-3.6-1.78a.63.63,0,0,1,.048.054Zm.894-.6a.339.339,0,0,1-.081.234.252.252,0,0,1-.2.09h-.225v.6h.425v1q0,.85.774.85a1.235,1.235,0,0,0,.452-.073V-.6l-.029.01a.477.477,0,0,1-.094.028.606.606,0,0,1-.128.013A.3.3,0,0,1-1.624-.63a.26.26,0,0,1-.084-.2V-1.8h.5v-.6h-.5v-.774h-.6ZM1.559-1l.024-.273a1.19,1.19,0,0,0-.349-.875A1.184,1.184,0,0,0,.36-2.5a1.231,1.231,0,0,0-.9.375,1.225,1.225,0,0,0-.376.9,1.217,1.217,0,0,0,.381.9,1.264,1.264,0,0,0,.92.375A1.549,1.549,0,0,0,.755,0a1.366,1.366,0,0,0,.292-.1,1.564,1.564,0,0,0,.212-.131,1.334,1.334,0,0,0,.131-.1l.045-.045L1.085-.825,1.015-.75A.683.683,0,0,1,.786-.6a.836.836,0,0,1-.353.074A.68.68,0,0,1,0-.663.561.561,0,0,1-.216-1ZM.36-1.924A.537.537,0,0,1,.723-1.8a.557.557,0,0,1,.187.322H-.216A.661.661,0,0,1,0-1.8.553.553,0,0,1,.36-1.924Zm3.218-.552h-.1a.848.848,0,0,0-.382.09.982.982,0,0,0-.236.145q-.054.055-.083.089v-.3H2.1V0h.674V-1.174a.689.689,0,0,1,.155-.483.544.544,0,0,1,.421-.168.822.822,0,0,1,.225.027ZM6.04-2.5a1.1,1.1,0,0,0-.826.37,1.266,1.266,0,0,0-.35.9,1.266,1.266,0,0,0,.35.9,1.1,1.1,0,0,0,.826.37A.912.912,0,0,0,6.3.012a.858.858,0,0,0,.2-.084,1,1,0,0,0,.145-.107q.067-.06.088-.083A.364.364,0,0,0,6.766-.3V0h.674V-3.5H6.766v1.35l-.076-.09a.862.862,0,0,0-.258-.171A.889.889,0,0,0,6.04-2.5ZM6.165-.549A.557.557,0,0,1,5.74-.74a.688.688,0,0,1-.176-.486A.684.684,0,0,1,5.74-1.71.559.559,0,0,1,6.165-1.9a.559.559,0,0,1,.425.189.684.684,0,0,1,.176.485A.688.688,0,0,1,6.59-.74.557.557,0,0,1,6.165-.549ZM10.457-1l.024-.273a1.19,1.19,0,0,0-.349-.875,1.184,1.184,0,0,0-.874-.35,1.231,1.231,0,0,0-.9.375,1.225,1.225,0,0,0-.376.9,1.217,1.217,0,0,0,.381.9,1.264,1.264,0,0,0,.92.375A1.549,1.549,0,0,0,9.653,0a1.366,1.366,0,0,0,.292-.1,1.564,1.564,0,0,0,.212-.131,1.334,1.334,0,0,0,.131-.1l.045-.045L9.984-.825,9.913-.75a.683.683,0,0,1-.228.15.836.836,0,0,1-.353.074.68.68,0,0,1-.437-.138A.561.561,0,0,1,8.683-1Zm-1.2-.923a.537.537,0,0,1,.363.127.557.557,0,0,1,.187.322H8.683A.661.661,0,0,1,8.894-1.8.553.553,0,0,1,9.259-1.924ZM12.328,0l.923-2.451h-.7L11.976-.825,11.4-2.451h-.7L11.627,0Zm1.993-2.451h-.676V0h.676Zm.049-.7a.359.359,0,0,0-.107-.272.407.407,0,0,0-.293-.1.366.366,0,0,0-.271.1.368.368,0,0,0-.1.272.37.37,0,0,0,.1.272.365.365,0,0,0,.272.1.407.407,0,0,0,.293-.1A.359.359,0,0,0,14.37-3.151Zm.494,1.925a1.207,1.207,0,0,0,.393.892,1.293,1.293,0,0,0,.933.382,1.185,1.185,0,0,0,.363-.055,1.336,1.336,0,0,0,.28-.12,1.278,1.278,0,0,0,.2-.149,1,1,0,0,0,.118-.12l.04-.055-.4-.425-.066.083A.754.754,0,0,1,16.5-.63a.659.659,0,0,1-.316.081.617.617,0,0,1-.457-.2.659.659,0,0,1-.193-.477.661.661,0,0,1,.192-.477.615.615,0,0,1,.458-.2.61.61,0,0,1,.316.089.786.786,0,0,1,.2.145.751.751,0,0,1,.065.09L17.19-2l-.037-.051a.8.8,0,0,0-.125-.127,1.9,1.9,0,0,0-.2-.145,1.1,1.1,0,0,0-.282-.125,1.236,1.236,0,0,0-.363-.052,1.293,1.293,0,0,0-.933.382A1.207,1.207,0,0,0,14.863-1.226ZM19.983-1l.024-.273a1.19,1.19,0,0,0-.349-.875,1.184,1.184,0,0,0-.874-.35,1.231,1.231,0,0,0-.9.375,1.225,1.225,0,0,0-.376.9,1.217,1.217,0,0,0,.381.9,1.264,1.264,0,0,0,.92.375A1.549,1.549,0,0,0,19.179,0a1.366,1.366,0,0,0,.292-.1,1.564,1.564,0,0,0,.212-.131,1.334,1.334,0,0,0,.131-.1l.045-.045L19.51-.825l-.071.076a.683.683,0,0,1-.228.15.836.836,0,0,1-.353.074.68.68,0,0,1-.437-.138A.561.561,0,0,1,18.208-1Zm-1.2-.923a.537.537,0,0,1,.363.127.557.557,0,0,1,.187.322H18.208A.661.661,0,0,1,18.42-1.8.553.553,0,0,1,18.785-1.924Z" transform="translate(899 489)" fill="#3e84ad"/>
          </g>
          <g id="Icon_QR-Scan-_2d6288" data-name="Icon_QR-Scan-#2d6288" transform="translate(1109.036 424.238)">
            <g id="Gruppe_15857" data-name="Gruppe 15857" transform="translate(-21.026 -19.712)">
              <path id="Pfad_33014" data-name="Pfad 33014" d="M15.774,13.774h5.914v5.914H15.774ZM14,21.462h9.462V12H14Z" transform="translate(-4.801 -4.115)" fill="#2d6288"/>
              <path id="Pfad_33015" data-name="Pfad 33015" d="M37.374,13.774h5.914v5.914H37.374ZM35.6,21.462h9.462V12H35.6Z" transform="translate(-12.209 -4.115)" fill="#2d6288"/>
              <rect id="Rechteck_21609" data-name="Rechteck 21609" width="3.548" height="3.548" transform="translate(12.156 10.842)" fill="#2d6288"/>
              <path id="Pfad_33016" data-name="Pfad 33016" d="M15.774,35.374h5.914v5.914H15.774ZM14,43.062h9.462V33.6H14Z" transform="translate(-4.801 -11.523)" fill="#2d6288"/>
              <rect id="Rechteck_21610" data-name="Rechteck 21610" width="3.548" height="3.548" transform="translate(12.156 25.034)" fill="#2d6288"/>
              <rect id="Rechteck_21611" data-name="Rechteck 21611" width="3.548" height="3.548" transform="translate(26.348 10.842)" fill="#2d6288"/>
              <rect id="Rechteck_21612" data-name="Rechteck 21612" width="1.183" height="1.183" transform="translate(19.843 12.024)" fill="#2d6288"/>
              <rect id="Rechteck_21613" data-name="Rechteck 21613" width="1.183" height="1.183" transform="translate(21.026 10.25)" fill="#2d6288"/>
              <rect id="Rechteck_21614" data-name="Rechteck 21614" width="1.183" height="1.183" transform="translate(19.843 7.885)" fill="#2d6288"/>
              <rect id="Rechteck_21615" data-name="Rechteck 21615" width="1.183" height="1.183" transform="translate(21.026 9.067)" fill="#2d6288"/>
              <rect id="Rechteck_21616" data-name="Rechteck 21616" width="1.183" height="1.183" transform="translate(21.026 7.885)" fill="#2d6288"/>
              <rect id="Rechteck_21617" data-name="Rechteck 21617" width="1.183" height="1.183" transform="translate(19.843 10.25)" fill="#2d6288"/>
              <path id="Pfad_33017" data-name="Pfad 33017" d="M34.931,33.6v1.183H32.565v3.548H31.383V35.965H30.2V34.783h1.183V33.6Z" transform="translate(-10.357 -11.523)" fill="#2d6288"/>
              <path id="Pfad_33018" data-name="Pfad 33018" d="M43.265,40.8v1.183H40.9v1.183h3.548v2.365h1.183V41.983H44.448V40.8Z" transform="translate(-14.026 -13.992)" fill="#2d6288"/>
              <path id="Pfad_33019" data-name="Pfad 33019" d="M14,28.2v2.365h1.183V29.383h2.365V28.2Z" transform="translate(-4.801 -9.671)" fill="#2d6288"/>
              <rect id="Rechteck_21618" data-name="Rechteck 21618" width="1.183" height="1.183" transform="translate(19.843 17.346)" fill="#2d6288"/>
              <rect id="Rechteck_21619" data-name="Rechteck 21619" width="1.183" height="1.183" transform="translate(21.026 16.164)" fill="#2d6288"/>
              <rect id="Rechteck_21620" data-name="Rechteck 21620" width="1.183" height="1.183" transform="translate(21.026 14.981)" fill="#2d6288"/>
              <rect id="Rechteck_21621" data-name="Rechteck 21621" width="1.183" height="1.183" transform="translate(21.026 13.798)" fill="#2d6288"/>
              <rect id="Rechteck_21622" data-name="Rechteck 21622" width="1.183" height="1.183" transform="translate(19.843 13.798)" fill="#2d6288"/>
              <rect id="Rechteck_21623" data-name="Rechteck 21623" width="1.183" height="1.183" transform="translate(21.026 18.529)" fill="#2d6288"/>
              <rect id="Rechteck_21624" data-name="Rechteck 21624" width="1.183" height="1.183" transform="translate(23.391 18.529)" fill="#2d6288"/>
              <rect id="Rechteck_21625" data-name="Rechteck 21625" width="1.183" height="1.183" transform="translate(24.574 18.529)" fill="#2d6288"/>
              <rect id="Rechteck_21626" data-name="Rechteck 21626" width="1.183" height="1.183" transform="translate(25.757 18.529)" fill="#2d6288"/>
              <rect id="Rechteck_21627" data-name="Rechteck 21627" width="1.183" height="1.183" transform="translate(31.67 18.529)" fill="#2d6288"/>
              <rect id="Rechteck_21628" data-name="Rechteck 21628" width="1.183" height="1.183" transform="translate(31.67 19.712)" fill="#2d6288"/>
              <rect id="Rechteck_21629" data-name="Rechteck 21629" width="1.183" height="1.183" transform="translate(30.488 18.529)" fill="#2d6288"/>
              <rect id="Rechteck_21630" data-name="Rechteck 21630" width="1.183" height="1.183" transform="translate(30.488 19.712)" fill="#2d6288"/>
              <rect id="Rechteck_21631" data-name="Rechteck 21631" width="1.183" height="1.183" transform="translate(30.488 20.895)" fill="#2d6288"/>
              <rect id="Rechteck_21632" data-name="Rechteck 21632" width="1.183" height="1.183" transform="translate(25.757 19.712)" fill="#2d6288"/>
              <rect id="Rechteck_21633" data-name="Rechteck 21633" width="1.183" height="1.183" transform="translate(24.574 23.26)" fill="#2d6288"/>
              <rect id="Rechteck_21634" data-name="Rechteck 21634" width="1.183" height="1.183" transform="translate(25.757 22.077)" fill="#2d6288"/>
              <rect id="Rechteck_21635" data-name="Rechteck 21635" width="1.183" height="1.183" transform="translate(23.391 19.712)" fill="#2d6288"/>
              <rect id="Rechteck_21636" data-name="Rechteck 21636" width="1.183" height="1.183" transform="translate(23.391 24.443)" fill="#2d6288"/>
              <rect id="Rechteck_21637" data-name="Rechteck 21637" width="1.183" height="1.183" transform="translate(22.209 26.808)" fill="#2d6288"/>
              <rect id="Rechteck_21638" data-name="Rechteck 21638" width="1.183" height="1.183" transform="translate(19.843 26.808)" fill="#2d6288"/>
              <rect id="Rechteck_21639" data-name="Rechteck 21639" width="1.183" height="1.183" transform="translate(24.574 24.443)" fill="#2d6288"/>
              <rect id="Rechteck_21640" data-name="Rechteck 21640" width="1.183" height="1.183" transform="translate(25.757 24.443)" fill="#2d6288"/>
              <rect id="Rechteck_21641" data-name="Rechteck 21641" width="1.183" height="1.183" transform="translate(25.757 25.625)" fill="#2d6288"/>
              <rect id="Rechteck_21642" data-name="Rechteck 21642" width="1.183" height="1.183" transform="translate(25.757 26.808)" fill="#2d6288"/>
              <rect id="Rechteck_21643" data-name="Rechteck 21643" width="1.183" height="1.183" transform="translate(23.391 25.625)" fill="#2d6288"/>
              <rect id="Rechteck_21644" data-name="Rechteck 21644" width="1.183" height="1.183" transform="translate(13.93 19.712)" fill="#2d6288"/>
              <rect id="Rechteck_21645" data-name="Rechteck 21645" width="1.183" height="1.183" transform="translate(11.564 19.712)" fill="#2d6288"/>
              <rect id="Rechteck_21646" data-name="Rechteck 21646" width="1.183" height="1.183" transform="translate(15.112 19.712)" fill="#2d6288"/>
              <rect id="Rechteck_21647" data-name="Rechteck 21647" width="1.183" height="1.183" transform="translate(15.112 18.529)" fill="#2d6288"/>
              <rect id="Rechteck_21648" data-name="Rechteck 21648" width="1.183" height="1.183" transform="translate(16.295 18.529)" fill="#2d6288"/>
              <rect id="Rechteck_21649" data-name="Rechteck 21649" width="1.183" height="1.183" transform="translate(17.478 18.529)" fill="#2d6288"/>
              <rect id="Rechteck_21650" data-name="Rechteck 21650" width="1.183" height="1.183" transform="translate(17.478 19.712)" fill="#2d6288"/>
              <rect id="Rechteck_21651" data-name="Rechteck 21651" width="1.183" height="1.183" transform="translate(21.026 20.895)" fill="#2d6288"/>
              <rect id="Rechteck_21652" data-name="Rechteck 21652" width="1.183" height="1.183" transform="translate(19.843 20.895)" fill="#2d6288"/>
              <rect id="Rechteck_21653" data-name="Rechteck 21653" width="1.183" height="1.183" transform="translate(19.843 19.712)" fill="#2d6288"/>
              <rect id="Rechteck_21654" data-name="Rechteck 21654" width="1.183" height="1.183" transform="translate(18.661 19.712)" fill="#2d6288"/>
              <rect id="Rechteck_21655" data-name="Rechteck 21655" width="1.183" height="1.183" transform="translate(29.305 19.712)" fill="#2d6288"/>
              <rect id="Rechteck_21656" data-name="Rechteck 21656" width="1.183" height="1.183" transform="translate(26.94 18.529)" fill="#2d6288"/>
              <rect id="Rechteck_21657" data-name="Rechteck 21657" width="1.183" height="1.183" transform="translate(21.026 30.356)" fill="#2d6288"/>
              <rect id="Rechteck_21658" data-name="Rechteck 21658" width="1.183" height="1.183" transform="translate(24.574 26.808)" fill="#2d6288"/>
              <rect id="Rechteck_21659" data-name="Rechteck 21659" width="1.183" height="1.183" transform="translate(31.67 26.874)" fill="#2d6288"/>
              <rect id="Rechteck_21660" data-name="Rechteck 21660" width="1.183" height="1.183" transform="translate(28.122 25.625)" fill="#2d6288"/>
              <rect id="Rechteck_21661" data-name="Rechteck 21661" width="1.183" height="1.183" transform="translate(27.859 30.356)" fill="#2d6288"/>
              <rect id="Rechteck_21662" data-name="Rechteck 21662" width="1.183" height="1.183" transform="translate(28.122 23.26)" fill="#2d6288"/>
              <rect id="Rechteck_21663" data-name="Rechteck 21663" width="1.183" height="1.183" transform="translate(31.67 24.443)" fill="#2d6288"/>
              <rect id="Rechteck_21664" data-name="Rechteck 21664" width="1.183" height="1.183" transform="translate(30.488 23.26)" fill="#2d6288"/>
              <rect id="Rechteck_21665" data-name="Rechteck 21665" width="1.183" height="1.183" transform="translate(30.488 24.443)" fill="#2d6288"/>
              <rect id="Rechteck_21666" data-name="Rechteck 21666" width="1.183" height="1.183" transform="translate(29.305 24.443)" fill="#2d6288"/>
              <rect id="Rechteck_21667" data-name="Rechteck 21667" width="1.183" height="1.183" transform="translate(28.122 22.077)" fill="#2d6288"/>
              <rect id="Rechteck_21668" data-name="Rechteck 21668" width="1.183" height="1.183" transform="translate(26.94 22.077)" fill="#2d6288"/>
              <rect id="Rechteck_21669" data-name="Rechteck 21669" width="1.183" height="1.183" transform="translate(28.122 19.712)" fill="#2d6288"/>
              <rect id="Rechteck_21670" data-name="Rechteck 21670" width="1.183" height="1.183" transform="translate(26.94 20.895)" fill="#2d6288"/>
              <rect id="Rechteck_21671" data-name="Rechteck 21671" width="1.183" height="1.183" transform="translate(28.122 27.991)" fill="#2d6288"/>
              <rect id="Rechteck_21672" data-name="Rechteck 21672" width="1.183" height="1.183" transform="translate(25.757 29.174)" fill="#2d6288"/>
              <rect id="Rechteck_21673" data-name="Rechteck 21673" width="1.183" height="1.183" transform="translate(19.843 27.991)" fill="#2d6288"/>
              <rect id="Rechteck_21674" data-name="Rechteck 21674" width="1.183" height="1.183" transform="translate(19.843 30.356)" fill="#2d6288"/>
              <rect id="Rechteck_21675" data-name="Rechteck 21675" width="1.183" height="1.183" transform="translate(24.574 29.174)" fill="#2d6288"/>
              <rect id="Rechteck_21676" data-name="Rechteck 21676" width="1.183" height="1.183" transform="translate(23.391 29.174)" fill="#2d6288"/>
              <rect id="Rechteck_21677" data-name="Rechteck 21677" width="1.183" height="1.183" transform="translate(24.574 30.356)" fill="#2d6288"/>
              <rect id="Rechteck_21678" data-name="Rechteck 21678" width="1.183" height="1.183" transform="translate(22.209 27.991)" fill="#2d6288"/>
              <rect id="Rechteck_21679" data-name="Rechteck 21679" width="1.183" height="1.183" transform="translate(22.209 30.356)" fill="#2d6288"/>
              <rect id="Rechteck_21680" data-name="Rechteck 21680" width="1.183" height="1.183" transform="translate(26.94 30.356)" fill="#2d6288"/>
              <rect id="Rechteck_21681" data-name="Rechteck 21681" width="1.183" height="1.183" transform="translate(22.209 29.174)" fill="#2d6288"/>
              <rect id="Rechteck_21682" data-name="Rechteck 21682" width="1.183" height="1.183" transform="translate(21.026 27.991)" fill="#2d6288"/>
              <rect id="Rechteck_21683" data-name="Rechteck 21683" width="1.183" height="1.183" transform="translate(31.67 30.356)" fill="#2d6288"/>
              <rect id="Rechteck_21684" data-name="Rechteck 21684" width="1.183" height="1.183" transform="translate(30.488 30.356)" fill="#2d6288"/>
              <g id="Gruppe_15856" data-name="Gruppe 15856" clip-path="url(#clip-path-16)">
                <path id="Pfad_33020" data-name="Pfad 33020" d="M1.314,28H40.738a1.314,1.314,0,1,1,0,2.628H1.314a1.314,1.314,0,1,1,0-2.628" transform="translate(0 -9.602)" fill="#ffd858"/>
                <path id="Pfad_33021" data-name="Pfad 33021" d="M3.314,11.039A1.314,1.314,0,0,1,2,9.725v-4.8A4.928,4.928,0,0,1,6.928,0h4.8a1.314,1.314,0,1,1,0,2.628h-4.8a2.3,2.3,0,0,0-2.3,2.3v4.8a1.314,1.314,0,0,1-1.314,1.314M13.039,38.11A1.314,1.314,0,0,0,11.725,36.8h-4.8a2.3,2.3,0,0,1-2.3-2.3V29.7A1.314,1.314,0,1,0,2,29.7v4.8a4.928,4.928,0,0,0,4.928,4.928h4.8a1.314,1.314,0,0,0,1.314-1.314M41.424,34.5V29.7a1.314,1.314,0,1,0-2.628,0v4.8a2.3,2.3,0,0,1-2.3,2.3H31.7a1.314,1.314,0,0,0,0,2.628h4.8A4.928,4.928,0,0,0,41.424,34.5m0-24.771v-4.8A4.928,4.928,0,0,0,36.5,0H31.7a1.314,1.314,0,0,0,0,2.628h4.8a2.3,2.3,0,0,1,2.3,2.3v4.8a1.314,1.314,0,1,0,2.628,0" transform="translate(-0.686 0)" fill="gray"/>
              </g>
            </g>
          </g>
        </g>
        <g id="Instalogin-stack_Blue-Grey" transform="translate(1022.677 590.678)">
          <g id="Instalogin-stack_Blue-Grey-2" data-name="Instalogin-stack_Blue-Grey" transform="translate(-15.793 -8.598)" clip-path="url(#clip-path-17)">
            <path id="Pfad_5344" data-name="Pfad 5344" d="M204.634,4.1V5.927a.722.722,0,0,1-.361.625l-1.047.606V3.282Zm-6.026,1V1.237l-1.047.606a.723.723,0,0,0-.361.625V4.249Zm5.665-3.252L202.65.906l-1.408.814,3.392,1.96V2.467a.722.722,0,0,0-.361-.625m-5.3.778L202.289.7l-1.01-.588a.722.722,0,0,0-.723,0l-1.586.919Zm3.895,3.123-3.356,1.941,1.047.6a.722.722,0,0,0,.723,0l1.586-.919Zm-5.3.814,1.586.919,1.39-.8-1.923-1.157h-.006L197.2,4.672V5.927a.723.723,0,0,0,.361.625" transform="translate(-185.124 -0.018)" fill="#3c3c3b"/>
            <path id="Pfad_5345" data-name="Pfad 5345" d="M1.033,171.746A.6.6,0,0,1,.6,171.9a.539.539,0,0,1-.4-.153.612.612,0,0,1,0-.8.539.539,0,0,1,.4-.153.6.6,0,0,1,.429.153.588.588,0,0,1,0,.8m.086,4.238H.126v-3.607h.992Z" transform="translate(-0.053 -160.331)" fill="#3c3c3b"/>
            <path id="Pfad_5346" data-name="Pfad 5346" d="M32.392,196.1l.122-.141a1.523,1.523,0,0,1,.349-.227,1.177,1.177,0,0,1,.563-.141,1.3,1.3,0,0,1,1.01.429,1.64,1.64,0,0,1,.392,1.151v2.1h-1v-2a.735.735,0,0,0-.2-.533.674.674,0,0,0-.5-.2.686.686,0,0,0-.539.221.891.891,0,0,0-.2.625v1.874H31.4v-3.6h.992Z" transform="translate(-29.477 -183.611)" fill="#3c3c3b"/>
            <path id="Pfad_5347" data-name="Pfad 5347" d="M98.178,196.538l-.067-.08a.877.877,0,0,0-.2-.129.674.674,0,0,0-.318-.08.534.534,0,0,0-.325.086.251.251,0,0,0-.116.2.269.269,0,0,0,.171.233,2.135,2.135,0,0,0,.41.165,4.709,4.709,0,0,1,.49.178.98.98,0,0,1,.416.331.925.925,0,0,1,.171.563,1.029,1.029,0,0,1-.386.814,1.585,1.585,0,0,1-1.053.324,2.135,2.135,0,0,1-.545-.067,1.636,1.636,0,0,1-.423-.165,2.662,2.662,0,0,1-.282-.19,1.219,1.219,0,0,1-.171-.159l-.049-.074.551-.551.092.11a1.25,1.25,0,0,0,.263.178.839.839,0,0,0,.416.11.587.587,0,0,0,.355-.092.287.287,0,0,0,.122-.239.284.284,0,0,0-.171-.245,1.9,1.9,0,0,0-.416-.171,4.458,4.458,0,0,1-.49-.178,1.023,1.023,0,0,1-.41-.324.882.882,0,0,1-.171-.551,1.04,1.04,0,0,1,.4-.79,1.457,1.457,0,0,1,.992-.355,1.671,1.671,0,0,1,.686.141,1.352,1.352,0,0,1,.435.276l.129.141Z" transform="translate(-90.027 -183.427)" fill="#3c3c3b"/>
            <path id="Pfad_5348" data-name="Pfad 5348" d="M148.941,179.3h.882v1.139h.735v.882h-.735v1.433a.386.386,0,0,0,.122.288.435.435,0,0,0,.312.116.892.892,0,0,0,.19-.018l.141-.043.043-.012v.851a1.817,1.817,0,0,1-.667.11q-1.139,0-1.139-1.249v-1.47H148.2v-.888h.331a.373.373,0,0,0,.288-.135.5.5,0,0,0,.116-.343Z" transform="translate(-139.125 -168.32)" fill="#3c3c3b"/>
            <path id="Pfad_5349" data-name="Pfad 5349" d="M198.3,198.907l-.122.122a1.422,1.422,0,0,1-.337.2,1.355,1.355,0,0,1-1.415-.178.937.937,0,0,1-.337-.729,1.023,1.023,0,0,1,.282-.735,1.4,1.4,0,0,1,.784-.386l1.145-.2a.465.465,0,0,0-.165-.367.686.686,0,0,0-.459-.141,1.065,1.065,0,0,0-.447.092.819.819,0,0,0-.282.19l-.08.086-.551-.551.061-.08a1.653,1.653,0,0,1,.171-.165,1.778,1.778,0,0,1,.288-.208,1.892,1.892,0,0,1,.4-.171,1.735,1.735,0,0,1,.514-.08,1.545,1.545,0,0,1,1.115.41,1.353,1.353,0,0,1,.429,1.029v2.247h-1Zm-.2-.582a.832.832,0,0,0,.2-.594v-.11l-.808.141q-.4.067-.4.4t.478.367a.7.7,0,0,0,.539-.214" transform="translate(-184.085 -183.622)" fill="#3c3c3b"/>
            <rect id="Rechteck_1267" data-name="Rechteck 1267" width="0.998" height="5.154" transform="translate(15.946 10.496)" fill="#4083ac"/>
            <path id="Pfad_5350" data-name="Pfad 5350" d="M289.558,198.6a1.886,1.886,0,0,1-2.688,0,1.807,1.807,0,0,1,0-2.633,1.886,1.886,0,0,1,2.688,0,1.807,1.807,0,0,1,0,2.633m-1.966-.631a.839.839,0,0,0,1.243,0,1.01,1.01,0,0,0,0-1.359.839.839,0,0,0-1.243,0,1.01,1.01,0,0,0,0,1.359" transform="translate(-268.768 -183.44)" fill="#4083ac"/>
            <path id="Pfad_5351" data-name="Pfad 5351" d="M358.885,198.592l-.043.055-.129.122a1.53,1.53,0,0,1-.214.159,1.269,1.269,0,0,1-.3.129,1.327,1.327,0,0,1-.386.055,1.506,1.506,0,0,1-1.121-.539,1.849,1.849,0,0,1,0-2.535,1.506,1.506,0,0,1,1.121-.539,1.323,1.323,0,0,1,.582.129,1.212,1.212,0,0,1,.38.251l.11.135v-.441h.992v3.313a1.757,1.757,0,0,1-.545,1.311,1.874,1.874,0,0,1-1.366.533,2.16,2.16,0,0,1-.594-.08,2.037,2.037,0,0,1-.471-.19,2.544,2.544,0,0,1-.325-.227,1.164,1.164,0,0,1-.2-.2l-.067-.08.625-.588.11.135a1.253,1.253,0,0,0,.331.214,1.2,1.2,0,0,0,.551.129.888.888,0,0,0,.955-.955Zm-1.421-.655a.759.759,0,0,0,.576.251.8.8,0,0,0,.594-.257.9.9,0,0,0,0-1.255.808.808,0,0,0-.594-.257.76.76,0,0,0-.576.251.968.968,0,0,0,0,1.268" transform="translate(-334.378 -183.527)" fill="#4083ac"/>
            <path id="Pfad_5352" data-name="Pfad 5352" d="M429.532,171.746a.6.6,0,0,1-.429.153.539.539,0,0,1-.4-.153.612.612,0,0,1,0-.8.539.539,0,0,1,.4-.153.6.6,0,0,1,.429.153.588.588,0,0,1,0,.8m.086,4.238h-.992v-3.607h1Z" transform="translate(-402.313 -160.331)" fill="#4083ac"/>
            <path id="Pfad_5353" data-name="Pfad 5353" d="M460.892,196.1l.122-.141a1.526,1.526,0,0,1,.349-.227,1.177,1.177,0,0,1,.563-.141,1.3,1.3,0,0,1,1.011.429,1.641,1.641,0,0,1,.392,1.151v2.1h-1v-2a.735.735,0,0,0-.2-.533.674.674,0,0,0-.5-.2.686.686,0,0,0-.539.221.892.892,0,0,0-.2.625v1.874H459.9v-3.6h.992Z" transform="translate(-431.737 -183.611)" fill="#4083ac"/>
          </g>
        </g>
      </g>
    </g>
  </g>
</svg>
