<svg xmlns="http://www.w3.org/2000/svg" width="27.691" height="26.99" viewBox="0 0 27.691 26.99">
  <path id="Icon_awesome-arrow-right" data-name="Icon awesome-arrow-right" d="M11.774,4.455l1.372-1.372a1.477,1.477,0,0,1,2.1,0L27.256,15.092a1.477,1.477,0,0,1,0,2.1L15.241,29.2a1.477,1.477,0,0,1-2.1,0l-1.372-1.372a1.485,1.485,0,0,1,.025-2.12l7.447-7.1H1.483A1.48,1.48,0,0,1,0,17.131V15.153A1.48,1.48,0,0,1,1.483,13.67H19.246L11.8,6.575A1.474,1.474,0,0,1,11.774,4.455Z" transform="translate(0 -2.647)" fill="gray"/>
</svg>
