<svg xmlns="http://www.w3.org/2000/svg" xmlns:xlink="http://www.w3.org/1999/xlink" width="431" height="63" viewBox="0 0 431 63">
  <defs>
    <clipPath id="clip-path">
      <rect id="Rechteck_18061" data-name="Rechteck 18061" width="128.408" height="55.269" fill="none"/>
    </clipPath>
    <clipPath id="clip-path-3">
      <rect id="Rechteck_18074" data-name="Rechteck 18074" width="142.778" height="55.269" fill="none"/>
    </clipPath>
    <clipPath id="clip-path-5">
      <path id="Pfad_30259" data-name="Pfad 30259" d="M20.36,17.5a1.842,1.842,0,0,0-.461,1.29V39.239a1.842,1.842,0,0,0,.461,1.29h.092L31.875,29.106h0L20.453,17.5Z" transform="translate(-19.899 -17.5)" fill="none"/>
    </clipPath>
    <linearGradient id="linear-gradient" x1="-0.483" y1="1.608" x2="-0.446" y2="1.608" gradientUnits="objectBoundingBox">
      <stop offset="0" stop-color="#00a0ff"/>
      <stop offset="0.01" stop-color="#00a1ff"/>
      <stop offset="0.26" stop-color="#00beff"/>
      <stop offset="0.51" stop-color="#00d2ff"/>
      <stop offset="0.76" stop-color="#00dfff"/>
      <stop offset="1" stop-color="#00e3ff"/>
    </linearGradient>
    <clipPath id="clip-path-6">
      <path id="Pfad_30260" data-name="Pfad 30260" d="M32.9,29.569h0l3.777,4.053h.092l4.514-2.671c1.29-.737,1.29-1.934,0-2.671L36.769,25.7h-.092Z" transform="translate(-32.9 -25.7)" fill="none"/>
    </clipPath>
    <linearGradient id="linear-gradient-2" x1="-3.133" y1="4.012" x2="-3.038" y2="4.012" gradientUnits="objectBoundingBox">
      <stop offset="0" stop-color="#ffe000"/>
      <stop offset="0.41" stop-color="#ffbd00"/>
      <stop offset="0.78" stop-color="orange"/>
      <stop offset="1" stop-color="#ff9c00"/>
    </linearGradient>
    <clipPath id="clip-path-7">
      <path id="Pfad_30261" data-name="Pfad 30261" d="M20.4,41.514a1.474,1.474,0,0,0,1.934.092l13.449-7.646L31.914,30Z" transform="translate(-20.4 -30)" fill="none"/>
    </clipPath>
    <linearGradient id="linear-gradient-3" x1="-0.871" y1="1.621" x2="-0.824" y2="1.621" gradientUnits="objectBoundingBox">
      <stop offset="0" stop-color="#ff3a44"/>
      <stop offset="1" stop-color="#c31162"/>
    </linearGradient>
    <clipPath id="clip-path-8">
      <path id="Pfad_30262" data-name="Pfad 30262" d="M20.4,17.476,31.914,28.991l3.869-3.869L22.334,17.476a2.119,2.119,0,0,0-1.013-.276,1.2,1.2,0,0,0-.921.368" transform="translate(-20.4 -17.199)" fill="none"/>
    </clipPath>
    <linearGradient id="linear-gradient-4" x1="-0.876" y1="2.249" x2="-0.828" y2="2.249" gradientUnits="objectBoundingBox">
      <stop offset="0" stop-color="#32a071"/>
      <stop offset="0.07" stop-color="#2da771"/>
      <stop offset="0.48" stop-color="#15cf74"/>
      <stop offset="0.8" stop-color="#06e775"/>
      <stop offset="1" stop-color="#00f076"/>
    </linearGradient>
    <clipPath id="clip-path-9">
      <rect id="Rechteck_18070" data-name="Rechteck 18070" width="15.383" height="8.042" fill="none"/>
    </clipPath>
    <clipPath id="clip-path-10">
      <rect id="Rechteck_18071" data-name="Rechteck 18071" width="0.461" height="1.428" fill="none"/>
    </clipPath>
    <clipPath id="clip-path-11">
      <rect id="Rechteck_18072" data-name="Rechteck 18072" width="5.527" height="3.887" fill="none"/>
    </clipPath>
    <clipPath id="clip-path-12">
      <rect id="Rechteck_18073" data-name="Rechteck 18073" width="21.278" height="11.846" fill="none"/>
    </clipPath>
  </defs>
  <g id="icon_donwload-appstore" transform="translate(-114.03 -579.792)">
    <g id="Batch-AppStore" transform="translate(471.193 611.475)">
      <g id="Gruppe_14577" data-name="Gruppe 14577" transform="translate(-64.204 -27.634)" clip-path="url(#clip-path)">
        <g id="Gruppe_14575" data-name="Gruppe 14575">
          <g id="Gruppe_14574" data-name="Gruppe 14574" opacity="0">
            <g id="Gruppe_14573" data-name="Gruppe 14573" clip-path="url(#clip-path)">
              <rect id="Rechteck_18058" data-name="Rechteck 18058" width="128.408" height="55.269" fill="#fff"/>
            </g>
          </g>
        </g>
        <g id="Gruppe_14576" data-name="Gruppe 14576" transform="translate(9.211 9.211)">
          <path id="Pfad_30220" data-name="Pfad 30220" d="M111.418,10H16.909l-1.842.184a6.172,6.172,0,0,0-1.75.553,5.988,5.988,0,0,0-1.474,1.105,5.8,5.8,0,0,0-1.105,1.474,6.08,6.08,0,0,0-.553,1.75A12.067,12.067,0,0,0,10,16.909q0,.415,0,.829v22.2a11.974,11.974,0,0,0,.184,1.842,6.079,6.079,0,0,0,.553,1.75A5.711,5.711,0,0,0,11.842,45a5.8,5.8,0,0,0,1.474,1.105,6.172,6.172,0,0,0,1.75.553l1.842.184h96.352l1.842-.184a6.264,6.264,0,0,0,1.75-.553A5.8,5.8,0,0,0,118.327,45a5.9,5.9,0,0,0,1.105-1.474,6.08,6.08,0,0,0,.553-1.75,12.618,12.618,0,0,0,.184-1.842q0-.415,0-.829v-22.2a12.617,12.617,0,0,0-.184-1.842,6.079,6.079,0,0,0-.553-1.75,5.987,5.987,0,0,0-2.579-2.579,6.264,6.264,0,0,0-1.75-.553L113.261,10h-1.842" transform="translate(-10 -10)" fill="#a6a6a6"/>
          <path id="Pfad_30221" data-name="Pfad 30221" d="M17.809,46.08H16.98l-1.658-.092-1.566-.553a4.974,4.974,0,0,1-1.29-.921,4.882,4.882,0,0,1-.921-1.29,5.343,5.343,0,0,1-.461-1.566,11.514,11.514,0,0,1-.184-1.75V16.972a11.514,11.514,0,0,1,.184-1.75,5.343,5.343,0,0,1,.461-1.566,4.974,4.974,0,0,1,.921-1.29,5.158,5.158,0,0,1,1.29-.921l1.566-.461,1.75-.184h96.26l1.75.184,1.566.461a5.158,5.158,0,0,1,2.211,2.211,5.343,5.343,0,0,1,.461,1.474,12.065,12.065,0,0,1,.184,1.75V40a11.8,11.8,0,0,1-.184,1.75,5.343,5.343,0,0,1-.461,1.566,5.065,5.065,0,0,1-.921,1.29,4.974,4.974,0,0,1-1.29.921l-1.566.461-1.75.184H17.809Z" transform="translate(-10.071 -10.063)"/>
          <path id="Pfad_30222" data-name="Pfad 30222" d="M33.633,29.794a4.514,4.514,0,0,1,2.211-3.869A4.7,4.7,0,0,0,32.159,23.9c-1.566-.184-3.04.921-3.869.921s-2.027-.921-3.316-.921a4.882,4.882,0,0,0-4.145,2.487c-1.75,3.04-.461,7.646,1.29,10.133S23.961,39.1,25.25,39.1s1.75-.829,3.316-.829,1.934.829,3.316.829,2.211-1.2,3.04-2.487A10.133,10.133,0,0,0,36.3,33.754,4.422,4.422,0,0,1,33.633,29.7" transform="translate(-10.788 -11.094)" fill="#fff"/>
          <path id="Pfad_30223" data-name="Pfad 30223" d="M31.746,21.924A4.514,4.514,0,0,0,32.76,18.7a4.606,4.606,0,0,0-2.948,1.566A4.237,4.237,0,0,0,28.8,23.4a3.777,3.777,0,0,0,2.948-1.474" transform="translate(-11.481 -10.686)" fill="#fff"/>
          <path id="Pfad_30224" data-name="Pfad 30224" d="M51.685,36.39H47.356l-1.013,3.132H44.5L48.645,28.1h1.842l4.145,11.422H52.79Zm-3.961-1.382h3.5l-1.658-5.066h-.092Z" transform="translate(-12.72 -11.427)" fill="#fff"/>
          <path id="Pfad_30225" data-name="Pfad 30225" d="M64.43,35.637c0,2.579-1.382,4.237-3.5,4.237A2.856,2.856,0,0,1,58.35,38.4h0v4.145H56.6V31.492h1.658v1.382h0A2.948,2.948,0,0,1,60.929,31.4c2.119,0,3.5,1.658,3.5,4.237m-1.75,0c0-1.658-.829-2.763-2.211-2.763s-2.211,1.105-2.211,2.763.921,2.763,2.211,2.763S62.68,37.3,62.68,35.637" transform="translate(-13.675 -11.687)" fill="#fff"/>
          <path id="Pfad_30226" data-name="Pfad 30226" d="M74.43,35.637c0,2.579-1.382,4.237-3.5,4.237A2.856,2.856,0,0,1,68.35,38.4h0v4.145H66.6V31.492h1.658v1.382h0A2.948,2.948,0,0,1,70.929,31.4c2.119,0,3.5,1.658,3.5,4.237m-1.75,0c0-1.658-.829-2.763-2.211-2.763s-2.211,1.105-2.211,2.763.921,2.763,2.211,2.763S72.68,37.3,72.68,35.637" transform="translate(-14.463 -11.687)" fill="#fff"/>
          <path id="Pfad_30227" data-name="Pfad 30227" d="M81.566,36.282c.092,1.105,1.2,1.842,2.763,1.842s2.487-.737,2.487-1.75-.645-1.382-2.119-1.75l-1.474-.368c-2.119-.553-3.04-1.474-3.04-3.04s1.75-3.316,4.145-3.316,4.053,1.382,4.145,3.316h-1.75a2.133,2.133,0,0,0-2.395-1.842c-1.382,0-2.3.737-2.3,1.75s.645,1.29,2.119,1.658l1.29.276c2.3.553,3.316,1.474,3.316,3.132s-1.75,3.5-4.422,3.5S80.092,38.4,80,36.282Z" transform="translate(-15.52 -11.411)" fill="#fff"/>
          <path id="Pfad_30228" data-name="Pfad 30228" d="M93.056,29.3v1.934h1.566v1.382H93.056v4.606c0,.737.276,1.013,1.013,1.013h.553v1.382H93.7c-1.658,0-2.3-.645-2.3-2.211v-4.79H90.2V31.234h1.2V29.3Z" transform="translate(-16.324 -11.522)" fill="#fff"/>
          <path id="Pfad_30229" data-name="Pfad 30229" d="M96.1,35.637c0-2.579,1.566-4.237,3.961-4.237s3.961,1.658,3.961,4.237-1.566,4.237-3.961,4.237S96.1,38.216,96.1,35.637m6.172,0c0-1.842-.829-2.856-2.211-2.856s-2.3,1.013-2.3,2.856.829,2.856,2.211,2.856,2.211-1.013,2.211-2.856" transform="translate(-16.789 -11.687)" fill="#fff"/>
          <path id="Pfad_30230" data-name="Pfad 30230" d="M106.2,31.4h1.658v1.474h0a2.027,2.027,0,0,1,2.027-1.474h.553v1.566H109.7a1.75,1.75,0,0,0-1.75,1.658,1.836,1.836,0,0,0,0,.276v4.974H106.2Z" transform="translate(-17.586 -11.687)" fill="#fff"/>
          <path id="Pfad_30231" data-name="Pfad 30231" d="M118.753,37.287c-.184,1.474-1.658,2.579-3.592,2.579a4.115,4.115,0,0,1-3.961-4.237c0-2.579,1.474-4.329,3.869-4.329s3.777,1.566,3.777,4.145V36h-5.9a2.211,2.211,0,0,0,1.934,2.395h.276a1.842,1.842,0,0,0,1.934-1.2Zm-5.8-2.487H117.1a2.027,2.027,0,0,0-1.934-2.119h-.184a2.119,2.119,0,0,0-2.119,2.119Z" transform="translate(-17.98 -11.68)" fill="#fff"/>
          <path id="Pfad_30232" data-name="Pfad 30232" d="M47.634,18.692a2.445,2.445,0,0,1,2.579,2.671c0,1.75-.921,2.763-2.579,2.763H45.7V18.6Zm-1.105,4.7h1.013a1.842,1.842,0,0,0,1.842-2.027,1.75,1.75,0,0,0-1.474-1.934H46.529Z" transform="translate(-12.815 -10.678)" fill="#fff"/>
          <path id="Pfad_30233" data-name="Pfad 30233" d="M51.7,22.234a1.943,1.943,0,1,1,0,.368,2.029,2.029,0,0,1,0-.368m3.04,0q0-1.382-1.105-1.382c-.737,0-1.105.553-1.105,1.382s.368,1.474,1.105,1.474,1.105-.553,1.105-1.474" transform="translate(-13.287 -10.812)" fill="#fff"/>
          <path id="Pfad_30234" data-name="Pfad 30234" d="M61.206,24.345h-.921l-.829-3.04h-.092l-.829,3.04h-.829L56.6,20.2h.829l.737,3.132h0l.921-3.132h.737l.829,3.132h.092l.737-3.132h.829Z" transform="translate(-13.675 -10.804)" fill="#fff"/>
          <path id="Pfad_30235" data-name="Pfad 30235" d="M63.8,20.192h.829v.645h.092a1.2,1.2,0,0,1,1.2-.737,1.382,1.382,0,0,1,1.474,1.566v2.671h-.829V21.85c0-.645-.276-1.013-.921-1.013a.921.921,0,0,0-1.013,1.013v2.395H63.8Z" transform="translate(-14.242 -10.796)" fill="#fff"/>
          <rect id="Rechteck_18060" data-name="Rechteck 18060" width="0.829" height="5.766" transform="translate(54.44 7.738)" fill="#fff"/>
          <path id="Pfad_30236" data-name="Pfad 30236" d="M71.2,22.234a1.943,1.943,0,1,1,0,.368,2.024,2.024,0,0,1,0-.368m3.04,0q0-1.382-1.105-1.382c-.737,0-1.105.553-1.105,1.382s.368,1.474,1.105,1.474,1.105-.553,1.105-1.474" transform="translate(-14.825 -10.812)" fill="#fff"/>
          <path id="Pfad_30237" data-name="Pfad 30237" d="M76.392,23.148c0-.737.553-1.2,1.566-1.2h1.105v-.368c0-.461-.276-.645-.829-.645s-.737.184-.829.461h-.829a1.714,1.714,0,0,1,3.316.184v2.856h-.829v-.553h-.092a1.382,1.382,0,0,1-1.29.645A1.29,1.29,0,0,1,76.3,23.424h0m2.671-.368v-.368H78.05c-.553,0-.829.276-.829.553s.368.553.737.553a1.013,1.013,0,0,0,1.105-.829Z" transform="translate(-15.228 -10.804)" fill="#fff"/>
          <path id="Pfad_30238" data-name="Pfad 30238" d="M81.3,22.085c0-1.29.645-2.119,1.75-2.119a1.382,1.382,0,0,1,1.29.737h.092V18.4h.829v5.8h-.829v-.645H84.34a1.474,1.474,0,0,1-1.29.737c-1.013,0-1.75-.829-1.75-2.119m.829,0q0,1.382,1.105,1.382c.737,0,1.105-.553,1.105-1.382s-.461-1.382-1.105-1.382-1.105.553-1.105,1.382" transform="translate(-15.622 -10.662)" fill="#fff"/>
          <path id="Pfad_30239" data-name="Pfad 30239" d="M89.2,22.234a1.943,1.943,0,1,1,0,.368,2.024,2.024,0,0,1,0-.368m3.04,0q0-1.382-1.105-1.382c-.737,0-1.105.553-1.105,1.382s.368,1.474,1.105,1.474,1.105-.553,1.105-1.474" transform="translate(-16.244 -10.812)" fill="#fff"/>
          <path id="Pfad_30240" data-name="Pfad 30240" d="M94.7,20.192h.829v.645h.092a1.2,1.2,0,0,1,1.2-.737,1.382,1.382,0,0,1,1.474,1.566v2.671h-.829V21.85c0-.645-.276-1.013-.921-1.013a.921.921,0,0,0-1.013.921,1.109,1.109,0,0,0,0,.184v2.395H94.7Z" transform="translate(-16.679 -10.796)" fill="#fff"/>
          <path id="Pfad_30241" data-name="Pfad 30241" d="M103.374,19.1v1.013h.921v.737h-.921v2.119c0,.461.184.645.553.645h.276v.645h-.368c-.921,0-1.29-.276-1.29-1.105v-2.3H101.9v-.645h.645V19.1Z" transform="translate(-17.247 -10.718)" fill="#fff"/>
          <path id="Pfad_30242" data-name="Pfad 30242" d="M105.7,18.4h.829v2.3h.092a1.29,1.29,0,0,1,1.29-.737,1.382,1.382,0,0,1,1.474,1.29,1.293,1.293,0,0,1,0,.276V24.2h-.829V21.716c0-.645-.276-1.013-.921-1.013a1.013,1.013,0,0,0-1.013,1.105V24.2h-.829Z" transform="translate(-17.546 -10.662)" fill="#fff"/>
          <path id="Pfad_30243" data-name="Pfad 30243" d="M114.475,23.24a1.658,1.658,0,0,1-1.842,1.2,1.842,1.842,0,0,1-1.934-2.119,1.934,1.934,0,0,1,1.658-2.119h.276c1.2,0,1.842.829,1.842,2.119v.276h-2.948a1.105,1.105,0,0,0,1.013,1.2h.092a1.013,1.013,0,0,0,1.013-.461Zm-2.948-1.382h2.119a1.013,1.013,0,0,0-.921-1.105h-.092a1.105,1.105,0,0,0-1.105,1.013Z" transform="translate(-17.939 -10.804)" fill="#fff"/>
        </g>
      </g>
    </g>
    <g id="Batch-PlayStore" transform="translate(335.6 611.475)">
      <g id="Gruppe_14594" data-name="Gruppe 14594" transform="translate(-71.389 -27.634)" clip-path="url(#clip-path-3)">
        <g id="Gruppe_14580" data-name="Gruppe 14580">
          <g id="Gruppe_14579" data-name="Gruppe 14579" opacity="0">
            <g id="Gruppe_14578" data-name="Gruppe 14578" clip-path="url(#clip-path-3)">
              <rect id="Rechteck_18062" data-name="Rechteck 18062" width="142.778" height="55.269" fill="#fff"/>
            </g>
          </g>
          <path id="Pfad_30244" data-name="Pfad 30244" d="M129.749,46.846H14.606A4.606,4.606,0,0,1,10,42.24V14.606A4.606,4.606,0,0,1,14.606,10H129.749a4.606,4.606,0,0,1,4.606,4.606V42.24a4.606,4.606,0,0,1-4.606,4.606" transform="translate(-0.789 -0.789)"/>
          <path id="Pfad_30245" data-name="Pfad 30245" d="M129.749,10.737a3.869,3.869,0,0,1,3.869,3.869V42.24a3.869,3.869,0,0,1-3.869,3.869H14.606a3.869,3.869,0,0,1-3.869-3.869V14.606a3.869,3.869,0,0,1,3.869-3.869H129.749m0-.737H14.606A4.606,4.606,0,0,0,10,14.606V42.24a4.606,4.606,0,0,0,4.606,4.606H129.749a4.606,4.606,0,0,0,4.606-4.606V14.606A4.606,4.606,0,0,0,129.749,10" transform="translate(-0.789 -0.789)" fill="#a6a6a6"/>
          <path id="Pfad_30246" data-name="Pfad 30246" d="M56.929,19.932a2.487,2.487,0,0,1-.645,1.842,2.671,2.671,0,0,1-2.027.829,2.948,2.948,0,0,1-2.027-4.974,2.763,2.763,0,0,1,2.027-.829l1.105.276a2.3,2.3,0,0,1,.829.645l-.461.461a1.842,1.842,0,0,0-1.474-.645,2.119,2.119,0,0,0-2.211,2.211,2.211,2.211,0,0,0,3.685,1.566,1.75,1.75,0,0,0,.461-1.105H54.257v-.645h2.671a2.4,2.4,0,0,1,0,.461" transform="translate(-4.055 -1.325)" fill="#fff"/>
          <path id="Pfad_30247" data-name="Pfad 30247" d="M56.929,19.932a2.487,2.487,0,0,1-.645,1.842,2.671,2.671,0,0,1-2.027.829,2.948,2.948,0,0,1-2.027-4.974,2.763,2.763,0,0,1,2.027-.829l1.105.276a2.3,2.3,0,0,1,.829.645l-.461.461a1.842,1.842,0,0,0-1.474-.645,2.119,2.119,0,0,0-2.211,2.211,2.211,2.211,0,0,0,3.685,1.566,1.75,1.75,0,0,0,.461-1.105H54.257v-.645h2.671A2.4,2.4,0,0,1,56.929,19.932Z" transform="translate(-4.055 -1.325)" fill="none" stroke="#fff" stroke-miterlimit="10" stroke-width="0.184"/>
          <path id="Pfad_30248" data-name="Pfad 30248" d="M61.724,17.645H59.237v1.75h2.3v.737h-2.3v1.75h2.487v.645H58.5V17h3.224Z" transform="translate(-4.613 -1.341)" fill="#fff"/>
          <path id="Pfad_30249" data-name="Pfad 30249" d="M61.724,17.645H59.237v1.75h2.3v.737h-2.3v1.75h2.487v.645H58.5V17h3.224Z" transform="translate(-4.613 -1.341)" fill="none" stroke="#fff" stroke-miterlimit="10" stroke-width="0.184"/>
          <path id="Pfad_30250" data-name="Pfad 30250" d="M65.1,22.527h-.737V17.645H62.8V17h3.869v.645H65.1Z" transform="translate(-4.952 -1.341)" fill="#fff"/>
          <path id="Pfad_30251" data-name="Pfad 30251" d="M65.1,22.527h-.737V17.645H62.8V17h3.869v.645H65.1Z" transform="translate(-4.952 -1.341)" fill="none" stroke="#fff" stroke-miterlimit="10" stroke-width="0.184"/>
          <rect id="Rechteck_18064" data-name="Rechteck 18064" width="0.737" height="5.527" transform="translate(64.388 15.659)" fill="#fff"/>
          <rect id="Rechteck_18065" data-name="Rechteck 18065" width="0.737" height="5.527" transform="translate(64.388 15.659)" fill="none" stroke="#fff" stroke-miterlimit="10" stroke-width="0.184"/>
          <path id="Pfad_30252" data-name="Pfad 30252" d="M73.911,22.527h-.645V17.645H71.7V17h3.777v.645H73.911Z" transform="translate(-5.654 -1.341)" fill="#fff"/>
          <path id="Pfad_30253" data-name="Pfad 30253" d="M73.911,22.527h-.645V17.645H71.7V17h3.777v.645H73.911Z" transform="translate(-5.654 -1.341)" fill="none" stroke="#fff" stroke-miterlimit="10" stroke-width="0.184"/>
          <path id="Pfad_30254" data-name="Pfad 30254" d="M83.184,21.781a2.856,2.856,0,0,1-4.053,0,2.948,2.948,0,0,1,0-4.053,2.856,2.856,0,0,1,4.053,0,2.948,2.948,0,0,1,0,4.053m-3.5-.461a2.119,2.119,0,0,0,3.04,0,2.4,2.4,0,0,0,0-3.132,2.119,2.119,0,0,0-3.04,0,2.4,2.4,0,0,0,0,3.132" transform="translate(-6.176 -1.331)" fill="#fff"/>
          <path id="Pfad_30255" data-name="Pfad 30255" d="M83.184,21.781a2.856,2.856,0,0,1-4.053,0,2.948,2.948,0,0,1,0-4.053,2.856,2.856,0,0,1,4.053,0A2.948,2.948,0,0,1,83.184,21.781Zm-3.5-.461a2.119,2.119,0,0,0,3.04,0,2.4,2.4,0,0,0,0-3.132,2.119,2.119,0,0,0-3.04,0A2.4,2.4,0,0,0,79.684,21.32Z" transform="translate(-6.176 -1.331)" fill="none" stroke="#fff" stroke-miterlimit="10" stroke-width="0.184"/>
          <path id="Pfad_30256" data-name="Pfad 30256" d="M85.6,22.527V17h.829L89.1,21.329h.092L89.1,20.224V17h.737v5.527H89.1l-2.856-4.514h0v4.514Z" transform="translate(-6.75 -1.341)" fill="#fff"/>
          <path id="Pfad_30257" data-name="Pfad 30257" d="M85.6,22.527V17h.829L89.1,21.329h.092L89.1,20.224V17h.737v5.527H89.1l-2.856-4.514h0v4.514Z" transform="translate(-6.75 -1.341)" fill="none" stroke="#fff" stroke-miterlimit="10" stroke-width="0.184"/>
          <path id="Pfad_30258" data-name="Pfad 30258" d="M75.971,31.421a3.961,3.961,0,1,0,3.961,3.869,3.869,3.869,0,0,0-3.961-3.961m0,6.264a2.395,2.395,0,1,1,2.211-2.3,2.3,2.3,0,0,1-2.211,2.395M67.4,31.421a3.961,3.961,0,1,0,3.961,3.869A3.869,3.869,0,0,0,67.4,31.329m0,6.264a2.395,2.395,0,1,1,2.211-2.3A2.3,2.3,0,0,1,67.4,37.685M57.18,32.619v1.658H61.14a3.5,3.5,0,0,1-.921,2.119,4.053,4.053,0,0,1-3.04,1.2,4.422,4.422,0,0,1,0-8.843,4.237,4.237,0,0,1,3.04,1.105l1.2-1.2A5.8,5.8,0,0,0,57.18,27a6.08,6.08,0,0,0,0,12.159,5.5,5.5,0,0,0,5.711-5.619,5.342,5.342,0,0,0-.092-1.013Zm41.728,1.29a3.6,3.6,0,0,0-7,1.474A3.861,3.861,0,0,0,99,37.593l-1.382-.921a2.211,2.211,0,0,1-1.934,1.105,2.027,2.027,0,0,1-1.934-1.2L99,34.369ZM93.565,35.2a2.119,2.119,0,0,1,2.027-2.3,1.474,1.474,0,0,1,1.474.829Zm-4.237,3.777h1.75V27.46h-1.75ZM86.472,32.25H86.38a2.671,2.671,0,0,0-2.027-.921,3.961,3.961,0,0,0,0,7.83,2.671,2.671,0,0,0,2.027-.921h.092v.553a2.039,2.039,0,0,1-2.119,2.3,2.211,2.211,0,0,1-1.934-1.382l-1.474.645a3.777,3.777,0,0,0,3.5,2.3c2.027,0,3.685-1.2,3.685-4.053v-7H86.564Zm-1.934,5.435a2.395,2.395,0,1,1,0-4.79,2.211,2.211,0,0,1,2.119,2.395,2.211,2.211,0,0,1-2.119,2.395M107.014,27.46h-4.145V38.975h1.75V34.645h2.395a3.592,3.592,0,1,0,0-7.185m0,5.527h-2.487V29.026h2.487a1.98,1.98,0,1,1,0,3.961m10.593-1.658a3.224,3.224,0,0,0-3.04,1.75l1.566.645a1.834,1.834,0,0,1,3.408.645h0a3.777,3.777,0,0,0-1.75-.461c-1.658,0-3.316.921-3.316,2.579a2.671,2.671,0,0,0,2.856,2.579,2.4,2.4,0,0,0,2.211-1.105h.092v.921h1.658V34.553a3.22,3.22,0,0,0-3.5-3.224m-.184,6.356c-.553,0-1.382-.276-1.382-1.013s1.013-1.2,1.842-1.2a3.04,3.04,0,0,1,1.566.368,2.119,2.119,0,0,1-2.027,1.842m9.58-6.08-1.934,4.974h-.092l-2.027-4.974h-1.842l3.04,7-1.75,3.869h1.75l4.79-10.87Zm-15.475,7.369h1.75V27.46h-1.75Z" transform="translate(-4.029 -2.129)" fill="#fff"/>
        </g>
        <g id="Gruppe_14581" data-name="Gruppe 14581" transform="translate(18.33 16.12)" clip-path="url(#clip-path-5)">
          <rect id="Rechteck_18066" data-name="Rechteck 18066" width="24.779" height="24.751" transform="translate(-11.485 11.556) rotate(-45)" fill="url(#linear-gradient)"/>
        </g>
        <g id="Gruppe_14582" data-name="Gruppe 14582" transform="translate(30.306 23.673)" clip-path="url(#clip-path-6)">
          <rect id="Rechteck_18067" data-name="Rechteck 18067" width="9.672" height="7.876" fill="url(#linear-gradient-2)"/>
        </g>
        <g id="Gruppe_14583" data-name="Gruppe 14583" transform="translate(18.791 27.634)" clip-path="url(#clip-path-7)">
          <rect id="Rechteck_18068" data-name="Rechteck 18068" width="19.344" height="19.344" transform="translate(-5.964 5.937) rotate(-45)" fill="url(#linear-gradient-3)"/>
        </g>
        <g id="Gruppe_14584" data-name="Gruppe 14584" transform="translate(18.791 15.842)" clip-path="url(#clip-path-8)">
          <rect id="Rechteck_18069" data-name="Rechteck 18069" width="19.252" height="19.243" transform="translate(-5.892 5.918) rotate(-45)" fill="url(#linear-gradient-4)"/>
        </g>
        <g id="Gruppe_14593" data-name="Gruppe 14593" transform="translate(18.423 15.752)">
          <g id="Gruppe_14586" data-name="Gruppe 14586" transform="translate(0.368 15.659)" opacity="0.2">
            <g id="Gruppe_14585" data-name="Gruppe 14585" clip-path="url(#clip-path-9)">
              <path id="Pfad_30263" data-name="Pfad 30263" d="M35.7,34.1,22.342,41.746a1.566,1.566,0,0,1-1.842,0h0a1.566,1.566,0,0,0,1.842,0L35.791,34.1Z" transform="translate(-20.408 -34.1)"/>
            </g>
          </g>
          <g id="Gruppe_14588" data-name="Gruppe 14588" transform="translate(0 21.923)" opacity="0.12">
            <g id="Gruppe_14587" data-name="Gruppe 14587" clip-path="url(#clip-path-10)">
              <path id="Pfad_30264" data-name="Pfad 30264" d="M20.36,42.19A1.842,1.842,0,0,1,19.9,40.9h0a1.842,1.842,0,0,0,.461,1.29Z" transform="translate(-19.992 -40.9)"/>
            </g>
          </g>
          <g id="Gruppe_14590" data-name="Gruppe 14590" transform="translate(15.66 11.883)" opacity="0.12">
            <g id="Gruppe_14589" data-name="Gruppe 14589" clip-path="url(#clip-path-11)">
              <path id="Pfad_30265" data-name="Pfad 30265" d="M41.606,31.2,37,33.777h.092l4.514-2.487A1.658,1.658,0,0,0,42.527,30a1.75,1.75,0,0,1-.921,1.2" transform="translate(-37 -30)"/>
            </g>
          </g>
          <g id="Gruppe_14592" data-name="Gruppe 14592" opacity="0.25">
            <g id="Gruppe_14591" data-name="Gruppe 14591" clip-path="url(#clip-path-12)">
              <path id="Pfad_30266" data-name="Pfad 30266" d="M22.3,17.566,40.265,27.791a1.75,1.75,0,0,1,.921,1.2,1.658,1.658,0,0,0-.921-1.29L22.3,17.474c-1.29-.737-2.3-.092-2.3,1.382h0c0-1.474,1.013-2.119,2.3-1.382" transform="translate(-20 -17.105)" fill="#fff"/>
            </g>
          </g>
        </g>
      </g>
    </g>
    <g id="App_Icon" data-name="App Icon" transform="translate(146.715 594.071)">
      <path id="Pfad_3596" data-name="Pfad 3596" d="M7.943,0H28.716a7.972,7.972,0,0,1,7.943,8V28.926a7.972,7.972,0,0,1-7.943,8H7.943a7.972,7.972,0,0,1-7.943-8V8A7.972,7.972,0,0,1,7.943,0Z" fill="#234e77"/>
      <g id="Gruppe_2669" data-name="Gruppe 2669" transform="translate(9.614 8.584)">
        <g id="Gruppe_2637" data-name="Gruppe 2637" transform="translate(0 0)">
          <g id="Komponente_35_78" data-name="Komponente 35 – 78" transform="translate(0)">
            <path id="Pfad_3244" data-name="Pfad 3244" d="M13.42-791.632l-7.953,4.575,2.486,1.43a1.712,1.712,0,0,0,1.707,0l3.76-2.163Zm3.339-9.192-3.844-2.211-3.339,1.921,8.036,4.623v-2.86a1.7,1.7,0,0,0-.853-1.473Zm-13.419,7.67v-9.1l-2.486,1.43A1.7,1.7,0,0,0,0-799.351v4.21Z" transform="translate(0 805.087)" fill="#fff" fill-rule="evenodd"/>
            <path id="Pfad_3243" data-name="Pfad 3243" d="M.853-792.574l3.76,2.163,3.294-1.895-4.556-2.712H3.339v-.007L0-797.013v2.966a1.7,1.7,0,0,0,.853,1.473Zm3.339-9.289,7.869-4.527-2.4-1.382a1.712,1.712,0,0,0-1.707,0l-3.76,2.163Zm13.419,3.49v4.327a1.7,1.7,0,0,1-.853,1.473l-2.486,1.43v-9.15Z" transform="translate(0 808)" fill="#fff" fill-rule="evenodd"/>
          </g>
        </g>
      </g>
      <g id="Gruppe_2670" data-name="Gruppe 2670" transform="translate(4.493 4.493)">
        <path id="Vereinigungsmenge_4" data-name="Vereinigungsmenge 4" d="M20.846,27.924a.712.712,0,0,1,0-1.423h3.433a1.881,1.881,0,0,0,1.869-1.888V21.146a.7.7,0,1,1,1.409,0v3.467a3.3,3.3,0,0,1-3.278,3.311Zm-17.659,0A3.292,3.292,0,0,1,0,25.391V20.8a.7.7,0,0,1,1.317.35v3.467A1.881,1.881,0,0,0,3.187,26.5H6.62a.708.708,0,0,1,.7.7v.029a.707.707,0,0,1-.7.7ZM26.839,7.489a.709.709,0,0,1-.691-.712V3.31a1.88,1.88,0,0,0-1.869-1.887H20.846A.712.712,0,0,1,20.832,0H24.31a3.3,3.3,0,0,1,3.247,3.31V6.778a.709.709,0,0,1-.691.712ZM.6,7.489A.7.7,0,0,1,0,7.129v-4.6A3.292,3.292,0,0,1,3.155,0H6.634a.708.708,0,0,1,.69.7V.726a.708.708,0,0,1-.7.7H3.187a1.881,1.881,0,0,0-1.87,1.888V6.778a.708.708,0,0,1-.69.712Z" transform="translate(0)" fill="#ffd858"/>
      </g>
    </g>
    <path id="Icon_awesome-arrow-right" data-name="Icon awesome-arrow-right" d="M11.774,4.455l1.372-1.372a1.477,1.477,0,0,1,2.1,0L27.256,15.092a1.477,1.477,0,0,1,0,2.1L15.241,29.2a1.477,1.477,0,0,1-2.1,0l-1.372-1.372a1.485,1.485,0,0,1,.025-2.12l7.447-7.1H1.483A1.48,1.48,0,0,1,0,17.131V15.153A1.48,1.48,0,0,1,1.483,13.67H19.246L11.8,6.575A1.474,1.474,0,0,1,11.774,4.455Z" transform="translate(211.52 596.392)" fill="gray"/>
    <path id="Rechteck_18078" data-name="Rechteck 18078" d="M2,2V61H429V2H2M0,0H431V63H0Z" transform="translate(114.03 579.792)" fill="#fff"/>
  </g>
</svg>
