<svg xmlns="http://www.w3.org/2000/svg" xmlns:xlink="http://www.w3.org/1999/xlink" width="253.141" height="50" viewBox="0 0 253.141 50">
  <defs>
    <clipPath id="clip-path">
      <rect id="Rechteck_225" data-name="Rechteck 225" width="253.141" height="50" fill="#fff"/>
    </clipPath>
  </defs>
  <g id="Instalogin-horiz_Blue-Grey" transform="translate(126.57 25)">
    <g id="Instalogin-horiz_Blue-Grey-2" data-name="Instalogin-horiz_Blue-Grey" transform="translate(-126.57 -25)">
      <g id="Gruppe_2892" data-name="Gruppe 2892">
        <g id="Gruppe_2891" data-name="Gruppe 2891" clip-path="url(#clip-path)">
          <g id="Gruppe_2890" data-name="Gruppe 2890">
            <g id="Gruppe_2889" data-name="Gruppe 2889" clip-path="url(#clip-path)">
              <path id="Pfad_3539" data-name="Pfad 3539" d="M44.455,24.386v10.96a4.308,4.308,0,0,1-2.154,3.73L36.027,42.7V19.52ZM8.429,30.355V7.3L2.154,10.923A4.308,4.308,0,0,0,0,14.654V25.319ZM42.3,10.923l-9.7-5.6-8.428,4.866L44.455,21.9V14.654A4.308,4.308,0,0,0,42.3,10.923M10.583,15.546,30.446,4.078,24.381.577a4.309,4.309,0,0,0-4.308,0L10.583,6.057ZM33.872,34.21,13.8,45.8l6.275,3.623a4.307,4.307,0,0,0,4.308,0l9.491-5.479ZM2.154,39.077l9.49,5.479,8.314-4.8-11.5-6.87H8.429v-.017L0,27.833v7.514a4.308,4.308,0,0,0,2.154,3.73" transform="translate(0 0)" fill="#fff"/>
              <path id="Pfad_3540" data-name="Pfad 3540" d="M162.428,25.033a3.493,3.493,0,0,1-2.516.881,3.139,3.139,0,0,1-2.338-.881,3.182,3.182,0,0,1-.87-2.338,3.028,3.028,0,0,1,3.208-3.218,3.491,3.491,0,0,1,2.516.881,3.079,3.079,0,0,1,.923,2.338,3.08,3.08,0,0,1-.923,2.338m.5,24.72h-5.808V28.7h5.808Z" transform="translate(-99.326 -12.345)" fill="#fff"/>
              <path id="Pfad_3541" data-name="Pfad 3541" d="M193.115,46.526a10.563,10.563,0,0,1,.713-.828,8.843,8.843,0,0,1,2.024-1.331,6.84,6.84,0,0,1,3.281-.839,7.6,7.6,0,0,1,5.881,2.495,9.606,9.606,0,0,1,2.275,6.731V65H201.5V53.4a4.3,4.3,0,0,0-1.142-3.114,3.913,3.913,0,0,0-2.946-1.185,4.013,4.013,0,0,0-3.134,1.289,5.277,5.277,0,0,0-1.164,3.659V65h-5.787V43.948h5.787Z" transform="translate(-118.737 -27.59)" fill="#fff"/>
              <path id="Pfad_3542" data-name="Pfad 3542" d="M263.5,50.174a5.426,5.426,0,0,0-.409-.461,5.132,5.132,0,0,0-1.185-.765,3.94,3.94,0,0,0-1.845-.472,3.1,3.1,0,0,0-1.887.514,1.467,1.467,0,0,0-.692,1.185,1.582,1.582,0,0,0,.986,1.363,12.442,12.442,0,0,0,2.4.975q1.415.429,2.862,1.027a5.7,5.7,0,0,1,2.432,1.929,5.4,5.4,0,0,1,.986,3.3,5.986,5.986,0,0,1-2.233,4.738,9.138,9.138,0,0,1-6.133,1.908,12.452,12.452,0,0,1-3.187-.4,9.542,9.542,0,0,1-2.453-.964,15.535,15.535,0,0,1-1.646-1.122A7.133,7.133,0,0,1,250.481,62l-.293-.44,3.229-3.208a5.229,5.229,0,0,0,.535.64,7.278,7.278,0,0,0,1.541,1.048,4.9,4.9,0,0,0,2.432.661,3.412,3.412,0,0,0,2.086-.535,1.623,1.623,0,0,0-.283-2.83,11.072,11.072,0,0,0-2.432-1.006,26.166,26.166,0,0,1-2.862-1.038,5.977,5.977,0,0,1-2.4-1.887,5.135,5.135,0,0,1-.986-3.229,6.017,6.017,0,0,1,2.359-4.592,8.515,8.515,0,0,1,5.8-2.054,9.75,9.75,0,0,1,4.015.818,7.945,7.945,0,0,1,2.548,1.594l.733.818Z" transform="translate(-158.581 -27.59)" fill="#fff"/>
              <path id="Pfad_3543" data-name="Pfad 3543" d="M305.608,27.723h5.158V34.37h4.277v5.158h-4.277v8.365a2.236,2.236,0,0,0,.723,1.678,2.547,2.547,0,0,0,1.834.692,5.182,5.182,0,0,0,1.1-.115,4.087,4.087,0,0,0,.807-.241l.252-.084V54.77a10.615,10.615,0,0,1-3.879.629q-6.647,0-6.646-7.3V39.527H301.31V34.37h1.929a2.167,2.167,0,0,0,1.677-.776,2.909,2.909,0,0,0,.692-2.013Z" transform="translate(-190.984 -17.572)" fill="#fff"/>
              <path id="Pfad_3544" data-name="Pfad 3544" d="M360.948,62.859q-.252.293-.7.724a8.319,8.319,0,0,1-1.961,1.132,7.973,7.973,0,0,1-8.261-1.049,5.474,5.474,0,0,1-1.971-4.246,5.95,5.95,0,0,1,1.656-4.3,8.144,8.144,0,0,1,4.571-2.243l6.667-1.2a2.73,2.73,0,0,0-.965-2.16,3.957,3.957,0,0,0-2.684-.838,6.2,6.2,0,0,0-2.6.535,4.788,4.788,0,0,0-1.656,1.1l-.483.5-3.208-3.208q.125-.168.346-.451a9.788,9.788,0,0,1,.985-.975,10.377,10.377,0,0,1,1.667-1.227,11.109,11.109,0,0,1,2.369-.985,10.151,10.151,0,0,1,3-.451,9.074,9.074,0,0,1,6.5,2.38,7.891,7.891,0,0,1,2.516,5.986V65h-5.787Zm-1.164-3.407a4.892,4.892,0,0,0,1.164-3.47v-.65l-4.718.86q-2.37.378-2.37,2.369,0,2.139,2.789,2.139a4.081,4.081,0,0,0,3.135-1.247" transform="translate(-220.612 -27.59)" fill="#fff"/>
              <rect id="Rechteck_223" data-name="Rechteck 223" width="5.808" height="30.066" transform="translate(150.376 7.341)" fill="#fff"/>
              <path id="Pfad_3545" data-name="Pfad 3545" d="M454.959,62.136a11,11,0,0,1-15.673,0,10.476,10.476,0,0,1,0-15.327,11,11,0,0,1,15.673,0,10.5,10.5,0,0,1,0,15.327M443.5,58.446a4.9,4.9,0,0,0,7.255,0,5.907,5.907,0,0,0,0-7.936,4.882,4.882,0,0,0-7.255,0,5.908,5.908,0,0,0,0,7.936" transform="translate(-276.328 -27.59)" fill="#fff"/>
              <path id="Pfad_3546" data-name="Pfad 3546" d="M519.949,61.559a3.086,3.086,0,0,1-.262.325q-.179.2-.755.713a8.922,8.922,0,0,1-1.237.923,7.392,7.392,0,0,1-1.74.734,7.7,7.7,0,0,1-2.233.325,8.777,8.777,0,0,1-6.531-3.135,10.8,10.8,0,0,1,0-14.781,8.777,8.777,0,0,1,6.531-3.135,7.7,7.7,0,0,1,3.375.755,7.058,7.058,0,0,1,2.2,1.468l.65.776V43.947h5.787V63.279a10.242,10.242,0,0,1-3.177,7.642,10.974,10.974,0,0,1-7.978,3.093,12.571,12.571,0,0,1-3.46-.472,11.912,11.912,0,0,1-2.746-1.111,14.915,14.915,0,0,1-1.908-1.31,6.78,6.78,0,0,1-1.153-1.133l-.4-.482,3.648-3.439a9.981,9.981,0,0,0,.64.776,7.328,7.328,0,0,0,1.939,1.247,7.042,7.042,0,0,0,3.229.765,5.176,5.176,0,0,0,5.577-5.577Zm-8.292-3.816a4.421,4.421,0,0,0,3.355,1.468,4.69,4.69,0,0,0,3.459-1.51,5.254,5.254,0,0,0,0-7.307,4.706,4.706,0,0,0-3.459-1.5,4.435,4.435,0,0,0-3.355,1.457,5.659,5.659,0,0,0,0,7.391" transform="translate(-319.628 -27.59)" fill="#fff"/>
              <path id="Pfad_3547" data-name="Pfad 3547" d="M580.43,25.033a3.492,3.492,0,0,1-2.516.881,3.138,3.138,0,0,1-2.338-.881,3.18,3.18,0,0,1-.87-2.338,3.029,3.029,0,0,1,3.208-3.218,3.491,3.491,0,0,1,2.516.881,3.08,3.08,0,0,1,.923,2.338,3.081,3.081,0,0,1-.923,2.338m.5,24.72h-5.808V28.7h5.808Z" transform="translate(-364.276 -12.345)" fill="#fff"/>
              <path id="Pfad_3548" data-name="Pfad 3548" d="M611.116,46.526a10.474,10.474,0,0,1,.712-.828,8.847,8.847,0,0,1,2.024-1.331,6.841,6.841,0,0,1,3.281-.839,7.6,7.6,0,0,1,5.881,2.495,9.606,9.606,0,0,1,2.275,6.731V65H619.5V53.4a4.3,4.3,0,0,0-1.143-3.114,3.913,3.913,0,0,0-2.946-1.185,4.013,4.013,0,0,0-3.134,1.289,5.277,5.277,0,0,0-1.164,3.659V65h-5.787V43.948h5.787Z" transform="translate(-383.686 -27.59)" fill="#fff"/>
            </g>
          </g>
        </g>
      </g>
    </g>
  </g>
</svg>
