<svg xmlns="http://www.w3.org/2000/svg" width="95.704" height="100" viewBox="0 0 95.704 100">
  <g id="man" transform="translate(-10.998 0)">
    <path id="Pfad_31925" data-name="Pfad 31925" d="M100.673,92.17A46.516,46.516,0,0,0,106.7,69.215C106.7,43.137,85.278,22,58.85,22S11,43.137,11,69.215A46.516,46.516,0,0,0,17.027,92.17Z" transform="translate(0 -17.756)" fill="#ff4155"/>
    <path id="Pfad_31926" data-name="Pfad 31926" d="M188.433,278.668h0c-.114-.032-.23-.061-.345-.092l-.114-.031h0c-.388-.1-.778-.2-1.173-.292-1.957-1.957-2.453-5.666-2.542-8.261a21.594,21.594,0,0,1-3.117,2.979,11.421,11.421,0,0,1-13.985,0,21.6,21.6,0,0,1-3.117-2.979c-.089,2.6-.585,6.3-2.542,8.261-.4.092-.8.193-1.189.3h0l-.109.03c-.116.031-.234.061-.35.092l0,0a42.674,42.674,0,0,0-5.243,1.811v4.6a25.521,25.521,0,0,0,9.839,8.054,8.873,8.873,0,0,0,3.457.691h3.408l.834.289h4.007l.834-.289H180.4a8.876,8.876,0,0,0,3.457-.691,25.517,25.517,0,0,0,9.785-7.981V280.46A42.8,42.8,0,0,0,188.433,278.668Z" transform="translate(-115.301 -217.032)" fill="#ffaa7b"/>
    <path id="Pfad_31927" data-name="Pfad 31927" d="M180.406,272.971a21.606,21.606,0,0,1-3.117-2.979c-.089,2.6-.585,6.3-2.542,8.261-.4.092-.8.193-1.189.3h0l-.109.03c-.116.031-.234.061-.35.092l0,0c-.7.193-1.4.407-2.081.634,1.91,4.561,5.92,12.416,10.163,10.241,5.888-3.02,6.216-14.185,6.216-14.185a11.4,11.4,0,0,1-6.992-2.391Z" transform="translate(-128.681 -217.082)" fill="#fc9460"/>
    <path id="Pfad_31928" data-name="Pfad 31928" d="M218.659,363.085a25.227,25.227,0,0,1-7.236,4.625,8.873,8.873,0,0,1-3.457.691h-3.408l-.834.289h-4.007l-.834-.289h-3.408a8.878,8.878,0,0,1-3.457-.691c-.388-.163-.824-.36-1.293-.589v14.344a7.492,7.492,0,0,0-.969,8.788,47.286,47.286,0,0,0,42.125-9.357v-.7C231.882,373.018,223.277,366.218,218.659,363.085Z" transform="translate(-142.659 -291.785)" fill="#ffc839"/>
    <path id="Pfad_31929" data-name="Pfad 31929" d="M119.133,381.515V367.356a25.06,25.06,0,0,1-6.315-4.209c-4.608,3.125-13.218,9.922-13.218,17.1v.717a47.076,47.076,0,0,0,18.626,9.457A7.5,7.5,0,0,1,119.133,381.515Z" transform="translate(-71.237 -291.835)" fill="#ffb332"/>
    <path id="Pfad_31930" data-name="Pfad 31930" d="M366.558,339.269c-.041-.08-.082-.16-.123-.239a13.261,13.261,0,0,0-7.222-6.22l-13.073-4.721a2.011,2.011,0,0,1-.061,1.995,21.054,21.054,0,0,1-4.25,5.107c4.318,2.878,13.063,9.582,13.063,16.671V353.1A47.433,47.433,0,0,0,366.558,339.269Z" transform="translate(-265.805 -263.534)" fill="#ffdd40"/>
    <path id="Pfad_31931" data-name="Pfad 31931" d="M62.344,330.085a2.012,2.012,0,0,1-.061-1.995L49.21,332.811a13.262,13.262,0,0,0-7.221,6.22c-.042.079-.082.159-.123.239A47.433,47.433,0,0,0,53.53,353.1v-1.237c0-7.089,8.746-13.793,13.063-16.671A21.059,21.059,0,0,1,62.344,330.085Z" transform="translate(-24.918 -263.535)" fill="#ffc839"/>
    <path id="Pfad_31932" data-name="Pfad 31932" d="M286.583,262.56c-1.428-3.333-6.061-5.281-12.16-7.323l-.418,3.34s3.849,15.189-7.61,23.051h5.573a10.967,10.967,0,0,0,4.527-.973,30.336,30.336,0,0,0,6.529-3.953A12.143,12.143,0,0,0,286.583,262.56Z" transform="translate(-205.324 -205.145)" fill="#fee77f"/>
    <path id="Pfad_31933" data-name="Pfad 31933" d="M170.626,339.866c-2.123-.546-7.565-1.259-9.014,5.233a30.974,30.974,0,0,0,6.087,3.6,10.963,10.963,0,0,0,4.527.973H177.8A18.152,18.152,0,0,1,170.626,339.866Z" transform="translate(-121.117 -273.113)" fill="#fee77f"/>
    <path id="Pfad_31934" data-name="Pfad 31934" d="M149.423,258.577l-.418-3.34c-6.1,2.042-10.732,3.99-12.16,7.323A12.142,12.142,0,0,0,140.4,276.7q.375.307.76.593c1.448-7.749,8.908-4.834,8.908-4.834h0A26.98,26.98,0,0,1,149.423,258.577Z" transform="translate(-100.439 -205.196)" fill="#ffdd40"/>
    <path id="Pfad_31935" data-name="Pfad 31935" d="M194.062,388.1a1.649,1.649,0,0,1-1.644-1.644V372.948a1.644,1.644,0,1,1,3.289,0v13.507A1.649,1.649,0,0,1,194.062,388.1Z" transform="translate(-145.969 -298.42)" fill="#deeeff"/>
    <path id="Pfad_31936" data-name="Pfad 31936" d="M303.884,388.1a1.649,1.649,0,0,1-1.644-1.644V372.948a1.644,1.644,0,0,1,3.289,0v13.507A1.649,1.649,0,0,1,303.884,388.1Z" transform="translate(-234.332 -298.42)" fill="#deeeff"/>
    <path id="Pfad_31937" data-name="Pfad 31937" d="M384.8,77.746c-3.425,2.341-6.017,5.925-5.114,11.313,2.365,14.118-8.528,21.321,8.5,28.89a34.859,34.859,0,0,1,12.239,8.532A47.278,47.278,0,0,0,384.8,77.746Z" transform="translate(-295.33 -62.365)" fill="#ff7186"/>
    <path id="Pfad_31938" data-name="Pfad 31938" d="M28.228,77.746c3.425,2.341,6.017,5.925,5.114,11.313-2.365,14.118,8.528,21.321-8.5,28.89a34.859,34.859,0,0,0-12.239,8.532,47.278,47.278,0,0,1,15.62-48.735Z" transform="translate(0 -62.365)" fill="#ff7186"/>
    <path id="Pfad_31939" data-name="Pfad 31939" d="M193.614,30.467c1.254-5.112,2.277-12.771-.433-19.144C187.94-1,173.676-.241,169.9.193a.529.529,0,0,0-.37.828c2.266,3.308-6.611.311-11.435,10.431-3.058,6.414-2.289,13.965-1.172,19.016h36.694Z" transform="translate(-116.367 0)" fill="#945230"/>
    <path id="Pfad_31940" data-name="Pfad 31940" d="M175.014,13.58s-1.421-3.268,2.177-5.966S175.428.078,175.414.066A31.8,31.8,0,0,0,169.9.194a.529.529,0,0,0-.37.828c2.266,3.308-6.611.311-11.435,10.431-3.058,6.414-2.289,13.966-1.172,19.016h8.388l2.664-1.058Z" transform="translate(-116.512 -0.002)" fill="#753616"/>
    <path id="Pfad_31941" data-name="Pfad 31941" d="M338.264,153c-.791-.725-2.559-.357-3.24.086a9.578,9.578,0,0,1,.029,2.818l-.8,5.854q0,.708-.042,1.39c1.96.591,3.126-1.168,3.29-2.376a8.974,8.974,0,0,1,.346-1.532C338.364,157.613,340.245,154.817,338.264,153Z" transform="translate(-260.036 -122.739)" fill="#ffaa7b"/>
    <path id="Pfad_31942" data-name="Pfad 31942" d="M153.027,153c.791-.725,2.559-.357,3.24.086a9.57,9.57,0,0,0-.029,2.818l.8,5.854q0,.708.042,1.39c-1.96.591-3.126-1.168-3.29-2.376a8.976,8.976,0,0,0-.346-1.532c-.521-1.628-2.4-4.424-.421-6.24Z" transform="translate(-113.555 -122.739)" fill="#fc9460"/>
    <path id="Pfad_31943" data-name="Pfad 31943" d="M243.517,83.557c-.891-1.4-.6-2.538-.581-3.874,0,0,.751-6.151-6.825-8.336a28.293,28.293,0,0,0-8.46-.889,8.24,8.24,0,0,0-3.66,7.074c0,1.487.321,2.649-.592,4.156a10.193,10.193,0,0,0-1.231,6.465l.819,6.281a23.492,23.492,0,0,0,8.47,18.351,11.453,11.453,0,0,0,1.762,1.182,11.345,11.345,0,0,0,2.388-1.422,21.51,21.51,0,0,0,8.315-17.106l.8-5.854a9.106,9.106,0,0,0-1.208-6.028Z" transform="translate(-169.679 -56.86)" fill="#ffc7ab"/>
    <path id="Pfad_31944" data-name="Pfad 31944" d="M191.021,112.432a23.062,23.062,0,0,1-8.315-18.015l-.8-6.166A10.007,10.007,0,0,1,183.11,81.9c.9-1.48.581-2.621.581-4.08a8.2,8.2,0,0,1,4.24-7.371c-6.733.093-14.115,2.375-14.115,9.244,0,1.386.315,2.469-.581,3.875a9.1,9.1,0,0,0-1.209,6.026l.8,5.855a21.509,21.509,0,0,0,8.315,17.106,11.427,11.427,0,0,0,11.993,1.239,11.242,11.242,0,0,1-2.118-1.366Z" transform="translate(-129.385 -56.874)" fill="#ffaa7b"/>
    <path id="Pfad_31945" data-name="Pfad 31945" d="M240.784,205.5c-.447-2.665-2.37-5.334-4.937-5.916l-3.924-1.153a1.379,1.379,0,0,0-1.64.744.138.138,0,0,1-.252,0,1.379,1.379,0,0,0-1.64-.744l-3.924,1.153c-.1.022-.193.048-.289.076h.037a4.5,4.5,0,0,0,.911,5.262,8.824,8.824,0,0,1,2.109-.759l.7-.155a3.111,3.111,0,0,0,2.1-2.285.124.124,0,0,1,.24,0,3.111,3.111,0,0,0,2.1,2.285l.7.155a8.848,8.848,0,0,1,5.028,3.147,5.154,5.154,0,0,1-3.581,3.783,2.8,2.8,0,0,1-3.74-2.219c0-.023-.005-.045-.008-.069a.646.646,0,0,0-1.286,0c0,.023-.005.046-.008.069A2.683,2.683,0,0,1,228,210.947a6.641,6.641,0,0,0,.392,4.5,6.482,6.482,0,0,0,3.384,3,9.207,9.207,0,0,0,2.358-.817c3.927-2,9.148-5.473,10.818-14.408a12.149,12.149,0,0,0,.207-2.229A8.242,8.242,0,0,1,240.784,205.5Z" transform="translate(-171.036 -159.497)" fill="#945230"/>
    <path id="Pfad_31946" data-name="Pfad 31946" d="M188.134,222.555a9.234,9.234,0,0,0,6.506.707,5.93,5.93,0,0,1-3.9-7.6,2.874,2.874,0,0,1-2.619.36,5.894,5.894,0,0,1-3.745-3.509,8.863,8.863,0,0,1,3.407-2.8,4.262,4.262,0,0,1-.826-5.234l-.113.033c-2.618.594-4.567,3.357-4.963,6.073a8.162,8.162,0,0,1-4.741-4.664h0a12.134,12.134,0,0,0,.207,2.226C179.01,217.081,184.206,220.554,188.134,222.555Z" transform="translate(-133.592 -164.413)" fill="#753616"/>
  </g>
</svg>
