<svg xmlns="http://www.w3.org/2000/svg" width="100" height="100" viewBox="0 0 100 100">
  <g id="teamwork" transform="translate(0 0.001)">
    <path id="Pfad_31837" data-name="Pfad 31837" d="M100,50A49.966,49.966,0,0,1,65.161,97.656a49,49,0,0,1-7.208,1.712.155.155,0,0,1-.033,0q-1.817.291-3.673.447-.4.033-.794.061c-.374.024-.749.047-1.127.063Q51.169,100,50,100q-1.2,0-2.383-.057-.536-.024-1.072-.063c-.267-.018-.533-.037-.8-.059q-1.9-.159-3.761-.462c-.592-.1-1.182-.2-1.765-.317a49.385,49.385,0,0,1-7.372-2.063Q30.782,96.226,28.8,95.3q-.673-.316-1.339-.655-1.707-.863-3.336-1.853A50,50,0,1,1,100,50Zm0,0" transform="translate(0 0)" fill="#ffe152"/>
    <path id="Pfad_31838" data-name="Pfad 31838" d="M63.889,278.644V318.5a57.624,57.624,0,0,1-8.6-2.407q-2.412-.879-4.72-1.962-.785-.369-1.562-.765-1.992-1.007-3.893-2.162a58.511,58.511,0,0,1-23.148-26.253v-6.305a15.814,15.814,0,0,1,11.713-15.273c.247-.067.495-.129.748-.181a15.268,15.268,0,0,1,2.057-.305c.426-.033.857-.053,1.293-.053h10.3a15.72,15.72,0,0,1,3.353.358c.061.012.124.026.185.04.182.041.365.085.543.133a.122.122,0,0,0,.014,0,15.829,15.829,0,0,1,11.719,15.276Zm0,0" transform="translate(-16.96 -219.616)" fill="#2ba1cf"/>
    <path id="Pfad_31839" data-name="Pfad 31839" d="M86.881,278.644V318.5a57.624,57.624,0,0,1-8.6-2.407q-2.412-.879-4.72-1.962-.785-.369-1.562-.765-1.992-1.007-3.893-2.162a58.645,58.645,0,0,1-16.362-14.756v-17.8a15.814,15.814,0,0,1,11.713-15.273c.248-.067.5-.129.748-.181a15.315,15.315,0,0,1,2.057-.305c.426-.033.857-.053,1.293-.053h3.512a15.722,15.722,0,0,1,3.353.358c.061.012.124.026.185.04.182.041.365.085.543.134l.014,0a15.829,15.829,0,0,1,11.719,15.276Zm0,0" transform="translate(-39.951 -219.616)" fill="#66baed"/>
    <path id="Pfad_31840" data-name="Pfad 31840" d="M91.771,264.4l-.037.179-4.731,22a4.6,4.6,0,0,1-4.476,3.649h-.08a4.6,4.6,0,0,1-4.476-3.649l-4.731-22L73.2,264.4Zm0,0" transform="translate(-56.521 -215.207)" fill="#f2f0ec"/>
    <path id="Pfad_31841" data-name="Pfad 31841" d="M82.487,261.69l-7.119,3.956L73.2,255.573l4.423-2.6" transform="translate(-56.521 -204.566)" fill="#d8d5d0"/>
    <path id="Pfad_31842" data-name="Pfad 31842" d="M113.941,261.69l7.119,3.956,2.165-10.073-4.423-2.6" transform="translate(-92.008 -204.566)" fill="#d8d5d0"/>
    <path id="Pfad_31843" data-name="Pfad 31843" d="M20.676,93.295V69.448a21.256,21.256,0,1,1,42.513,0V93.295" transform="translate(-15.964 -37.209)" fill="#cc7a3b"/>
    <path id="Pfad_31844" data-name="Pfad 31844" d="M29.416,70.386c0,8.435,4.94,18.193,7.652,22.916h-16.4V69.455A21.243,21.243,0,0,1,41.773,48.2c-6.535.163-12.357,10.648-12.357,22.187Zm0,0" transform="translate(-15.961 -37.216)" fill="#a35418"/>
    <path id="Pfad_31845" data-name="Pfad 31845" d="M100.478,236.1v6.924a5.641,5.641,0,0,1-11.282,0V236.1Zm0,0" transform="translate(-72.086 -190.92)" fill="#eab599"/>
    <path id="Pfad_31846" data-name="Pfad 31846" d="M111.939,264.563V265a5.64,5.64,0,0,1-3.973,5.388,5.639,5.639,0,0,1-3.927-4.654q.565.035,1.136.035a19.488,19.488,0,0,0,6.764-1.208Zm0,0" transform="translate(-83.965 -213.344)" fill="#f6caae"/>
    <path id="Pfad_31847" data-name="Pfad 31847" d="M10.493,168.543a5.246,5.246,0,1,1-4.406-5.178,5.246,5.246,0,0,1,4.406,5.178Zm0,0" transform="translate(0 -131.929)" fill="#f6caae"/>
    <path id="Pfad_31848" data-name="Pfad 31848" d="M28.755,168.772a5.246,5.246,0,0,1-4.406,5.179,19.611,19.611,0,0,1,0-10.358,5.245,5.245,0,0,1,4.406,5.178Zm0,0" transform="translate(-18.262 -132.161)" fill="#eab599"/>
    <path id="Pfad_31849" data-name="Pfad 31849" d="M18.543,179.964a1.875,1.875,0,1,1-1.876-1.875A1.875,1.875,0,0,1,18.543,179.964Zm0,0" transform="translate(-11.422 -143.5)" fill="#eab599"/>
    <path id="Pfad_31850" data-name="Pfad 31850" d="M61.287,116.576V134.61a19.445,19.445,0,0,1-10.338,5.144l-.1.016a19.275,19.275,0,0,1-3.037.236A19.519,19.519,0,0,1,28.3,120.488v-7.433a19.669,19.669,0,0,1,.2-2.8,12.37,12.37,0,0,0,15.546-1,11.055,11.055,0,0,0,2.933-4.584A12.881,12.881,0,0,0,51,112.709a14.406,14.406,0,0,0,10.283,3.867Zm0,0" transform="translate(-21.849 -85.707)" fill="#eab599"/>
    <path id="Pfad_31851" data-name="Pfad 31851" d="M81.881,116.576V134.61a19.445,19.445,0,0,1-10.338,5.144l-.1.016a19.522,19.522,0,0,1-16.478-19.283v-7.433q0-.3.011-.59a12.231,12.231,0,0,0,9.656-3.214,11.052,11.052,0,0,0,2.933-4.583,12.881,12.881,0,0,0,4.029,8.041A14.406,14.406,0,0,0,81.881,116.576Zm0,0" transform="translate(-42.442 -85.693)" fill="#f6caae"/>
    <path id="Pfad_31852" data-name="Pfad 31852" d="M137.98,155.868a3.242,3.242,0,0,0-6.484,0" transform="translate(-106.065 -122.958)" fill="#eab599"/>
    <path id="Pfad_31853" data-name="Pfad 31853" d="M74.444,155.868a3.242,3.242,0,1,0-6.483,0" transform="translate(-52.473 -122.958)" fill="#eab599"/>
    <path id="Pfad_31854" data-name="Pfad 31854" d="M76.9,165.405a2.214,2.214,0,1,1-2.215-2.214A2.215,2.215,0,0,1,76.9,165.405Zm0,0" transform="translate(-55.954 -131.528)" fill="#3d4159"/>
    <path id="Pfad_31855" data-name="Pfad 31855" d="M140.436,165.405a2.214,2.214,0,1,1-2.214-2.214A2.214,2.214,0,0,1,140.436,165.405Zm0,0" transform="translate(-109.619 -131.528)" fill="#3d4159"/>
    <path id="Pfad_31856" data-name="Pfad 31856" d="M105.431,190.9H101a.955.955,0,0,1,0-1.91h4.429a.955.955,0,0,1,0,1.91Zm0,0" transform="translate(-80.694 -152.18)" fill="#eab599"/>
    <path id="Pfad_31857" data-name="Pfad 31857" d="M96.3,214.206a9.858,9.858,0,0,1-4.759-1.229.868.868,0,1,1,.837-1.521,8.1,8.1,0,0,0,7.844,0,.868.868,0,1,1,.837,1.521,9.859,9.859,0,0,1-4.759,1.229Zm0,0" transform="translate(-73.595 -170.243)" fill="#eab599"/>
    <path id="Pfad_31858" data-name="Pfad 31858" d="M83.492,167.976a.949.949,0,1,1-.949-.949A.949.949,0,0,1,83.492,167.976Zm0,0" transform="translate(-62.999 -134.495)" fill="#fff"/>
    <path id="Pfad_31859" data-name="Pfad 31859" d="M147.507,167.976a.949.949,0,1,1-.948-.949A.948.948,0,0,1,147.507,167.976Zm0,0" transform="translate(-117.249 -134.495)" fill="#fff"/>
    <path id="Pfad_31860" data-name="Pfad 31860" d="M155.773,188.334a2.432,2.432,0,1,1-2.432-2.432A2.432,2.432,0,0,1,155.773,188.334Zm0,0" transform="translate(-121.65 -149.857)" fill="#eab599"/>
    <path id="Pfad_31861" data-name="Pfad 31861" d="M60.515,188.334a2.431,2.431,0,1,1-2.431-2.432A2.431,2.431,0,0,1,60.515,188.334Zm0,0" transform="translate(-42.97 -149.857)" fill="#eab599"/>
    <path id="Pfad_31862" data-name="Pfad 31862" d="M340.413,274.066v7.3a58.572,58.572,0,0,1-28.375,28.665,58.225,58.225,0,0,1-15.449,4.747.179.179,0,0,1-.038.005V274.066a16.539,16.539,0,0,1,15.19-16.486c.448-.038.9-.054,1.352-.054h10.773a16.517,16.517,0,0,1,16.547,16.54Zm0,0" transform="translate(-245.65 -215.52)" fill="#bfd5de"/>
    <path id="Pfad_31863" data-name="Pfad 31863" d="M369.038,274.067v7.3a58.572,58.572,0,0,1-28.375,28.665,57.741,57.741,0,0,1-7.039,2.75V274.067a16.543,16.543,0,0,1,16.545-16.54h2.323a16.542,16.542,0,0,1,16.545,16.54Zm0,0" transform="translate(-274.275 -215.52)" fill="#dde8ed"/>
    <path id="Pfad_31864" data-name="Pfad 31864" d="M284.54,158.868a5.485,5.485,0,1,1-4.609-5.419,5.489,5.489,0,0,1,4.609,5.419Zm0,0" transform="translate(-221.058 -123.942)" fill="#d3a489"/>
    <path id="Pfad_31865" data-name="Pfad 31865" d="M382.179,283.711l-4.441,7.123-4.441-7.123" transform="translate(-301.389 -228.9)" fill="#f74f4f"/>
    <path id="Pfad_31866" data-name="Pfad 31866" d="M378.513,328.812l-5.975,7.54-5.976-7.54,5.977-21.976Zm0,0" transform="translate(-296.331 -253.592)" fill="#f74f4f"/>
    <path id="Pfad_31867" data-name="Pfad 31867" d="M303.65,159.106a5.489,5.489,0,0,1-4.609,5.419,20.525,20.525,0,0,1,0-10.837A5.49,5.49,0,0,1,303.65,159.106Zm0,0" transform="translate(-240.514 -124.184)" fill="#bf8e75"/>
    <path id="Pfad_31868" data-name="Pfad 31868" d="M292.966,170.821A1.962,1.962,0,1,1,291,168.86,1.962,1.962,0,0,1,292.966,170.821Zm0,0" transform="translate(-232.917 -136.071)" fill="#bf8e75"/>
    <path id="Pfad_31869" data-name="Pfad 31869" d="M359.869,256.321l-7.447,4.139-2.266-10.539,4.627-2.726" transform="translate(-282.802 -199.948)" fill="#bfd5de"/>
    <path id="Pfad_31870" data-name="Pfad 31870" d="M392.777,256.321l7.448,4.139,2.266-10.539-4.628-2.726" transform="translate(-319.947 -199.948)" fill="#bfd5de"/>
    <path id="Pfad_31871" data-name="Pfad 31871" d="M463.828,158.868a5.485,5.485,0,1,0,4.609-5.419,5.489,5.489,0,0,0-4.609,5.419Zm0,0" transform="translate(-374.806 -123.942)" fill="#d3a489"/>
    <g id="Gruppe_15549" data-name="Gruppe 15549" transform="translate(52.408 17.069)">
      <path id="Pfad_31872" data-name="Pfad 31872" d="M463.828,159.106a5.489,5.489,0,0,0,4.609,5.419,20.524,20.524,0,0,0,0-10.837A5.49,5.49,0,0,0,463.828,159.106Zm0,0" transform="translate(-427.215 -135.733)" fill="#bf8e75"/>
      <path id="Pfad_31873" data-name="Pfad 31873" d="M483.228,170.821a1.962,1.962,0,1,1-1.962-1.961A1.962,1.962,0,0,1,483.228,170.821Zm0,0" transform="translate(-439.164 -147.447)" fill="#bf8e75"/>
      <path id="Pfad_31874" data-name="Pfad 31874" d="M344.013,95.357a20.424,20.424,0,0,1-17.145,20.159,20.174,20.174,0,0,1-3.278.264,20.421,20.421,0,0,1-20.422-20.422c0-5.337,1.853-13.349,5.2-16.987,3.732-4.051,9.274-3.436,15.217-3.436a20.182,20.182,0,0,1,3.278.264,20.423,20.423,0,0,1,17.145,20.159Zm0,0" transform="translate(-303.167 -74.9)" fill="#bf8e75"/>
      <path id="Pfad_31875" data-name="Pfad 31875" d="M378.688,229.559V236.8a5.9,5.9,0,0,1-11.8,0v-7.244Zm0,0" transform="translate(-352.363 -194.314)" fill="#bf8e75"/>
    </g>
    <path id="Pfad_31876" data-name="Pfad 31876" d="M390.68,259.328v.459a4.267,4.267,0,1,1-8.266.768q.592.036,1.189.036a20.292,20.292,0,0,0,3.278-.264A20.08,20.08,0,0,0,390.68,259.328Zm0,0" transform="translate(-308.674 -209.144)" fill="#d3a489"/>
    <path id="Pfad_31877" data-name="Pfad 31877" d="M366.223,96.363a20.424,20.424,0,0,1-17.145,20.159,20.424,20.424,0,0,1,0-40.318,20.429,20.429,0,0,1,17.045,18.123q.1,1.005.1,2.037Zm0,0" transform="translate(-272.969 -58.837)" fill="#d3a489"/>
    <path id="Pfad_31878" data-name="Pfad 31878" d="M374.318,198.671a10.315,10.315,0,0,1-4.979-1.285.908.908,0,1,1,.875-1.592,8.482,8.482,0,0,0,8.208,0,.908.908,0,0,1,.875,1.592,10.32,10.32,0,0,1-4.979,1.285Zm0,0" transform="translate(-298.062 -157.63)" fill="#bf8e75"/>
    <path id="Pfad_31879" data-name="Pfad 31879" d="M358,151.6a2.317,2.317,0,1,1-2.317-2.317A2.317,2.317,0,0,1,358,151.6Zm0,0" transform="translate(-284.826 -120.326)" fill="#3d4159"/>
    <path id="Pfad_31880" data-name="Pfad 31880" d="M416.5,151.6a2.317,2.317,0,1,1-2.316-2.317A2.316,2.316,0,0,1,416.5,151.6Zm0,0" transform="translate(-334.687 -120.326)" fill="#3d4159"/>
    <path id="Pfad_31881" data-name="Pfad 31881" d="M364.9,154.289a.993.993,0,1,1-.993-.993A.993.993,0,0,1,364.9,154.289Zm0,0" transform="translate(-292.237 -123.443)" fill="#fff"/>
    <path id="Pfad_31882" data-name="Pfad 31882" d="M423.9,154.289a.993.993,0,1,1-.993-.993A.993.993,0,0,1,423.9,154.289Zm0,0" transform="translate(-342.444 -123.443)" fill="#fff"/>
    <path id="Pfad_31883" data-name="Pfad 31883" d="M383.863,178.272H379.23a1,1,0,1,1,0-2h4.633a1,1,0,1,1,0,2Zm0,0" transform="translate(-305.1 -141.946)" fill="#bf8e75"/>
    <path id="Pfad_31884" data-name="Pfad 31884" d="M422.289,327.727h8.9v2.725h-8.9Zm0,0" transform="translate(-342.734 -263.974)" fill="#bfd5de"/>
    <path id="Pfad_31885" data-name="Pfad 31885" d="M387.539,49.34a12.377,12.377,0,0,1,11.469,11.73l.059,1.181h3.559L404.542,75l4.642-1.437-.623-12.49a12.378,12.378,0,0,0-12.409-11.763Zm0,0" transform="translate(-315.903 -38.072)" fill="#2a2f4f"/>
    <path id="Pfad_31886" data-name="Pfad 31886" d="M417.614,27.816a12.615,12.615,0,0,1-17.841,17.841Zm0,0" transform="translate(-325.35 -21.478)" fill="#3d4159"/>
    <path id="Pfad_31887" data-name="Pfad 31887" d="M325.093,62.248H309.61L307.693,75l-4.642-1.437.622-12.49A12.379,12.379,0,0,1,316.083,49.3l22.361.085L341.4,54.71" transform="translate(-250.669 -38.069)" fill="#3d4159"/>
    <path id="Pfad_31888" data-name="Pfad 31888" d="M324.692,49.34a12.377,12.377,0,0,0-11.469,11.73l-.059,1.181h-3.558L307.689,75l-4.642-1.437.623-12.49a12.378,12.378,0,0,1,12.409-11.763Zm0,0" transform="translate(-246.107 -38.072)" fill="#2a2f4f"/>
    <path id="Pfad_31889" data-name="Pfad 31889" d="M196.938,405.538v4.374a58.493,58.493,0,0,1-49.461,0v-4.372a18.658,18.658,0,0,1,13.82-18.021c.291-.078.584-.15.881-.215a18.434,18.434,0,0,1,2.427-.357c.5-.041,1.012-.062,1.527-.062h12.149a18.7,18.7,0,0,1,3.958.419c.074.014.148.031.219.048.215.05.428.1.64.159l.017,0a18.674,18.674,0,0,1,13.823,18.024Zm0,0" transform="translate(-122.209 -315.397)" fill="#3d4159"/>
    <path id="Pfad_31890" data-name="Pfad 31890" d="M229.833,388.723l-.045.212-5.95,27.673q-.462.039-.927.071c-.436.028-.874.054-1.315.074q-1.35.064-2.714.064-1.4,0-2.781-.067-.625-.028-1.251-.074c-.312-.021-.621-.043-.931-.069l-5.948-27.67-.044-.215Zm0,0" transform="translate(-168.882 -316.818)" fill="#66baed"/>
    <path id="Pfad_31891" data-name="Pfad 31891" d="M244.035,416.422l-5.008,8.031-5.007-8.031" transform="translate(-189.029 -338.204)" fill="#3d4159"/>
    <path id="Pfad_31892" data-name="Pfad 31892" d="M246.37,458.195c-.436.029-.874.054-1.315.074q-1.35.064-2.714.064-1.4,0-2.781-.067-.625-.028-1.251-.074l4.032-15.7Zm0,0" transform="translate(-192.341 -358.334)" fill="#3d4159"/>
    <path id="Pfad_31893" data-name="Pfad 31893" d="M218.876,385.533l-8.4,4.667-2.555-11.883,5.218-3.074" transform="translate(-168.014 -306.409)" fill="#2ba1cf"/>
    <path id="Pfad_31894" data-name="Pfad 31894" d="M255.988,385.533l8.4,4.667,2.555-11.883-5.218-3.074" transform="translate(-206.855 -306.409)" fill="#2ba1cf"/>
    <path id="Pfad_31895" data-name="Pfad 31895" d="M276.464,404.761h2.664l-4.653,11.32a57.991,57.991,0,0,1-6.565.672l8.175-27.822.062-.207,5.746,1.877Zm0,0" transform="translate(-216.772 -316.818)" fill="#2a2f4f"/>
    <path id="Pfad_31896" data-name="Pfad 31896" d="M196.415,416.75a57.784,57.784,0,0,1-6.57-.681L185.2,404.761h2.664L182.43,390.6l5.748-1.877.062.207Zm0,0" transform="translate(-147.609 -316.817)" fill="#2a2f4f"/>
    <path id="Pfad_31897" data-name="Pfad 31897" d="M240.1,355.352v8.168a6.656,6.656,0,0,1-13.312,0v-8.168Zm0,0" transform="translate(-183.443 -287.633)" fill="#eab599"/>
    <path id="Pfad_31898" data-name="Pfad 31898" d="M253.618,388.922v.518a6.657,6.657,0,0,1-4.688,6.358,6.654,6.654,0,0,1-4.633-5.492q.668.041,1.341.041a22.946,22.946,0,0,0,7.981-1.425Zm0,0" transform="translate(-197.274 -313.755)" fill="#f6caae"/>
    <path id="Pfad_31899" data-name="Pfad 31899" d="M133.931,275.635a6.191,6.191,0,0,1-5.2,6.11,6.261,6.261,0,0,1-.991.079,6.19,6.19,0,1,1,6.19-6.19Zm0,0" transform="translate(-98.281 -217.862)" fill="#f6caae"/>
    <path id="Pfad_31900" data-name="Pfad 31900" d="M155.48,275.907a6.191,6.191,0,0,1-5.2,6.11,23.156,23.156,0,0,1,0-12.221A6.191,6.191,0,0,1,155.48,275.907Zm0,0" transform="translate(-120.534 -218.131)" fill="#eab599"/>
    <path id="Pfad_31901" data-name="Pfad 31901" d="M143.432,289.114a2.212,2.212,0,1,1-2.212-2.212A2.213,2.213,0,0,1,143.432,289.114Zm0,0" transform="translate(-112.037 -231.235)" fill="#eab599"/>
    <path id="Pfad_31902" data-name="Pfad 31902" d="M336.105,275.635a6.191,6.191,0,0,0,5.2,6.11,6.253,6.253,0,0,0,.991.079,6.19,6.19,0,1,0-6.19-6.19Zm0,0" transform="translate(-271.76 -217.862)" fill="#f6caae"/>
    <path id="Pfad_31903" data-name="Pfad 31903" d="M336.105,275.907a6.191,6.191,0,0,0,5.2,6.11,23.154,23.154,0,0,0,0-12.221A6.191,6.191,0,0,0,336.105,275.907Zm0,0" transform="translate(-271.056 -218.131)" fill="#eab599"/>
    <path id="Pfad_31904" data-name="Pfad 31904" d="M201,165.667v8.769a23.03,23.03,0,0,1-19.334,22.731l-.112.019a22.626,22.626,0,0,1-3.584.279,23.028,23.028,0,0,1-23.028-23.028v-8.77a23.015,23.015,0,0,1,23.028-23.03h0A23.013,23.013,0,0,1,201,165.667Zm0,0" transform="translate(-127.972 -118.898)" fill="#eab599"/>
    <path id="Pfad_31905" data-name="Pfad 31905" d="M357.983,289.114a2.212,2.212,0,1,1-2.212-2.212A2.212,2.212,0,0,1,357.983,289.114Zm0,0" transform="translate(-284.959 -231.235)" fill="#eab599"/>
    <path id="Pfad_31906" data-name="Pfad 31906" d="M225.293,166.611v8.769a23.03,23.03,0,0,1-19.333,22.731l-.113.019a23.033,23.033,0,0,1-19.44-22.75v-8.769a23.034,23.034,0,0,1,19.445-22.752A23.033,23.033,0,0,1,225.293,166.611Zm0,0" transform="translate(-153.035 -119.838)" fill="#f6caae"/>
    <path id="Pfad_31907" data-name="Pfad 31907" d="M216.768,267.44a2.612,2.612,0,1,1-2.612-2.612A2.612,2.612,0,0,1,216.768,267.44Zm0,0" transform="translate(-170.55 -213.509)" fill="#3d4159"/>
    <path id="Pfad_31908" data-name="Pfad 31908" d="M282.737,267.44a2.613,2.613,0,1,1-2.613-2.612A2.613,2.613,0,0,1,282.737,267.44Zm0,0" transform="translate(-223.734 -213.509)" fill="#3d4159"/>
    <path id="Pfad_31909" data-name="Pfad 31909" d="M224.548,270.476a1.119,1.119,0,1,1-1.12-1.12A1.119,1.119,0,0,1,224.548,270.476Zm0,0" transform="translate(-179.031 -216.92)" fill="#fff"/>
    <path id="Pfad_31910" data-name="Pfad 31910" d="M291.079,270.476a1.119,1.119,0,1,1-1.119-1.12A1.119,1.119,0,0,1,291.079,270.476Zm0,0" transform="translate(-232.61 -216.92)" fill="#fff"/>
    <path id="Pfad_31911" data-name="Pfad 31911" d="M245.934,293.023h-5.226a1.127,1.127,0,0,1,0-2.254h5.226a1.127,1.127,0,0,1,0,2.254Zm0,0" transform="translate(-193.324 -234.166)" fill="#eab599"/>
    <path id="Pfad_31912" data-name="Pfad 31912" d="M235.169,320.519a11.634,11.634,0,0,1-5.615-1.45,1.025,1.025,0,0,1,.987-1.8,9.556,9.556,0,0,0,9.255,0,1.025,1.025,0,0,1,.987,1.8A11.636,11.636,0,0,1,235.169,320.519Zm0,0" transform="translate(-185.171 -255.512)" fill="#eab599"/>
    <path id="Pfad_31913" data-name="Pfad 31913" d="M201,145.952v8.983H196.71V147.9l-30.94-5.749-6.547-1.217v14h-4.286v-8.984a18.54,18.54,0,0,1,18.539-18.541h8.98c.244,0,.488,0,.732.017A18.537,18.537,0,0,1,201,145.952Zm0,0" transform="translate(-127.968 -103.807)" fill="#2a2f4f"/>
    <path id="Pfad_31914" data-name="Pfad 31914" d="M237.7,146.009v8.983h-4.286v-7.035l-30.94-5.749a17.752,17.752,0,0,1,35.226,3.8Zm0,0" transform="translate(-165.78 -103.867)" fill="#3d4159"/>
  </g>
</svg>
