<svg xmlns="http://www.w3.org/2000/svg" width="100" height="100" viewBox="0 0 100 100">
  <g id="Gruppe_2693" data-name="Gruppe 2693" transform="translate(-675 -1425)">
    <path id="Icon_ionic-ios-person" data-name="Icon ionic-ios-person" d="M50.758,49.614c-.868-3.833-5.822-5.7-7.533-6.3-1.88-.663-4.556-.82-6.28-1.205a6.38,6.38,0,0,1-2.9-1.338c-.482-.579-.193-5.942-.193-5.942a17.877,17.877,0,0,0,1.374-2.615,33.736,33.736,0,0,0,1.012-4.568s.988,0,1.338-1.736c.374-1.892.964-2.628.892-4.038-.072-1.386-.832-1.35-.832-1.35a21.132,21.132,0,0,0,.82-6.183C38.561,9.381,34.68,4.5,27.653,4.5c-7.123,0-10.92,4.881-10.811,9.835a22.042,22.042,0,0,0,.808,6.183s-.759-.036-.832,1.35c-.072,1.41.518,2.145.892,4.038.337,1.736,1.338,1.736,1.338,1.736a33.735,33.735,0,0,0,1.012,4.568,17.877,17.877,0,0,0,1.374,2.615s.289,5.363-.193,5.942a6.38,6.38,0,0,1-2.9,1.338c-1.724.386-4.4.542-6.28,1.205-1.711.6-6.665,2.471-7.533,6.3a.964.964,0,0,0,.952,1.169H49.818A.961.961,0,0,0,50.758,49.614Z" transform="translate(697.499 1447.5)" fill="gray"/>
    <path id="Ellipse_1" data-name="Ellipse 1" d="M50,6A44,44,0,1,0,94,50,44.05,44.05,0,0,0,50,6m0-6A50,50,0,1,1,0,50,50,50,0,0,1,50,0Z" transform="translate(675 1425)" fill="#707070"/>
  </g>
</svg>
