<svg xmlns="http://www.w3.org/2000/svg" width="100.001" height="100" viewBox="0 0 100.001 100">
  <path id="Differenzmenge_14" data-name="Differenzmenge 14" d="M45,98A50.013,50.013,0,0,1,25.538,1.929,50.013,50.013,0,0,1,64.462,94.071,49.687,49.687,0,0,1,45,98ZM35.143,41.018c-.078,0-.758.039-.826,1.35a5.635,5.635,0,0,0,.394,2.2,15.146,15.146,0,0,1,.5,1.838c.334,1.715,1.327,1.735,1.337,1.735a33.8,33.8,0,0,0,1.013,4.568,17.994,17.994,0,0,0,1.374,2.615c.012.222.274,5.381-.193,5.942A6.313,6.313,0,0,1,35.835,62.6c-.639.143-1.407.254-2.221.372a22.839,22.839,0,0,0-4.059.833c-5.484,1.932-7.123,4.494-7.533,6.3a.955.955,0,0,0,.188.807.974.974,0,0,0,.764.362H67.317a.962.962,0,0,0,.94-1.169c-.409-1.809-2.049-4.371-7.533-6.3a22.84,22.84,0,0,0-4.06-.834c-.813-.118-1.581-.229-2.221-.372a6.31,6.31,0,0,1-2.9-1.338c-.477-.572-.2-5.888-.193-5.942a17.988,17.988,0,0,0,1.373-2.615,33.867,33.867,0,0,0,1.013-4.568c.012,0,.993-.021,1.338-1.735a15.146,15.146,0,0,1,.5-1.838,5.635,5.635,0,0,0,.394-2.2c-.068-1.312-.749-1.35-.826-1.35h-.005a21.339,21.339,0,0,0,.819-6.183,9.361,9.361,0,0,0-2.659-6.71A10.955,10.955,0,0,0,45.152,25a11.092,11.092,0,0,0-8.165,3.108,9.25,9.25,0,0,0-2.646,6.727,22.312,22.312,0,0,0,.807,6.183v0Z" transform="translate(5 2)" fill="gray"/>
</svg>
