<svg xmlns="http://www.w3.org/2000/svg" width="100.001" height="100" viewBox="0 0 100.001 100">
  <g id="Gruppe_2709" data-name="Gruppe 2709" transform="translate(-675 -1175)">
    <path id="Differenzmenge_11" data-name="Differenzmenge 11" d="M73.333,98H16.667A21.667,21.667,0,0,1-5,76.334V19.667A21.667,21.667,0,0,1,16.667-2H73.333A21.667,21.667,0,0,1,95,19.667V76.334A21.667,21.667,0,0,1,73.333,98ZM32.983,39.337h0c-.094,0-.922.046-1,1.642a6.851,6.851,0,0,0,.479,2.676,18.427,18.427,0,0,1,.605,2.234C33.469,47.976,34.678,48,34.691,48a40.8,40.8,0,0,0,1.231,5.556,21.821,21.821,0,0,0,1.67,3.181c.014.269.335,6.542-.234,7.226a7.677,7.677,0,0,1-3.533,1.627c-.778.174-1.714.309-2.7.453a27.821,27.821,0,0,0-4.932,1.012c-6.669,2.35-8.663,5.466-9.161,7.666a1.16,1.16,0,0,0,.229.981,1.185,1.185,0,0,0,.929.441H72.111a1.17,1.17,0,0,0,1.143-1.422c-.5-2.2-2.492-5.316-9.161-7.666a27.818,27.818,0,0,0-4.932-1.012c-.991-.143-1.927-.279-2.7-.453a7.677,7.677,0,0,1-3.533-1.627c-.58-.7-.238-7.161-.234-7.226a22.1,22.1,0,0,0,1.67-3.181A41.2,41.2,0,0,0,55.591,48c.014,0,1.207-.025,1.627-2.11a18.427,18.427,0,0,1,.605-2.234,6.851,6.851,0,0,0,.479-2.676c-.083-1.6-.91-1.642-1-1.642h-.006a25.777,25.777,0,0,0,1-7.519,11.384,11.384,0,0,0-3.234-8.16,13.323,13.323,0,0,0-9.9-3.8,13.489,13.489,0,0,0-9.929,3.78,11.252,11.252,0,0,0-3.219,8.181,27.113,27.113,0,0,0,.982,7.519Z" transform="translate(680 1177)" fill="gray"/>
  </g>
</svg>
