<svg xmlns="http://www.w3.org/2000/svg" width="100" height="100" viewBox="0 0 100 100">
  <g id="Gruppe_2714" data-name="Gruppe 2714" transform="translate(-675 -1300)">
    <g id="Gruppe_2696" data-name="Gruppe 2696">
      <path id="Pfad_3617" data-name="Pfad 3617" d="M21.667,6A15.684,15.684,0,0,0,6,21.667V78.333A15.684,15.684,0,0,0,21.667,94H78.333A15.684,15.684,0,0,0,94,78.333V21.667A15.684,15.684,0,0,0,78.333,6H21.667m0-6H78.333A21.667,21.667,0,0,1,100,21.667V78.333A21.667,21.667,0,0,1,78.333,100H21.667A21.667,21.667,0,0,1,0,78.333V21.667A21.667,21.667,0,0,1,21.667,0Z" transform="translate(675 1300)" fill="#707070"/>
      <path id="Icon_ionic-ios-person" data-name="Icon ionic-ios-person" d="M60.754,59.363C59.7,54.7,53.675,52.43,51.594,51.7c-2.287-.806-5.54-1-7.637-1.466A7.759,7.759,0,0,1,40.425,48.6c-.586-.7-.235-7.226-.235-7.226A21.741,21.741,0,0,0,41.861,38.2a41.026,41.026,0,0,0,1.231-5.555s1.2,0,1.627-2.111c.454-2.3,1.173-3.2,1.085-4.91-.088-1.686-1.011-1.642-1.011-1.642a25.7,25.7,0,0,0,1-7.519C45.921,10.436,41.2,4.5,32.656,4.5c-8.663,0-13.28,5.936-13.148,11.96a26.805,26.805,0,0,0,.982,7.519s-.923-.044-1.011,1.642c-.088,1.715.63,2.609,1.085,4.91.41,2.111,1.627,2.111,1.627,2.111A41.026,41.026,0,0,0,23.422,38.2a21.741,21.741,0,0,0,1.671,3.181s.352,6.523-.235,7.226a7.759,7.759,0,0,1-3.532,1.627c-2.1.469-5.35.66-7.637,1.466-2.081.733-8.106,3-9.161,7.666a1.172,1.172,0,0,0,1.158,1.422H59.611A1.169,1.169,0,0,0,60.754,59.363Z" transform="translate(692.499 1317.358)" fill="gray"/>
    </g>
  </g>
</svg>
