<svg xmlns="http://www.w3.org/2000/svg" xmlns:xlink="http://www.w3.org/1999/xlink" width="100" height="23.485" viewBox="0 0 100 23.485"><defs><clipPath id="a"><rect width="100" height="23.485" fill="none"/></clipPath></defs><g clip-path="url(#a)"><path d="M171.595,29.831a1.416,1.416,0,0,1-1.019.358,1.274,1.274,0,0,1-.948-.358,1.442,1.442,0,0,1,0-1.895,1.274,1.274,0,0,1,.943-.358,1.416,1.416,0,0,1,1.02.358,1.387,1.387,0,0,1,0,1.895Zm.2,10.015h-2.355V31.319H171.8Z" transform="translate(-142.057 -23.142)" fill="#3c3c3b"/><path d="M198.656,51a4.215,4.215,0,0,1,.288-.336,3.611,3.611,0,0,1,.82-.539,2.772,2.772,0,0,1,1.33-.34,3.078,3.078,0,0,1,2.383,1.011,3.894,3.894,0,0,1,.922,2.728v4.961h-2.345v-4.7a1.743,1.743,0,0,0-.463-1.262,1.587,1.587,0,0,0-1.194-.48,1.627,1.627,0,0,0-1.269.52,2.137,2.137,0,0,0-.472,1.483v4.435h-2.344V49.955h2.345Z" transform="translate(-164.747 -41.779)" fill="#3c3c3b"/><path d="M258.451,52.493a2.163,2.163,0,0,0-.166-.187,2.07,2.07,0,0,0-.48-.31,1.6,1.6,0,0,0-.748-.191,1.253,1.253,0,0,0-.765.209.592.592,0,0,0-.279.48.641.641,0,0,0,.4.552,5.079,5.079,0,0,0,.973.4q.574.173,1.16.416a2.312,2.312,0,0,1,.986.782,2.188,2.188,0,0,1,.4,1.338,2.427,2.427,0,0,1-.906,1.92,3.7,3.7,0,0,1-2.485.773,5.038,5.038,0,0,1-1.292-.162,3.865,3.865,0,0,1-.995-.39,6.352,6.352,0,0,1-.667-.453,2.921,2.921,0,0,1-.412-.378l-.119-.179,1.311-1.3a2.132,2.132,0,0,0,.217.26,2.961,2.961,0,0,0,.622.423,1.985,1.985,0,0,0,.986.268,1.379,1.379,0,0,0,.845-.217.657.657,0,0,0-.115-1.146,4.484,4.484,0,0,0-.986-.408,10.554,10.554,0,0,1-1.159-.421,2.418,2.418,0,0,1-.973-.765,2.08,2.08,0,0,1-.4-1.308,2.44,2.44,0,0,1,.955-1.861,3.449,3.449,0,0,1,2.348-.832,3.948,3.948,0,0,1,1.627.331,3.208,3.208,0,0,1,1.032.645l.3.331Z" transform="translate(-212.362 -41.793)" fill="#3c3c3b"/><path d="M300.759,35.207h2.089v2.7h1.733v2.09h-1.733v3.39a.906.906,0,0,0,.293.68,1.031,1.031,0,0,0,.743.281,2.1,2.1,0,0,0,.446-.045,1.625,1.625,0,0,0,.327-.1l.1-.034v2.005a4.3,4.3,0,0,1-1.571.255q-2.694,0-2.693-2.958V39.994h-1.479V37.9h.782a.878.878,0,0,0,.68-.315,1.18,1.18,0,0,0,.281-.815Z" transform="translate(-250.936 -29.546)" fill="#3c3c3b"/><path d="M346.137,57.626q-.1.119-.285.293a3.36,3.36,0,0,1-.8.459,3.23,3.23,0,0,1-3.348-.425,2.219,2.219,0,0,1-.8-1.722,2.414,2.414,0,0,1,.671-1.742,3.3,3.3,0,0,1,1.852-.909l2.7-.484a1.105,1.105,0,0,0-.39-.876,1.6,1.6,0,0,0-1.088-.339,2.511,2.511,0,0,0-1.053.217,1.943,1.943,0,0,0-.671.446l-.2.2-1.3-1.3c.034-.045.08-.106.14-.181a3.986,3.986,0,0,1,.4-.4,4.2,4.2,0,0,1,.678-.5,4.486,4.486,0,0,1,.961-.4,4.1,4.1,0,0,1,1.215-.181,3.677,3.677,0,0,1,2.634.964,3.2,3.2,0,0,1,1.02,2.428V58.5h-2.345Zm-.471-1.381a1.981,1.981,0,0,0,.471-1.4v-.263l-1.91.349q-.959.153-.96.96,0,.866,1.13.866a1.654,1.654,0,0,0,1.269-.507Z" transform="translate(-286.093 -41.787)" fill="#3c3c3b"/><rect width="2.354" height="12.184" transform="translate(63.816 4.523)" fill="#4698ca"/><path d="M426.061,57.331a4.457,4.457,0,0,1-6.3.049h0l-.048-.049a4.245,4.245,0,0,1-.212-6h0q.1-.109.212-.212a4.457,4.457,0,0,1,6.3-.049l.049.049a4.254,4.254,0,0,1,.2,6.012h0q-.1.1-.2.2m-4.643-1.5a1.987,1.987,0,0,0,2.807.133,1.86,1.86,0,0,0,.133-.133,2.394,2.394,0,0,0,0-3.218,1.979,1.979,0,0,0-2.794-.146c-.051.046-.1.1-.146.146a2.394,2.394,0,0,0,0,3.218" transform="translate(-351.09 -41.785)" fill="#4698ca"/><path d="M487.131,57.114a1.283,1.283,0,0,1-.106.131c-.048.054-.15.15-.306.289a3.586,3.586,0,0,1-.5.374,3,3,0,0,1-.705.3,3.15,3.15,0,0,1-.906.132,3.557,3.557,0,0,1-2.646-1.269,4.378,4.378,0,0,1,0-5.99,3.557,3.557,0,0,1,2.646-1.269,3.117,3.117,0,0,1,1.368.306,2.858,2.858,0,0,1,.892.594l.264.314V49.98h2.345v7.834a4.15,4.15,0,0,1-1.287,3.1,4.45,4.45,0,0,1-3.233,1.254,5.1,5.1,0,0,1-1.4-.192,4.841,4.841,0,0,1-1.114-.45,6.006,6.006,0,0,1-.773-.531,2.726,2.726,0,0,1-.468-.459l-.162-.2,1.478-1.393a4.045,4.045,0,0,0,.259.314,2.965,2.965,0,0,0,.786.506,2.86,2.86,0,0,0,1.309.31,2.1,2.1,0,0,0,2.26-2.26Zm-3.36-1.546a1.791,1.791,0,0,0,1.359.6,1.9,1.9,0,0,0,1.4-.612,2.13,2.13,0,0,0,0-2.961,1.9,1.9,0,0,0-1.4-.608,1.8,1.8,0,0,0-1.359.589,2.294,2.294,0,0,0,0,3Z" transform="translate(-403.47 -41.801)" fill="#4698ca"/><path d="M546.869,29.833a1.416,1.416,0,0,1-1.02.358,1.272,1.272,0,0,1-.947-.358,1.442,1.442,0,0,1,0-1.895,1.273,1.273,0,0,1,.943-.358,1.417,1.417,0,0,1,1.02.358,1.387,1.387,0,0,1,0,1.895m.2,10.015h-2.353V31.321h2.352Z" transform="translate(-456.99 -23.144)" fill="#4698ca"/><path d="M573.929,51a4.229,4.229,0,0,1,.289-.336,3.572,3.572,0,0,1,.82-.539,2.772,2.772,0,0,1,1.33-.34,3.077,3.077,0,0,1,2.383,1.011,3.894,3.894,0,0,1,.922,2.728v4.961h-2.345v-4.7a1.742,1.742,0,0,0-.463-1.262,1.586,1.586,0,0,0-1.194-.48,1.626,1.626,0,0,0-1.269.523,2.137,2.137,0,0,0-.472,1.483v4.433h-2.345V49.955h2.345Z" transform="translate(-479.678 -41.779)" fill="#4698ca"/><path d="M102.04,60.909V68.66l2.1-1.211a1.441,1.441,0,0,0,.72-1.247V62.537Z" transform="translate(-85.633 -51.115)" fill="#3c3c3b"/><path d="M29.933,43.206V35.5l-2.1,1.212a1.44,1.44,0,0,0-.721,1.248v3.566Z" transform="translate(-22.754 -29.789)" fill="#3c3c3b"/><path d="M83.448,33.249,80.2,31.374,77.385,33l6.783,3.916V34.5a1.44,1.44,0,0,0-.72-1.247" transform="translate(-64.942 -26.329)" fill="#3c3c3b"/><path d="M49.125,25.513l6.642-3.835L53.74,20.507a1.441,1.441,0,0,0-1.441,0l-3.174,1.832Z" transform="translate(-41.226 -17.048)" fill="#3c3c3b"/><path d="M62.522,91.462l-6.713,3.876,2.1,1.211a1.44,1.44,0,0,0,1.441,0l3.174-1.833Z" transform="translate(-46.835 -76.756)" fill="#3c3c3b"/><path d="M27.837,81.967,31.01,83.8l2.779-1.605-3.845-2.3h-.01v-.005l-2.819-1.683v2.513a1.44,1.44,0,0,0,.72,1.246" transform="translate(-22.756 -65.633)" fill="#3c3c3b"/><path d="M109.135,14.181a.482.482,0,0,1-.482-.482V10.9a1.078,1.078,0,0,0-1.077-1.077h-2.761a.482.482,0,0,1,0-.965h2.759a2.044,2.044,0,0,1,2.043,2.041v2.8a.482.482,0,0,1-.482.482" transform="translate(-87.557 -7.437)" fill="#3c3c3b"/><path d="M9.344,14.181a.482.482,0,0,1-.482-.482V10.9A2.044,2.044,0,0,1,10.9,8.862h2.76a.482.482,0,1,1,0,.965H10.9A1.078,1.078,0,0,0,9.827,10.9v2.8a.482.482,0,0,1-.482.482" transform="translate(-7.437 -7.437)" fill="#3c3c3b"/><path d="M107.58,109.808h-2.759a.482.482,0,0,1,0-.965h2.759a1.077,1.077,0,0,0,1.077-1.076v-2.724a.482.482,0,0,1,.965,0v2.724a2.041,2.041,0,0,1-2.041,2.041" transform="translate(-87.562 -87.748)" fill="#3c3c3b"/><path d="M13.664,109.805H10.9a2.041,2.041,0,0,1-2.041-2.042v-2.724a.482.482,0,1,1,.965,0v2.724a1.077,1.077,0,0,0,1.076,1.077h2.76a.482.482,0,1,1,0,.965" transform="translate(-7.438 -87.745)" fill="#3c3c3b"/></g></svg>