<svg xmlns="http://www.w3.org/2000/svg" width="88" height="88" viewBox="0 0 88 88"><g transform="translate(-1214 -896)"><rect width="88" height="88" rx="5" transform="translate(1214 896)" fill="#fff"/><g transform="translate(1258 940)"><g transform="translate(-32 -32)"><rect width="1.94" height="1.94" transform="translate(0 15.515)" fill="#1d1d1b"/><rect width="1.94" height="1.94" transform="translate(0 25.211)" fill="#1d1d1b"/><rect width="1.94" height="3.879" transform="translate(0 38.787)" fill="#1d1d1b"/><rect width="1.94" height="1.94" transform="translate(0 46.545)" fill="#1d1d1b"/><path d="M3.879,13.575h9.7V0H0V13.575H3.879ZM1.94,5.819V1.94h9.7v9.7H1.94Z" fill="#1d1d1b"/><rect width="1.94" height="1.939" transform="translate(1.94 44.606)" fill="#1d1d1b"/><path d="M8.112,41.615h3.877v5.819h3.879v-1.94h-1.94v-1.94h1.94v-1.94h-1.94V39.675h1.94V37.736h-1.94V35.8h3.879v-1.94H11.989v3.878H10.051V33.858H6.172V35.8H4.233v1.939h5.819v1.938H4.233v3.879h1.94v-1.94Z" transform="translate(-2.293 -18.343)" fill="#1d1d1b"/><path d="M12.345,14.281h1.94V8.462H8.465v5.819h3.879Z" transform="translate(-4.586 -4.584)" fill="#1d1d1b"/><path d="M12.345,55.018H8.465v1.94H10.4V58.9h1.94Z" transform="translate(-4.586 -29.807)" fill="#1d1d1b"/><path d="M10.4,118.5H8.465v5.819h5.819V118.5H10.4Z" transform="translate(-4.586 -64.2)" fill="#1d1d1b"/><path d="M23.1,97.342H21.16v3.879h3.879v-1.94H23.1Z" transform="translate(-11.463 -52.736)" fill="#1d1d1b"/><path d="M9.7,110.04H0v13.575H13.575V110.04H9.7Zm1.938,9.7v1.94H1.94v-9.7h9.7Z" transform="translate(0 -59.615)" fill="#1d1d1b"/><rect width="1.94" height="1.94" transform="translate(11.636 31.03)" fill="#1d1d1b"/><path d="M25.393,93.109v1.94h1.94v1.939h1.94V93.109H25.393Z" transform="translate(-13.757 -50.443)" fill="#1d1d1b"/><path d="M29.625,46.553v1.939H33.5V46.553H29.625Z" transform="translate(-16.05 -25.22)" fill="#1d1d1b"/><rect width="1.94" height="1.939" transform="translate(13.575 29.091)" fill="#1d1d1b"/><rect width="1.94" height="1.939" transform="translate(15.515 5.817)" fill="#1d1d1b"/><rect width="1.94" height="3.879" transform="translate(15.515 11.636)" fill="#1d1d1b"/><path d="M17.455,67.363V69.3h-9.7v-1.94H3.879v-1.94h1.94V63.484H0v7.758H3.879V73.18h1.94V71.242h1.94V73.18H5.819v1.94H3.879V79H7.758V77.061H9.7V73.182h1.938V75.12h1.939v0h1.94v1.938h7.758V75.12H15.515V73.182h1.94V71.242h3.879V67.363h3.879v-1.94H23.274V63.484h-1.94v1.939H15.515v1.94ZM5.819,71.241H3.879V69.3h1.94Zm7.757,1.939H11.636V71.242h1.939Z" transform="translate(0 -34.393)" fill="#1d1d1b"/><path d="M33.858,107.747v3.879H35.8v1.938h-1.94v3.879H35.8v1.94h1.94v-1.94h1.939v-3.879h1.94v-1.94H37.737v-1.938H35.8v-3.879h-1.94Zm3.879,5.819V115.5H35.8v-1.938Z" transform="translate(-18.343 -57.322)" fill="#1d1d1b"/><rect width="1.94" height="1.94" transform="translate(15.515 62.06)" fill="#1d1d1b"/><rect width="1.94" height="1.94" transform="translate(17.455 9.696)" fill="#1d1d1b"/><rect width="1.94" height="1.94" transform="translate(17.455 15.515)" fill="#1d1d1b"/><path d="M39.677,5.817h1.94v1.94h1.939V3.879H45.5V0h-1.94V3.878H39.677V0H33.858V3.879H35.8V5.817h1.94v1.94h1.939V5.817ZM37.737,3.878H35.8V1.94h1.94Z" transform="translate(-18.343)" fill="#1d1d1b"/><rect width="1.94" height="1.94" transform="translate(19.394 11.636)" fill="#1d1d1b"/><rect width="1.94" height="3.879" transform="translate(21.334 7.757)" fill="#1d1d1b"/><path d="M46.556,27.332v3.879h3.879V25.393H48.5v1.94Z" transform="translate(-25.222 -13.757)" fill="#1d1d1b"/><path d="M41.97,99.281V97.342H40.03v1.939h-1.94v1.94H41.97v1.939h1.94V99.281Z" transform="translate(-20.636 -52.736)" fill="#1d1d1b"/><rect width="1.94" height="1.94" transform="translate(21.334 62.06)" fill="#1d1d1b"/><rect width="1.94" height="3.879" transform="translate(23.273 34.91)" fill="#1d1d1b"/><rect width="1.94" height="1.94" transform="translate(23.273 50.424)" fill="#1d1d1b"/><rect width="1.94" height="1.939" transform="translate(23.273 56.242)" fill="#1d1d1b"/><path d="M56.959,9.7v3.879H58.9V7.757h3.879V5.817h1.94V3.879h1.94V1.94h5.819V0h-9.7V1.94h1.94V3.878H60.839V5.817H56.959V7.757H55.021V9.7Z" transform="translate(-29.808)" fill="#1d1d1b"/><rect width="1.94" height="1.939" transform="translate(25.213 58.181)" fill="#1d1d1b"/><rect width="1.94" height="1.94" transform="translate(27.151 15.515)" fill="#1d1d1b"/><path d="M56.606,96.281h5.819V92.4h-1.94v1.94h-1.94V92.4h-1.94v1.94H54.668V90.462h1.938v-1.94h1.94v-1.94h-1.94v-1.94h-1.94v1.94H52.728v1.94h1.938v1.94H50.789V92.4h1.94v1.94h1.938v3.879H52.728v1.94h1.94v-1.94h1.938Z" transform="translate(-27.515 -45.856)" fill="#1d1d1b"/><rect width="1.94" height="1.94" transform="translate(29.09 23.272)" fill="#1d1d1b"/><rect width="1.94" height="1.94" transform="translate(31.03 11.636)" fill="#1d1d1b"/><rect width="1.94" height="1.939" transform="translate(31.03 21.332)" fill="#1d1d1b"/><rect width="1.94" height="3.879" transform="translate(31.03 42.666)" fill="#1d1d1b"/><path d="M65.423,131.2h-1.94v3.879H69.3V131.2H65.423Z" transform="translate(-34.393 -71.079)" fill="#1d1d1b"/><path d="M73.889,20.1h1.94V16.22h1.94V20.1h1.94V8.462h-1.94V10.4h-1.94v1.939h1.94v1.94H73.889V18.16h-1.94v3.879h1.94Z" transform="translate(-38.979 -4.584)" fill="#1d1d1b"/><path d="M71.6,37.737h5.819V35.8h-1.94v-1.94h-1.94V35.8H71.6v1.938h-1.94V35.8h-1.94v1.939h1.94v1.938H71.6Z" transform="translate(-36.686 -18.343)" fill="#1d1d1b"/><path d="M51.313,55.546h-1.94v-1.94h1.94V49.727h3.879V41.969h-1.94v5.819h-1.94v-1.94h-1.94v1.94H43.556V43.908h3.877V40.029h-1.94v1.939H43.556V40.029H39.677V38.091h-1.94v1.938H35.8V38.091h-1.94v1.939H35.8v1.938h1.94V40.031h1.94v1.938h-1.94v1.939h1.94v1.94H33.858v3.879h3.879v-1.94h3.879v1.938h1.94v0h5.817v1.939H45.494v1.94h1.94v1.94h-1.94v1.939h7.758V53.606h-1.94Z" transform="translate(-18.343 -20.636)" fill="#1d1d1b"/><rect width="1.94" height="3.879" transform="translate(34.909 38.787)" fill="#1d1d1b"/><rect width="1.94" height="1.939" transform="translate(34.909 44.606)" fill="#1d1d1b"/><rect width="1.94" height="1.939" transform="translate(36.849 36.847)" fill="#1d1d1b"/><rect width="1.94" height="3.879" transform="translate(38.789 42.666)" fill="#1d1d1b"/><rect width="1.94" height="1.94" transform="translate(40.728 15.515)" fill="#1d1d1b"/><rect width="1.94" height="1.94" transform="translate(40.728 40.727)" fill="#1d1d1b"/><rect width="1.94" height="1.94" transform="translate(40.728 62.06)" fill="#1d1d1b"/><rect width="1.94" height="1.94" transform="translate(42.668 27.151)" fill="#1d1d1b"/><path d="M95.052,15.515h3.877V11.636H96.99v1.94H95.052V9.7H96.99V5.817h1.94V3.878H96.99V0H95.05V3.878H93.112V5.817H95.05V9.7H93.112v5.819h1.94Z" transform="translate(-50.445)" fill="#1d1d1b"/><rect width="1.94" height="1.94" transform="translate(50.425 50.424)" fill="#1d1d1b"/><path d="M120.445,8.462h-1.94v5.819h5.819V8.462h-3.879Z" transform="translate(-64.201 -4.584)" fill="#1d1d1b"/><rect width="1.94" height="1.939" transform="translate(56.243 44.606)" fill="#1d1d1b"/><path d="M128.91,75.829h1.94V73.889h1.938v-1.94h-1.94v1.94h-3.877v1.939Z" transform="translate(-68.788 -38.979)" fill="#1d1d1b"/><rect width="1.94" height="1.94" transform="translate(58.183 62.06)" fill="#1d1d1b"/><rect width="1.94" height="1.94" transform="translate(60.122 25.211)" fill="#1d1d1b"/><path d="M133.141,94.341h1.94V92.4h-1.938V90.462h1.938V84.643h-1.94v3.879H131.2v5.819Z" transform="translate(-71.081 -45.856)" fill="#1d1d1b"/><path d="M121.677,0H110.04V13.575h13.575V0Zm0,5.817v5.819h-9.7V1.94h9.7Z" transform="translate(-59.615)" fill="#1d1d1b"/><path d="M103.333,33.858h-1.938V35.8H99.456v-1.94h-1.94v3.878h-1.94V35.8H93.637v-1.94H91.7v3.878h-1.94V35.8H83.94v1.94h1.938v1.938H83.94v3.879h1.94V41.616h1.938v9.7H85.88v-1.94H83.94V47.434H78.121v1.939H76.182v1.94h3.879v1.94H82V57.13H83.94v0h1.94v0h1.938V55.19H85.88V53.253h1.938V55.19h1.94V53.253H91.7V55.19h-1.94V57.13h3.879V55.192h1.939v1.939h1.94v1.938h1.94v1.94h1.939V57.13H97.516V53.253h1.94v-1.94h1.939V47.434H97.516v1.939h-1.94v3.879H93.637V47.434h1.939v-1.94H91.7v1.94h-1.94V43.554H91.7v-1.94H87.818V39.677H91.7V37.737h1.94v5.819h1.939v0h3.879V37.737h1.939v1.939h1.938v1.94h1.94V33.858h-1.94ZM85.878,53.253H83.94v-1.94h1.938ZM97.516,41.615h-1.94V39.675h1.94Z" transform="translate(-41.272 -18.343)" fill="#1d1d1b"/><path d="M96.453,104.392H94.515v-1.938h1.94v-1.939H90.636v-1.94h1.94v-1.94h-1.94v-1.94H88.7V92.755h1.94v-1.94H86.757v-1.94h-1.94v3.879h1.94v1.939H82.878V90.816h-1.94v-1.94H79v3.879H77.06v3.879h3.878v1.94H77.06v5.817H75.121V96.634H71.241v3.879h1.94v5.817h-1.94v-1.939H69.3v-1.94h-1.94v-1.938h-1.94v1.938h-1.94v1.94h1.94v-1.938h1.94v3.878H69.3v1.939h1.939v1.94h3.879v-1.94H79v1.94h3.879v1.94h3.879v-1.94h-1.94v-1.94h1.94v1.94H88.7v1.94h1.94V108.27H88.7v-3.877h1.94v1.938h1.94v1.941h1.939v-1.941h3.878v-1.939h-1.94Zm-9.7,1.939H80.938v1.939H79v-3.877h7.757ZM88.7,98.574v3.878H82.878V96.634H88.7Zm3.879,5.817h-1.94v-1.938h1.94Z" transform="translate(-34.393 -48.15)" fill="#1d1d1b"/><rect width="1.94" height="1.94" transform="translate(62.06 60.121)" fill="#1d1d1b"/></g></g></g></svg>