<svg xmlns="http://www.w3.org/2000/svg" width="88" height="88" viewBox="0 0 88 88"><g transform="translate(-1343 -896)"><rect width="88" height="88" rx="5" transform="translate(1343 896)" fill="#fff"/><g transform="translate(1387 940)"><g transform="translate(-32 -32)"><path d="M0,0V10.93H3.121V9.369H1.56v-7.8H3.121V0H0Z" transform="translate(0 -0.002)" fill="#1d1d1b"/><rect width="1.56" height="1.561" transform="translate(0 12.49)" fill="#1d1d1b"/><path d="M0,34.066v3.122H1.56V35.627H3.121V34.066H0Z" transform="translate(0 -18.455)" fill="#1d1d1b"/><path d="M1.56,54.5H0v4.684H3.121V57.625H1.56Z" transform="translate(0 -29.528)" fill="#1d1d1b"/><path d="M0,71.538V73.1H1.56V74.66H0v4.682H3.121v-7.8H0Z" transform="translate(0 -38.756)" fill="#1d1d1b"/><path d="M1.56,91.975H0v9.365H1.56V96.659H3.121V93.537H1.56Z" transform="translate(0 -49.829)" fill="#1d1d1b"/><path d="M0,115.824v10.925H3.121v-1.559H1.56v-7.806H3.121v-1.559H0Z" transform="translate(0 -62.749)" fill="#1d1d1b"/><rect width="1.561" height="1.561" transform="translate(1.56 21.855)" fill="#1d1d1b"/><path d="M6.814,64.439H9.935V66H8.374V67.56H9.935v3.122H6.814v1.561H8.374V73.8H6.814v3.124H8.374V75.366H9.935v3.121H8.374v1.563H6.814v1.559H9.935v1.563H11.5V80.049H9.935V78.488H11.5V73.8H9.935V72.243H11.5V64.437H9.935V62.88H8.374V61.317H6.814Z" transform="translate(-3.692 -33.219)" fill="#1d1d1b"/><path d="M6.814,109.01v1.559H9.935V109.01H6.814Z" transform="translate(-3.692 -59.057)" fill="#1d1d1b"/><path d="M8.374,0H6.814V1.565H11.5V0H8.374Z" transform="translate(-3.692 -0.002)" fill="#1d1d1b"/><path d="M8.374,6.814H6.814V11.5H11.5V6.814H8.374Z" transform="translate(-3.692 -3.692)" fill="#1d1d1b"/><path d="M8.374,20.442H6.814V22H11.5V20.442H8.374Z" transform="translate(-3.692 -11.075)" fill="#1d1d1b"/><path d="M8.374,27.254v0H6.814v3.122H8.374v1.561H6.814v3.123H8.374V33.5H9.935v1.561H11.5V30.374H9.935v-1.56H11.5V27.254H8.374Z" transform="translate(-3.692 -14.764)" fill="#1d1d1b"/><path d="M8.374,47.69H6.814v4.684H8.374V50.812H9.935v1.563H8.374v1.559H9.935V55.5H11.5V47.69H8.374Z" transform="translate(-3.692 -25.836)" fill="#1d1d1b"/><path d="M8.374,115.824H6.814v1.559H11.5v-1.559H8.374Z" transform="translate(-3.692 -62.749)" fill="#1d1d1b"/><path d="M8.374,122.634H6.814v4.682H11.5v-4.682H8.374Z" transform="translate(-3.692 -66.438)" fill="#1d1d1b"/><path d="M8.374,136.262H6.814v1.559H11.5v-1.559H8.374Z" transform="translate(-3.692 -73.821)" fill="#1d1d1b"/><rect width="1.56" height="1.559" transform="translate(7.806 20.294)" fill="#1d1d1b"/><rect width="1.56" height="1.559" transform="translate(7.806 32.781)" fill="#1d1d1b"/><rect width="1.56" height="1.56" transform="translate(7.806 39.026)" fill="#1d1d1b"/><path d="M17.035,98.218h3.121V96.659H18.595V95.1h1.561V93.538H18.595V91.975h-1.56Z" transform="translate(-9.229 -49.829)" fill="#1d1d1b"/><path d="M17.035,115.824v1.559h1.56v7.806h-1.56v1.559h3.121V115.824H17.035Z" transform="translate(-9.229 -62.749)" fill="#1d1d1b"/><path d="M20.156,10.93V0H17.035V1.565h1.56v7.8h-1.56V10.93h3.121Z" transform="translate(-9.229 -0.002)" fill="#1d1d1b"/><path d="M20.156,27.254H18.595v0h-1.56v3.122h1.56v-1.56h1.561v1.56H18.595v1.561h3.121V28.813h-1.56Z" transform="translate(-9.229 -14.764)" fill="#1d1d1b"/><rect width="1.561" height="1.561" transform="translate(9.366 18.733)" fill="#1d1d1b"/><rect width="1.561" height="1.561" transform="translate(9.366 21.855)" fill="#1d1d1b"/><rect width="1.561" height="1.561" transform="translate(9.366 24.975)" fill="#1d1d1b"/><path d="M18.595,59.473V57.914h-1.56V62.6h1.56V61.035h3.121V59.473H18.595Z" transform="translate(-9.229 -31.376)" fill="#1d1d1b"/><rect width="1.561" height="1.561" transform="translate(9.366 31.22)" fill="#1d1d1b"/><path d="M22,76.5h1.56V74.941H20.438V76.5Z" transform="translate(-11.073 -40.6)" fill="#1d1d1b"/><path d="M20.438,81.755v1.561H22v1.562h1.56V81.755H20.438Z" transform="translate(-11.073 -44.292)" fill="#1d1d1b"/><rect width="1.561" height="1.561" transform="translate(9.366 40.586)" fill="#1d1d1b"/><path d="M20.438,107.162v1.559h3.121V105.6H22v1.563Z" transform="translate(-11.073 -57.21)" fill="#1d1d1b"/><rect width="1.56" height="1.559" transform="translate(10.927 20.294)" fill="#1d1d1b"/><rect width="1.56" height="1.561" transform="translate(10.927 42.147)" fill="#1d1d1b"/><path d="M27.252,16.179h1.561V11.5h1.56v6.245h1.561V6.816H30.373V8.375h-1.56V6.814H27.252Z" transform="translate(-14.764 -3.692)" fill="#1d1d1b"/><path d="M28.813,30.659H27.252v3.122h1.561V36.9h1.56v1.559h1.561V35.341H30.373V30.66h-1.56Z" transform="translate(-14.764 -16.61)" fill="#1d1d1b"/><rect width="1.561" height="1.559" transform="translate(12.488 20.294)" fill="#1d1d1b"/><rect width="1.561" height="1.559" transform="translate(12.488 32.781)" fill="#1d1d1b"/><rect width="1.561" height="1.56" transform="translate(12.488 35.904)" fill="#1d1d1b"/><rect width="1.561" height="1.56" transform="translate(12.488 39.026)" fill="#1d1d1b"/><path d="M27.252,125.47h1.561v1.561h1.56V125.47h1.561v-1.559H30.373v0h-1.56v-4.682H27.252Z" transform="translate(-14.764 -64.593)" fill="#1d1d1b"/><rect width="1.561" height="1.559" transform="translate(12.488 62.441)" fill="#1d1d1b"/><rect width="1.56" height="1.559" transform="translate(14.049 1.563)" fill="#1d1d1b"/><path d="M30.659,50.812H33.78V49.252H32.219V47.69h-1.56Z" transform="translate(-16.61 -25.836)" fill="#1d1d1b"/><path d="M30.373,61.033V57.911h-1.56v0H27.252v4.681h1.561V61.033Z" transform="translate(-14.764 -31.374)" fill="#1d1d1b"/><path d="M30.659,68.13v1.561H33.78V68.13H30.659Z" transform="translate(-16.61 -36.91)" fill="#1d1d1b"/><path d="M32.219,76.5H33.78V74.941H30.659V76.5Z" transform="translate(-16.61 -40.6)" fill="#1d1d1b"/><path d="M30.373,105.6H27.252v4.684h1.561v-1.561h1.56v1.563h-1.56v1.559h1.56v3.121h1.561v-7.8H30.373Z" transform="translate(-14.764 -57.21)" fill="#1d1d1b"/><rect width="1.561" height="1.561" transform="translate(15.609 0.002)" fill="#1d1d1b"/><rect width="1.561" height="1.561" transform="translate(15.609 37.463)" fill="#1d1d1b"/><path d="M32.219,93.253h-1.56v1.561H33.78V88.569H32.219Z" transform="translate(-16.61 -47.983)" fill="#1d1d1b"/><rect width="1.56" height="1.561" transform="translate(17.172 0.002)" fill="#1d1d1b"/><rect width="1.56" height="3.122" transform="translate(17.172 3.122)" fill="#1d1d1b"/><path d="M39.033,13.628v1.563h-1.56v1.56h1.56v3.121h1.561V15.189h1.56V13.628H39.033Z" transform="translate(-20.302 -7.383)" fill="#1d1d1b"/><path d="M39.033,79.909h-1.56V81.47h3.121v1.562h1.56V79.909h-1.56V78.348H39.033Z" transform="translate(-20.302 -42.446)" fill="#1d1d1b"/><rect width="1.561" height="1.559" transform="translate(18.731 53.075)" fill="#1d1d1b"/><path d="M39.033,125.757v-3.122h-1.56v6.243h1.56v-1.561h1.561v-1.559Z" transform="translate(-20.302 -66.438)" fill="#1d1d1b"/><rect width="1.561" height="1.559" transform="translate(18.731 62.441)" fill="#1d1d1b"/><rect width="1.56" height="1.561" transform="translate(20.293 12.49)" fill="#1d1d1b"/><path d="M40.594,33.783H39.033V30.662h-1.56v4.682h1.56v1.561h1.561V35.344h1.56V32.222h-1.56Z" transform="translate(-20.302 -16.612)" fill="#1d1d1b"/><path d="M40.594,49.251H39.033v1.561h-1.56v9.365h3.121V58.618h1.56V57.056h-1.56V53.934H39.033V52.373h1.561V50.812h1.56V47.69h-1.56Z" transform="translate(-20.302 -25.836)" fill="#1d1d1b"/><rect width="1.56" height="1.561" transform="translate(20.293 34.341)" fill="#1d1d1b"/><rect width="1.56" height="1.561" transform="translate(20.293 42.147)" fill="#1d1d1b"/><path d="M40.594,101.912H39.033V100.35h-1.56v4.682h1.56v-1.559h1.561v1.559h1.56V98.789h-1.56Z" transform="translate(-20.302 -53.52)" fill="#1d1d1b"/><rect width="1.56" height="1.56" transform="translate(20.293 56.196)" fill="#1d1d1b"/><rect width="1.56" height="1.561" transform="translate(20.293 60.878)" fill="#1d1d1b"/><path d="M47.691,22.142h1.561V20.581h3.121v-1.56H50.812V14.336h1.561V9.654H50.812V8.093h1.561V6.533H49.252V3.411H47.691Zm1.561-10.927h1.559v1.561H49.252Z" transform="translate(-25.837 -1.848)" fill="#1d1d1b"/><rect width="1.561" height="1.561" transform="translate(21.854 51.512)" fill="#1d1d1b"/><rect width="1.561" height="1.561" transform="translate(21.854 54.635)" fill="#1d1d1b"/><rect width="1.56" height="1.561" transform="translate(23.415 21.855)" fill="#1d1d1b"/><path d="M49.252,54.5H47.691v6.243h4.682V59.188H50.812V57.625h-1.56V56.065h1.56V54.5h-1.56Z" transform="translate(-25.837 -29.528)" fill="#1d1d1b"/><path d="M49.252,71.538H47.691V73.1h3.121V71.538Z" transform="translate(-25.837 -38.756)" fill="#1d1d1b"/><path d="M49.252,78.35v0H47.691V81.47h1.561V79.909h1.56V78.35Z" transform="translate(-25.837 -42.446)" fill="#1d1d1b"/><path d="M52.657,0H51.1V1.563h1.56V3.122h1.561V0H52.657Z" transform="translate(-27.683)" fill="#1d1d1b"/><rect width="1.561" height="1.559" transform="translate(24.975 23.416)" fill="#1d1d1b"/><rect width="1.561" height="1.559" transform="translate(24.975 26.539)" fill="#1d1d1b"/><rect width="1.561" height="1.561" transform="translate(24.975 34.341)" fill="#1d1d1b"/><path d="M50.812,84.878H47.691v1.561h1.561v3.122h1.56v1.561h1.561V88H50.812V86.438h1.561V81.755H50.812Z" transform="translate(-25.837 -44.292)" fill="#1d1d1b"/><rect width="1.561" height="1.559" transform="translate(24.975 49.953)" fill="#1d1d1b"/><rect width="1.561" height="1.559" transform="translate(24.975 53.075)" fill="#1d1d1b"/><rect width="1.561" height="3.122" transform="translate(24.975 59.316)" fill="#1d1d1b"/><rect width="1.559" height="3.122" transform="translate(26.537 6.245)" fill="#1d1d1b"/><rect width="1.559" height="3.122" transform="translate(26.537 12.488)" fill="#1d1d1b"/><path d="M59.471,40.88H57.912v4.683h1.559V44h1.561V42.441H59.471Z" transform="translate(-31.374 -22.147)" fill="#1d1d1b"/><path d="M59.471,57.914H57.912V62.6h3.121V61.037H59.471Z" transform="translate(-31.374 -31.376)" fill="#1d1d1b"/><rect width="1.559" height="4.683" transform="translate(26.537 37.463)" fill="#1d1d1b"/><rect width="1.559" height="1.559" transform="translate(26.537 43.71)" fill="#1d1d1b"/><rect width="1.559" height="1.561" transform="translate(26.537 57.757)" fill="#1d1d1b"/><rect width="1.559" height="1.561" transform="translate(26.537 60.878)" fill="#1d1d1b"/><rect width="1.561" height="1.559" transform="translate(28.097 1.563)" fill="#1d1d1b"/><rect width="1.561" height="1.559" transform="translate(28.097 4.685)" fill="#1d1d1b"/><rect width="1.561" height="1.561" transform="translate(28.097 9.367)" fill="#1d1d1b"/><rect width="1.561" height="1.561" transform="translate(28.097 15.61)" fill="#1d1d1b"/><path d="M59.471,73.1H57.912v1.561h3.121V71.535H59.471Z" transform="translate(-31.374 -38.755)" fill="#1d1d1b"/><rect width="1.561" height="1.561" transform="translate(28.097 42.147)" fill="#1d1d1b"/><rect width="1.561" height="1.559" transform="translate(28.097 53.075)" fill="#1d1d1b"/><rect width="1.561" height="1.56" transform="translate(28.097 56.196)" fill="#1d1d1b"/><rect width="1.56" height="1.561" transform="translate(29.66 18.733)" fill="#1d1d1b"/><rect width="1.56" height="1.559" transform="translate(29.66 32.781)" fill="#1d1d1b"/><path d="M64.726,84.878h1.56v1.561h-1.56v3.122h3.121V88h1.56V86.438h-1.56V84.878h1.56v-1.56H66.285V81.755h-1.56Z" transform="translate(-35.066 -44.292)" fill="#1d1d1b"/><rect width="1.561" height="1.561" transform="translate(31.219 0.002)" fill="#1d1d1b"/><path d="M69.69,37.188h1.56V34.066H68.129v3.122Z" transform="translate(-36.91 -18.455)" fill="#1d1d1b"/><rect width="1.561" height="1.559" transform="translate(31.219 20.294)" fill="#1d1d1b"/><path d="M66.285,49.252V47.691h-1.56v6.243h1.56v3.122h1.561v1.561h1.56V52.375H66.285V50.812h3.121V47.69h-1.56v1.563Z" transform="translate(-35.066 -25.836)" fill="#1d1d1b"/><path d="M69.69,74.941H68.129v3.122H71.25V76.5H69.69Z" transform="translate(-36.91 -40.6)" fill="#1d1d1b"/><path d="M68.129,102.2v1.559H69.69v1.563h1.56V102.2H68.129Z" transform="translate(-36.91 -55.366)" fill="#1d1d1b"/><path d="M67.846,112.413H64.726v1.561h1.56V117.1h1.561Z" transform="translate(-35.066 -60.901)" fill="#1d1d1b"/><path d="M67.846,9.936H66.285V8.377h1.561V6.816H66.285v0h-1.56V11.5h3.121v1.559H66.285V14.62h-1.56V19.3h1.56V16.179h3.121V14.62h-1.56V13.059h1.56V8.377h-1.56Z" transform="translate(-35.066 -3.692)" fill="#1d1d1b"/><path d="M67.846,124.194H66.285v-1.56h-1.56v3.122h1.56v1.559h-1.56v3.122h1.56v-1.561h3.121v-1.561h-1.56v-1.559h1.56v-3.122h-1.56Z" transform="translate(-35.066 -66.438)" fill="#1d1d1b"/><rect width="1.561" height="1.559" transform="translate(34.342 1.563)" fill="#1d1d1b"/><rect width="1.561" height="1.559" transform="translate(34.342 4.685)" fill="#1d1d1b"/><rect width="1.561" height="4.682" transform="translate(34.342 7.806)" fill="#1d1d1b"/><path d="M74.943,38.749h3.121V37.188H76.5V34.066H74.943Z" transform="translate(-40.601 -18.455)" fill="#1d1d1b"/><rect width="1.561" height="1.561" transform="translate(34.342 24.975)" fill="#1d1d1b"/><path d="M76.5,71.535H74.943v3.122H76.5V73.1h1.56V71.536H76.5Z" transform="translate(-40.601 -38.755)" fill="#1d1d1b"/><path d="M76.5,93.537h1.56V91.975H74.943V95.1H76.5Z" transform="translate(-40.601 -49.829)" fill="#1d1d1b"/><path d="M74.943,120.788v1.56H76.5v1.563h1.56v-1.563h1.561v-1.56H78.064v-1.561H76.5v1.561Z" transform="translate(-40.601 -64.593)" fill="#1d1d1b"/><rect width="1.56" height="1.561" transform="translate(35.903 0.002)" fill="#1d1d1b"/><rect width="1.56" height="1.561" transform="translate(35.903 3.124)" fill="#1d1d1b"/><path d="M78.35,13.628v1.561h1.56v3.122h1.561V13.628H78.35Z" transform="translate(-42.447 -7.383)" fill="#1d1d1b"/><rect width="1.56" height="1.56" transform="translate(35.903 14.051)" fill="#1d1d1b"/><path d="M76.5,64.728H74.943v1.559h3.121V64.728Z" transform="translate(-40.601 -35.067)" fill="#1d1d1b"/><path d="M76.5,102.2H74.943v1.559H76.5v3.122H74.943V110H76.5v-1.561h1.56v-1.561h1.561v-1.559H78.064v-1.563h1.561V102.2H76.5Z" transform="translate(-40.601 -55.366)" fill="#1d1d1b"/><path d="M78.064,132.851H74.943v3.122h4.682v-1.559H78.064Z" transform="translate(-40.601 -71.974)" fill="#1d1d1b"/><rect width="1.561" height="1.559" transform="translate(37.463 1.563)" fill="#1d1d1b"/><rect width="1.561" height="1.561" transform="translate(37.463 12.49)" fill="#1d1d1b"/><rect width="1.561" height="1.561" transform="translate(37.463 15.61)" fill="#1d1d1b"/><rect width="1.561" height="1.559" transform="translate(37.463 20.294)" fill="#1d1d1b"/><path d="M79.909,54.223H78.35v1.559h3.121V51.1H79.909Z" transform="translate(-42.447 -27.684)" fill="#1d1d1b"/><rect width="1.561" height="1.561" transform="translate(37.463 31.22)" fill="#1d1d1b"/><path d="M78.064,79.909H74.943V81.47H76.5v1.562h1.56V81.47h1.561V78.348H78.064Z" transform="translate(-40.601 -42.446)" fill="#1d1d1b"/><rect width="1.561" height="1.559" transform="translate(37.463 43.71)" fill="#1d1d1b"/><path d="M85.164,69.69v3.122h1.56v1.561h-1.56v1.561h4.68V71.251H86.724V69.692h3.121V68.13H86.724v1.56Z" transform="translate(-46.139 -36.91)" fill="#1d1d1b"/><rect width="1.56" height="1.561" transform="translate(39.026 40.586)" fill="#1d1d1b"/><path d="M85.164,98.5h1.56v1.559h1.561v1.563H85.164v1.559h4.68V96.944h-1.56v0H86.724V95.383h-1.56Z" transform="translate(-46.139 -51.675)" fill="#1d1d1b"/><path d="M86.724,15.191h-1.56v1.56h1.56v3.121h-1.56v3.122h1.56v-1.56h1.561V19.871h1.56V18.311h-1.56V16.75h1.56v-1.56h-1.56V13.628H86.724Z" transform="translate(-46.139 -7.383)" fill="#1d1d1b"/><path d="M90.129,35.627h1.56V34.066H88.567v1.561Z" transform="translate(-47.982 -18.455)" fill="#1d1d1b"/><path d="M88.285,40.876H86.724v0h-1.56v1.561h1.56V44h3.121V42.439h-1.56Z" transform="translate(-46.139 -22.145)" fill="#1d1d1b"/><path d="M86.724,55.78V54.219h1.561V51.1H86.724v1.562h-1.56V58.9h1.56V57.341h3.121V55.78H86.724Z" transform="translate(-46.139 -27.682)" fill="#1d1d1b"/><rect width="1.561" height="1.561" transform="translate(40.585 54.635)" fill="#1d1d1b"/><path d="M88.285,126.039H86.724v0h-1.56v3.122h1.56v1.563h-1.56v1.559h4.68V127.6h-1.56Z" transform="translate(-46.139 -68.282)" fill="#1d1d1b"/><path d="M90.129,4.972H88.567V6.533h1.561V8.093h1.56V3.411h-1.56Z" transform="translate(-47.982 -1.848)" fill="#1d1d1b"/><path d="M90.129,90.128H88.567v1.561h3.121V88.565h-1.56Z" transform="translate(-47.982 -47.981)" fill="#1d1d1b"/><rect width="1.56" height="1.559" transform="translate(42.146 53.075)" fill="#1d1d1b"/><rect width="1.561" height="4.684" transform="translate(43.707 6.245)" fill="#1d1d1b"/><rect width="1.561" height="1.56" transform="translate(43.707 14.051)" fill="#1d1d1b"/><rect width="1.561" height="1.559" transform="translate(43.707 17.173)" fill="#1d1d1b"/><path d="M96.943,51.1H95.381v6.243h1.561V54.221H98.5V52.659H96.943Z" transform="translate(-51.674 -27.684)" fill="#1d1d1b"/><path d="M96.943,71.535H95.381v3.122h1.561V73.1H98.5V71.536H96.943Z" transform="translate(-51.674 -38.755)" fill="#1d1d1b"/><rect width="1.561" height="1.561" transform="translate(43.707 40.586)" fill="#1d1d1b"/><rect width="1.561" height="1.559" transform="translate(43.707 46.83)" fill="#1d1d1b"/><rect width="1.561" height="1.561" transform="translate(43.707 57.757)" fill="#1d1d1b"/><path d="M96.943,132.851H95.381v3.122H98.5v-1.559H96.943Z" transform="translate(-51.674 -71.974)" fill="#1d1d1b"/><path d="M96.943,0H95.381V1.565h1.561V3.126H95.381V4.687h4.682V3.126H98.5V1.565h1.561V0H96.943Z" transform="translate(-51.674 -0.002)" fill="#1d1d1b"/><rect width="1.559" height="1.561" transform="translate(45.269 12.49)" fill="#1d1d1b"/><path d="M96.943,42.441H95.381V44h1.561v1.563H98.5V44h1.561V42.441H98.5V40.88H96.943Z" transform="translate(-51.674 -22.147)" fill="#1d1d1b"/><rect width="1.559" height="1.561" transform="translate(45.269 37.463)" fill="#1d1d1b"/><path d="M96.943,95.383v0H95.381v1.559h1.561V98.5H98.5V95.383Z" transform="translate(-51.674 -51.675)" fill="#1d1d1b"/><path d="M98.5,109.008H96.943v0H95.381v3.122h1.561v1.561H95.381v1.561h4.682V113.69H98.5v-1.561h1.561v-1.561H98.5Z" transform="translate(-51.674 -59.055)" fill="#1d1d1b"/><rect width="1.561" height="6.243" transform="translate(46.828 6.245)" fill="#1d1d1b"/><rect width="1.561" height="1.56" transform="translate(46.828 14.051)" fill="#1d1d1b"/><rect width="1.561" height="1.559" transform="translate(46.828 17.173)" fill="#1d1d1b"/><rect width="1.561" height="1.559" transform="translate(46.828 23.416)" fill="#1d1d1b"/><rect width="1.561" height="3.122" transform="translate(46.828 26.537)" fill="#1d1d1b"/><rect width="1.561" height="1.561" transform="translate(46.828 31.22)" fill="#1d1d1b"/><rect width="1.561" height="1.56" transform="translate(46.828 35.904)" fill="#1d1d1b"/><rect width="1.561" height="1.56" transform="translate(46.828 39.026)" fill="#1d1d1b"/><rect width="1.561" height="1.559" transform="translate(46.828 46.83)" fill="#1d1d1b"/><rect width="1.561" height="3.122" transform="translate(46.828 57.755)" fill="#1d1d1b"/><rect width="1.559" height="1.561" transform="translate(48.391 0.002)" fill="#1d1d1b"/><rect width="1.559" height="1.56" transform="translate(48.391 35.904)" fill="#1d1d1b"/><path d="M108.723,6.533V3.411h-1.561V4.972H105.6V6.533h3.121Z" transform="translate(-57.211 -1.848)" fill="#1d1d1b"/><path d="M108.723,13.628H105.6v1.561h1.559v3.122H105.6v4.682h1.559v1.561H105.6v3.123h3.121V22.993h1.561v-1.56h-1.561Z" transform="translate(-57.211 -7.383)" fill="#1d1d1b"/><path d="M109.006,47.693v1.561h3.123V47.693h-3.123Z" transform="translate(-59.055 -25.838)" fill="#1d1d1b"/><path d="M107.162,57.914H105.6v1.559h3.121V57.914Z" transform="translate(-57.211 -31.376)" fill="#1d1d1b"/><rect width="1.561" height="1.561" transform="translate(49.951 34.341)" fill="#1d1d1b"/><path d="M107.162,96.944V98.5h1.561v1.559h-1.561V98.5H105.6v4.682h1.559v1.561H105.6v3.122h1.559v1.56h1.561v1.561h-1.561v-1.559H105.6v1.561h1.559v1.559H105.6v3.122h1.559v-1.561h1.561v1.561h1.561v-7.8h-1.561v-4.684h1.561v-7.8h-1.561v1.561Z" transform="translate(-57.211 -51.675)" fill="#1d1d1b"/><rect width="1.561" height="1.561" transform="translate(51.512 24.975)" fill="#1d1d1b"/><path d="M108.723,62.88h-1.561v0H105.6V67.56h1.559V64.439h3.123V61.317h-1.561Z" transform="translate(-57.211 -33.219)" fill="#1d1d1b"/><rect width="1.561" height="1.56" transform="translate(51.512 35.904)" fill="#1d1d1b"/><path d="M108.723,86.721h-1.561V85.163H105.6v1.56h1.559v1.561H105.6v3.122h1.559V89.845h1.561V88.284h1.561V85.161h-1.561Z" transform="translate(-57.211 -46.137)" fill="#1d1d1b"/><rect width="1.56" height="1.559" transform="translate(53.075 23.416)" fill="#1d1d1b"/><rect width="1.56" height="1.559" transform="translate(53.075 53.075)" fill="#1d1d1b"/><path d="M117.383,0h-1.56V10.93h4.68V9.369h-3.121v-7.8H120.5V0h-3.121Z" transform="translate(-62.749 -0.002)" fill="#1d1d1b"/><path d="M117.383,27.252h-1.56v3.122h3.121v1.561h1.56V27.252h-3.121Z" transform="translate(-62.749 -14.764)" fill="#1d1d1b"/><path d="M120.788,37.476h-1.561v6.243h1.561v1.559h1.56V40.6h-1.56Z" transform="translate(-64.592 -20.303)" fill="#1d1d1b"/><path d="M117.383,56.066h-1.56v1.559h3.121v3.122h-1.561v1.561h-1.56v1.559h1.56v3.122h1.561V65.43h1.56V56.065h-1.56V54.5h-1.561Z" transform="translate(-62.749 -29.528)" fill="#1d1d1b"/><path d="M118.944,85.161h-1.561v0h-1.56v1.56h1.56v1.561h-1.56v1.561h3.121V86.723h1.56v-1.56h-1.56Z" transform="translate(-62.749 -46.137)" fill="#1d1d1b"/><path d="M117.383,98.789v1.561h-1.56v4.682h3.121v4.684h-3.121v1.56h1.56v1.563h-1.56V114.4h3.121v1.563h-1.561v1.559H120.5v-4.682h-1.56v-1.563h1.56v-7.8h-1.56V100.35h1.56V98.789h-3.121Z" transform="translate(-62.749 -53.52)" fill="#1d1d1b"/><rect width="1.56" height="4.684" transform="translate(56.196 3.122)" fill="#1d1d1b"/><path d="M127.6,37.472h-1.561v3.123h3.121V39.034H127.6Z" transform="translate(-68.284 -20.301)" fill="#1d1d1b"/><rect width="1.561" height="1.559" transform="translate(57.757 23.416)" fill="#1d1d1b"/><rect width="1.561" height="3.122" transform="translate(57.757 28.098)" fill="#1d1d1b"/><path d="M127.6,71.538h-1.561V76.22H127.6V74.659h1.56V73.1H127.6Z" transform="translate(-68.284 -38.756)" fill="#1d1d1b"/><rect width="1.561" height="1.56" transform="translate(57.757 39.026)" fill="#1d1d1b"/><rect width="1.561" height="1.561" transform="translate(57.757 54.635)" fill="#1d1d1b"/><path d="M126.041,136.262v1.559h3.121v-1.559h-3.121Z" transform="translate(-68.284 -73.821)" fill="#1d1d1b"/><path d="M127.6,0h-1.561V1.565h4.682V0H127.6Z" transform="translate(-68.284 -0.002)" fill="#1d1d1b"/><path d="M129.161,11.5V6.814h-3.121V11.5h3.121Z" transform="translate(-68.284 -3.692)" fill="#1d1d1b"/><path d="M127.6,20.442h-1.561V22h4.682V20.442H127.6Z" transform="translate(-68.284 -11.075)" fill="#1d1d1b"/><path d="M129.161,27.252H127.6v0h-1.561v1.561H127.6v1.56h3.121v-1.56h-1.561Z" transform="translate(-68.284 -14.764)" fill="#1d1d1b"/><rect width="1.56" height="1.561" transform="translate(59.318 21.855)" fill="#1d1d1b"/><rect width="1.56" height="1.561" transform="translate(59.318 24.975)" fill="#1d1d1b"/><rect width="1.56" height="1.561" transform="translate(59.318 31.22)" fill="#1d1d1b"/><rect width="1.56" height="1.561" transform="translate(59.318 37.463)" fill="#1d1d1b"/><path d="M127.6,93.538V91.975h-1.561v6.243H127.6V95.1h3.121V93.538H127.6Z" transform="translate(-68.284 -49.829)" fill="#1d1d1b"/><path d="M129.448,109.006v3.122h3.121v-3.122h-3.121Z" transform="translate(-70.13 -59.055)" fill="#1d1d1b"/><path d="M127.6,124.2h-1.561v1.561h3.121v-3.122H127.6Z" transform="translate(-68.284 -66.438)" fill="#1d1d1b"/><rect width="1.561" height="1.559" transform="translate(60.878 17.173)" fill="#1d1d1b"/><rect width="1.561" height="1.559" transform="translate(60.878 20.294)" fill="#1d1d1b"/><rect width="1.561" height="1.559" transform="translate(60.878 23.416)" fill="#1d1d1b"/><rect width="1.561" height="1.559" transform="translate(60.878 32.781)" fill="#1d1d1b"/><rect width="1.561" height="1.56" transform="translate(60.878 35.904)" fill="#1d1d1b"/><rect width="1.561" height="3.122" transform="translate(60.878 39.024)" fill="#1d1d1b"/><rect width="1.561" height="1.561" transform="translate(60.878 54.635)" fill="#1d1d1b"/><rect width="1.561" height="1.561" transform="translate(60.878 60.878)" fill="#1d1d1b"/><rect width="1.56" height="10.927" transform="translate(62.44 0.002)" fill="#1d1d1b"/><rect width="1.56" height="1.56" transform="translate(62.44 14.051)" fill="#1d1d1b"/><rect width="1.56" height="1.559" transform="translate(62.44 17.173)" fill="#1d1d1b"/><rect width="1.56" height="1.559" transform="translate(62.44 20.294)" fill="#1d1d1b"/><rect width="1.56" height="1.559" transform="translate(62.44 26.539)" fill="#1d1d1b"/><rect width="1.56" height="4.682" transform="translate(62.44 29.659)" fill="#1d1d1b"/><rect width="1.56" height="1.56" transform="translate(62.44 35.904)" fill="#1d1d1b"/><rect width="1.56" height="1.56" transform="translate(62.44 39.026)" fill="#1d1d1b"/><rect width="1.56" height="1.561" transform="translate(62.44 42.147)" fill="#1d1d1b"/><rect width="1.56" height="1.561" transform="translate(62.44 45.269)" fill="#1d1d1b"/><rect width="1.56" height="1.561" transform="translate(62.44 48.391)" fill="#1d1d1b"/><rect width="1.56" height="1.561" transform="translate(62.44 51.512)" fill="#1d1d1b"/></g></g></g></svg>