<svg xmlns="http://www.w3.org/2000/svg" width="58.711" height="77.464" viewBox="0 0 58.711 77.464">
  <g id="icon_woman" transform="translate(-56.165 0)">
    <path id="Pfad_30881" data-name="Pfad 30881" d="M133.257,328.013h-12.02l-6.678,6.678-6.678-6.678H95.861a8.013,8.013,0,0,0-8.013,8.013v14.691H141.27V336.026A8.013,8.013,0,0,0,133.257,328.013Z" transform="translate(-26.394 -273.254)" fill="#31aa52"/>
    <path id="Pfad_30882" data-name="Pfad 30882" d="M181.217,101.422V91.792h0a14.508,14.508,0,0,0,6.477-6.563c.079-.158.156-.315.23-.475q.133-.3.267-.614c.085-.215.163-.433.239-.653.057-.168.12-.334.172-.5.116-.381.215-.769.3-1.162.031-.142.053-.287.08-.43.056-.3.1-.612.142-.923.016-.134.033-.275.045-.414.04-.441.068-.885.068-1.336V70.7h-1.171a5.342,5.342,0,0,1-5.182-4.047l-3-10.644-2.742,9.633a6.678,6.678,0,0,1-6.473,5.058H159.848v8.013a14.679,14.679,0,0,0,8.013,13.075h0v9.629H166.9a10.657,10.657,0,0,1,3.543,6.678h14.782a6.678,6.678,0,0,0,6.678-6.678Z" transform="translate(-86.374 -46.662)" fill="#f2dbc0"/>
    <g id="Gruppe_14675" data-name="Gruppe 14675" transform="translate(79.15 28.382)">
      <path id="Pfad_30883" data-name="Pfad 30883" d="M196.185,174.687a2.337,2.337,0,1,1,2.337-2.337A2.337,2.337,0,0,1,196.185,174.687Zm0-2.671a.334.334,0,0,0-.334.334c0,.367.668.367.668,0A.334.334,0,0,0,196.185,172.016Z" transform="translate(-193.848 -170.013)" fill="#30271f"/>
      <path id="Pfad_30884" data-name="Pfad 30884" d="M276.185,174.687a2.337,2.337,0,1,1,2.337-2.337A2.337,2.337,0,0,1,276.185,174.687Zm0-2.671a.334.334,0,0,0-.334.334c0,.367.668.367.668,0A.334.334,0,0,0,276.185,172.016Z" transform="translate(-260.492 -170.013)" fill="#30271f"/>
    </g>
    <path id="Pfad_30885" data-name="Pfad 30885" d="M222.856,229.021a5.014,5.014,0,0,1-5.008-5.008h2a3.005,3.005,0,0,0,6.01,0h2A5.013,5.013,0,0,1,222.856,229.021Z" transform="translate(-134.691 -186.616)" fill="#f0caa8"/>
    <path id="Pfad_30886" data-name="Pfad 30886" d="M221.2,271.661v-1.336h0a14.366,14.366,0,0,1-1.457.644c-.072.028-.144.053-.218.08a13.477,13.477,0,0,1-1.3.4c-.12.032-.239.064-.359.094-.413.1-.833.171-1.258.231-.134.02-.267.047-.4.063a13.835,13.835,0,0,1-3.347,0c-.134-.016-.267-.043-.4-.063-.425-.06-.845-.134-1.258-.231-.12-.029-.239-.061-.359-.094q-.668-.172-1.3-.4c-.073-.027-.146-.052-.218-.08a14.368,14.368,0,0,1-1.473-.642h0v1.336h0a15,15,0,0,0,1.457.644c.072.028.144.053.218.08.425.155.86.287,1.3.4.12.032.239.065.359.094.413.1.833.17,1.258.231.134.02.267.047.4.063a13.835,13.835,0,0,0,3.347,0c.134-.016.267-.043.4-.063.425-.061.845-.134,1.258-.231.12-.028.239-.061.359-.094.443-.116.879-.248,1.3-.4.073-.027.146-.052.218-.08a14.984,14.984,0,0,0,1.473-.644Z" transform="translate(-126.361 -225.196)" fill="#dbc6ae"/>
    <path id="Pfad_30887" data-name="Pfad 30887" d="M90.553.136A21.369,21.369,0,0,0,66.8,21.371v.6A23.441,23.441,0,0,0,68.5,30.748q.267.668.573,1.308t.668,1.3l2.988,5.374H65.461a4.007,4.007,0,1,0,0,8.013H64.125A8.013,8.013,0,0,0,62.8,62.653c0,.04-.007.08-.007.12a10.684,10.684,0,1,0,17.735-8.013h.963V45.129a14.732,14.732,0,0,1-7.346-8.7c-.012-.036-.025-.071-.037-.107V36.3a14.6,14.6,0,0,1-.63-4.244V24.042H84.292a6.678,6.678,0,0,0,6.479-5.058l2.737-9.633L96.5,20a5.342,5.342,0,0,0,5.182,4.047h1.171v8.013c0,.451-.027.9-.068,1.336-.012.134-.029.276-.045.414q-.056.466-.142.923c-.027.144-.049.287-.08.43-.085.393-.183.781-.3,1.162-.051.171-.115.335-.172.5-.076.219-.154.438-.239.653s-.171.411-.267.614c-.073.16-.151.318-.23.475a14.645,14.645,0,0,1-.844,1.5h2.387l.061-.111,3.666-6.6q.357-.641.668-1.3t.573-1.308a23.441,23.441,0,0,0,1.71-8.773C109.534,10.981,101.483,1.317,90.553.136Z" transform="translate(0 0)" fill="#bf5777"/>
    <path id="Pfad_30888" data-name="Pfad 30888" d="M233.863,56.013l-2.742,9.633a6.678,6.678,0,0,1-6.473,5.058h1.336a6.678,6.678,0,0,0,6.479-5.058l2.07-7.273Z" transform="translate(-140.356 -46.662)" fill="#dbc6ae"/>
    <path id="Pfad_30889" data-name="Pfad 30889" d="M170.231,328.013a10.664,10.664,0,0,1-6.383,18.664c.222.013.442.033.668.033a10.674,10.674,0,0,0,7.05-18.7" transform="translate(-89.706 -273.254)" opacity="0.25"/>
  </g>
</svg>
